AndadaPro-ExtraBoldItalic.ufo
<glyph name="exclam" format="2">
  <advance width="319.375"/>
  <unicode hex="0021"/>
  <outline>
    <contour>
      <point x="181.95454545454547" y="224.86363636363637" type="line"/>
      <point x="201.70454545454544" y="239.61363636363637" type="line"/>
      <point x="210.38636363636363" y="317.6363636363636" type="line" smooth="yes"/>
      <point x="216.72727272727272" y="373.20454545454544"/>
      <point x="266.6363636363636" y="598.4318181818181"/>
      <point x="302.6136363636364" y="745.1363636363636" type="curve"/>
      <point x="277.75" y="771.8863636363636" type="line"/>
      <point x="170.61363636363637" y="763.1136363636364" type="line"/>
      <point x="111.6590909090909" y="295.6363636363636" type="line"/>
      <point x="101.20454545454545" y="229.63636363636363" type="line"/>
    </contour>
    <contour>
      <point x="121.25" y="-13.545454545454545" type="curve" smooth="yes"/>
      <point x="169.11363636363637" y="-13.545454545454545"/>
      <point x="202.54545454545456" y="24.886363636363637"/>
      <point x="202.54545454545456" y="80.4090909090909" type="curve" smooth="yes"/>
      <point x="202.54545454545456" y="119.1590909090909"/>
      <point x="180.3409090909091" y="141.70454545454544"/>
      <point x="143.5909090909091" y="141.70454545454544" type="curve" smooth="yes"/>
      <point x="95.61363636363636" y="141.70454545454544"/>
      <point x="61.40909090909091" y="102.61363636363636"/>
      <point x="61.40909090909091" y="46.86363636363636" type="curve" smooth="yes"/>
      <point x="61.40909090909091" y="10.65909090909091"/>
      <point x="81.72727272727272" y="-13.545454545454545"/>
    </contour>
  </outline>
</glyph>
<glyph name="numbersign" format="2">
  <advance width="635.75"/>
  <unicode hex="0023"/>
  <outline>
    <contour>
      <point x="190.47727272727272" y="-15.0" type="line"/>
      <point x="352.9318181818182" y="562.0" type="line"/>
      <point x="276.4318181818182" y="572.0" type="line"/>
      <point x="114.0909090909091" y="-5.0" type="line"/>
    </contour>
    <contour>
      <point x="52.0" y="141.25" type="line"/>
      <point x="536.8863636363636" y="141.25" type="line"/>
      <point x="548.5454545454545" y="229.75" type="line"/>
      <point x="62.77272727272727" y="224.75" type="line"/>
    </contour>
    <contour>
      <point x="363.22727272727275" y="-15.0" type="line"/>
      <point x="524.7954545454545" y="562.0" type="line"/>
      <point x="449.1818181818182" y="572.0" type="line"/>
      <point x="286.84090909090907" y="-5.0" type="line"/>
    </contour>
    <contour>
      <point x="95.11363636363636" y="328.25" type="line"/>
      <point x="581.0" y="333.25" type="line"/>
      <point x="591.6590909090909" y="416.75" type="line"/>
      <point x="106.88636363636364" y="416.75" type="line"/>
    </contour>
  </outline>
</glyph>
<glyph name="dollar" format="2">
  <advance width="573.875"/>
  <unicode hex="0024"/>
  <outline>
    <contour>
      <point x="245.61363636363637" y="-13.886363636363637" type="curve" smooth="yes"/>
      <point x="390.15909090909093" y="-13.886363636363637"/>
      <point x="499.22727272727275" y="82.29545454545455"/>
      <point x="499.22727272727275" y="210.9318181818182" type="curve" smooth="yes"/>
      <point x="499.22727272727275" y="383.70454545454544"/>
      <point x="261.95454545454544" y="376.72727272727275"/>
      <point x="261.95454545454544" y="480.8863636363636" type="curve" smooth="yes"/>
      <point x="261.95454545454544" y="528.7045454545455"/>
      <point x="301.20454545454544" y="562.5227272727273"/>
      <point x="357.1136363636364" y="562.5227272727273" type="curve" smooth="yes"/>
      <point x="404.1136363636364" y="562.5227272727273"/>
      <point x="458.27272727272725" y="529.9318181818181"/>
      <point x="484.54545454545456" y="514.6818181818181" type="curve"/>
      <point x="408.6818181818182" y="587.9090909090909" type="line"/>
      <point x="415.22727272727275" y="553.9318181818181"/>
      <point x="430.09090909090907" y="508.29545454545456"/>
      <point x="428.97727272727275" y="498.84090909090907" type="curve"/>
      <point x="423.97727272727275" y="442.8863636363636" type="line"/>
      <point x="493.59090909090907" y="439.6590909090909" type="line"/>
      <point x="527.4772727272727" y="614.6590909090909" type="line"/>
      <point x="470.59090909090907" y="633.0909090909091"/>
      <point x="399.72727272727275" y="647.0909090909091"/>
      <point x="337.6363636363636" y="647.0909090909091" type="curve" smooth="yes"/>
      <point x="201.88636363636363" y="647.0909090909091"/>
      <point x="104.9090909090909" y="561.1136363636364"/>
      <point x="104.9090909090909" y="438.70454545454544" type="curve" smooth="yes"/>
      <point x="104.9090909090909" y="260.52272727272725"/>
      <point x="341.84090909090907" y="274.15909090909093"/>
      <point x="341.84090909090907" y="160.45454545454547" type="curve" smooth="yes"/>
      <point x="341.84090909090907" y="109.8409090909091"/>
      <point x="301.25" y="74.79545454545455"/>
      <point x="243.97727272727272" y="74.79545454545455" type="curve" smooth="yes"/>
      <point x="182.22727272727272" y="74.79545454545455"/>
      <point x="140.0" y="106.75"/>
      <point x="103.02272727272727" y="124.4090909090909" type="curve"/>
      <point x="172.6590909090909" y="44.34090909090909" type="line"/>
      <point x="161.6818181818182" y="68.86363636363636"/>
      <point x="147.27272727272728" y="128.29545454545453"/>
      <point x="148.27272727272728" y="136.29545454545453" type="curve" smooth="yes"/>
      <point x="157.1590909090909" y="199.79545454545456" type="line"/>
      <point x="81.0909090909091" y="203.9090909090909" type="line"/>
      <point x="45.54545454545455" y="29.454545454545453" type="line"/>
      <point x="45.54545454545455" y="29.454545454545453"/>
      <point x="127.95454545454545" y="-13.886363636363637"/>
    </contour>
    <contour>
      <point x="247.13636363636363" y="-154.0" type="line"/>
      <point x="276.25" y="15.0" type="line"/>
      <point x="213.75" y="15.0" type="line"/>
      <point x="184.63636363636363" y="-151.0" type="line"/>
    </contour>
    <contour>
      <point x="312.65909090909093" y="616.0" type="line"/>
      <point x="374.15909090909093" y="616.0" type="line"/>
      <point x="403.27272727272725" y="785.0" type="line"/>
      <point x="341.77272727272725" y="788.0" type="line"/>
    </contour>
  </outline>
</glyph>
<glyph name="ampersand" format="2">
  <advance width="845.375"/>
  <unicode hex="0026"/>
  <outline>
    <contour>
      <point x="206.4318181818182" y="-17.09090909090909" type="curve" smooth="yes"/>
      <point x="442.04545454545456" y="-17.09090909090909"/>
      <point x="647.4545454545455" y="230.79545454545453"/>
      <point x="647.4545454545455" y="514.75" type="curve" smooth="yes"/>
      <point x="647.4545454545455" y="566.7272727272727"/>
      <point x="640.4545454545455" y="624.6818181818181"/>
      <point x="630.0" y="663.4090909090909" type="curve"/>
      <point x="503.0" y="616.1363636363636" type="line"/>
      <point x="524.9090909090909" y="562.0"/>
      <point x="537.0227272727273" y="495.1136363636364"/>
      <point x="537.0227272727273" y="436.54545454545456" type="curve" smooth="yes"/>
      <point x="537.0227272727273" y="248.47727272727272"/>
      <point x="401.29545454545456" y="75.95454545454545"/>
      <point x="260.95454545454544" y="75.95454545454545" type="curve" smooth="yes"/>
      <point x="216.88636363636363" y="75.95454545454545"/>
      <point x="193.88636363636363" y="102.18181818181819"/>
      <point x="193.88636363636363" y="152.70454545454547" type="curve" smooth="yes"/>
      <point x="193.88636363636363" y="269.27272727272725"/>
      <point x="245.75" y="417.75"/>
      <point x="286.47727272727275" y="417.75" type="curve" smooth="yes"/>
      <point x="325.8636363636364" y="417.75"/>
      <point x="342.09090909090907" y="408.40909090909093"/>
      <point x="342.09090909090907" y="386.3636363636364" type="curve" smooth="yes"/>
      <point x="342.09090909090907" y="322.70454545454544"/>
      <point x="263.45454545454544" y="262.6363636363636"/>
      <point x="163.11363636363637" y="250.6818181818182" type="curve"/>
      <point x="169.9318181818182" y="235.4318181818182"/>
      <point x="175.86363636363637" y="220.1818181818182"/>
      <point x="182.6818181818182" y="204.9318181818182" type="curve"/>
      <point x="352.4090909090909" y="231.4318181818182"/>
      <point x="459.75" y="316.29545454545456"/>
      <point x="459.75" y="422.97727272727275" type="curve" smooth="yes"/>
      <point x="459.75" y="475.8863636363636"/>
      <point x="403.79545454545456" y="503.0"/>
      <point x="297.40909090909093" y="503.0" type="curve" smooth="yes"/>
      <point x="199.1590909090909" y="503.0"/>
      <point x="67.68181818181819" y="293.25"/>
      <point x="67.68181818181819" y="137.04545454545453" type="curve" smooth="yes"/>
      <point x="67.68181818181819" y="38.79545454545455"/>
      <point x="118.6590909090909" y="-17.09090909090909"/>
    </contour>
    <contour>
      <point x="150.3409090909091" y="187.27272727272728" type="line"/>
      <point x="390.25" y="231.38636363636363"/>
      <point x="562.1136363636364" y="349.8636363636364"/>
      <point x="801.3409090909091" y="443.3409090909091" type="curve"/>
      <point x="813.5454545454545" y="480.4318181818182" type="line"/>
      <point x="752.3409090909091" y="557.0227272727273" type="line"/>
      <point x="628.3409090909091" y="438.02272727272725"/>
      <point x="391.34090909090907" y="287.02272727272725"/>
      <point x="152.3409090909091" y="247.02272727272728" type="curve"/>
    </contour>
  </outline>
</glyph>
<glyph name="quotesingle" format="2">
  <advance width="304.875"/>
  <unicode hex="0027"/>
  <outline>
    <contour>
      <point x="214.70454545454544" y="462.1136363636364" type="line"/>
      <point x="262.1818181818182" y="706.0" type="line"/>
      <point x="158.02272727272728" y="706.0" type="line"/>
      <point x="156.6818181818182" y="651.0"/>
      <point x="150.22727272727272" y="574.4318181818181"/>
      <point x="148.22727272727272" y="560.0" type="curve" smooth="yes"/>
      <point x="133.77272727272728" y="466.8863636363636" type="line"/>
    </contour>
  </outline>
</glyph>
<glyph name="parenleft" format="2">
  <advance width="405.27272727272725"/>
  <unicode hex="0028"/>
  <outline>
    <contour>
      <point x="258.1818181818182" y="-101.22727272727273" type="curve"/>
      <point x="291.8181818181818" y="-79.25" type="line"/>
      <point x="238.47727272727272" y="12.386363636363637"/>
      <point x="213.13636363636363" y="126.18181818181819"/>
      <point x="213.13636363636363" y="244.0681818181818" type="curve" smooth="yes"/>
      <point x="213.13636363636363" y="436.3863636363636"/>
      <point x="281.15909090909093" y="646.6363636363636"/>
      <point x="400.04545454545456" y="789.4772727272727" type="curve"/>
      <point x="367.40909090909093" y="821.0" type="line"/>
      <point x="191.13636363636363" y="681.2045454545455"/>
      <point x="97.22727272727273" y="500.09090909090907"/>
      <point x="97.22727272727273" y="278.6818181818182" type="curve" smooth="yes"/>
      <point x="97.22727272727273" y="134.3409090909091"/>
      <point x="145.79545454545453" y="8.886363636363637"/>
    </contour>
  </outline>
</glyph>
<glyph name="parenright" format="2">
  <advance width="404.4886363636364"/>
  <unicode hex="0029"/>
  <outline>
    <contour>
      <point x="173.20454545454547" y="816.2272727272727" type="curve"/>
      <point x="139.5681818181818" y="794.25" type="line"/>
      <point x="192.9090909090909" y="702.6136363636364"/>
      <point x="218.25" y="588.8181818181819"/>
      <point x="218.25" y="470.9318181818182" type="curve" smooth="yes"/>
      <point x="218.25" y="278.6136363636364"/>
      <point x="150.22727272727272" y="68.36363636363636"/>
      <point x="31.34090909090909" y="-74.47727272727272" type="curve"/>
      <point x="63.97727272727273" y="-106.0" type="line"/>
      <point x="240.25" y="33.79545454545455"/>
      <point x="334.15909090909093" y="214.9090909090909"/>
      <point x="334.15909090909093" y="436.3181818181818" type="curve" smooth="yes"/>
      <point x="334.15909090909093" y="580.6590909090909"/>
      <point x="285.59090909090907" y="706.1136363636364"/>
    </contour>
  </outline>
</glyph>
<glyph name="asterisk" format="2">
  <advance width="461.375"/>
  <unicode hex="002A"/>
  <outline>
    <contour>
      <point x="180.75" y="426.34090909090907" type="line"/>
      <point x="301.40909090909093" y="574.7727272727273" type="line"/>
      <point x="255.88636363636363" y="613.5227272727273" type="line"/>
      <point x="120.11363636363636" y="478.09090909090907" type="line"/>
    </contour>
    <contour>
      <point x="274.4318181818182" y="551.1363636363636" type="line"/>
      <point x="299.75" y="611.2045454545455" type="line"/>
      <point x="142.54545454545453" y="679.4318181818181" type="line"/>
      <point x="108.22727272727273" y="596.3636363636364" type="line"/>
    </contour>
    <contour>
      <point x="325.1363636363636" y="423.34090909090907" type="line"/>
      <point x="395.54545454545456" y="478.97727272727275" type="line"/>
      <point x="297.0" y="612.5227272727273" type="line"/>
      <point x="242.5909090909091" y="570.7727272727273" type="line"/>
    </contour>
    <contour>
      <point x="237.13636363636363" y="573.1363636363636" type="line"/>
      <point x="301.97727272727275" y="576.0227272727273" type="line"/>
      <point x="332.97727272727275" y="757.2272727272727" type="line"/>
      <point x="247.25" y="752.3409090909091" type="line"/>
    </contour>
    <contour>
      <point x="263.02272727272725" y="552.1363636363636" type="line"/>
      <point x="441.34090909090907" y="598.3636363636364" type="line"/>
      <point x="423.02272727272725" y="679.4318181818181" type="line"/>
      <point x="250.47727272727272" y="612.2045454545455" type="line"/>
    </contour>
  </outline>
</glyph>
<glyph name="plus" format="2">
  <advance width="691.125"/>
  <unicode hex="002B"/>
  <outline>
    <contour>
      <point x="265.70454545454544" y="0.0" type="line"/>
      <point x="366.95454545454544" y="0.0" type="line"/>
      <point x="422.52272727272725" y="511.0" type="line"/>
      <point x="326.27272727272725" y="511.0" type="line"/>
    </contour>
    <contour>
      <point x="88.22727272727273" y="204.9318181818182" type="line"/>
      <point x="593.3409090909091" y="209.9318181818182" type="line"/>
      <point x="604.8863636363636" y="306.1818181818182" type="line"/>
      <point x="100.77272727272727" y="306.1818181818182" type="line"/>
    </contour>
  </outline>
</glyph>
<glyph name="comma" format="2">
  <advance width="314.84090909090907"/>
  <unicode hex="002C"/>
  <outline>
    <contour>
      <point x="32.65909090909091" y="-150.0" type="line"/>
      <point x="131.72727272727272" y="-131.88636363636363"/>
      <point x="213.1590909090909" y="-29.113636363636363"/>
      <point x="213.1590909090909" y="80.29545454545455" type="curve" smooth="yes"/>
      <point x="213.1590909090909" y="120.27272727272728"/>
      <point x="198.61363636363637" y="150.9318181818182"/>
      <point x="155.0909090909091" y="150.9318181818182" type="curve" smooth="yes"/>
      <point x="107.22727272727273" y="150.9318181818182"/>
      <point x="72.68181818181819" y="111.27272727272728"/>
      <point x="72.68181818181819" y="54.75" type="curve" smooth="yes"/>
      <point x="72.68181818181819" y="18.204545454545453"/>
      <point x="92.45454545454545" y="-10.113636363636363"/>
      <point x="136.20454545454547" y="-10.113636363636363" type="curve" smooth="yes"/>
      <point x="151.0681818181818" y="-10.113636363636363"/>
      <point x="167.8181818181818" y="-7.340909090909091"/>
      <point x="188.22727272727272" y="-0.022727272727272485" type="curve"/>
      <point x="130.52272727272728" y="33.38636363636364" type="line"/>
      <point x="132.4090909090909" y="-41.34090909090909"/>
      <point x="93.8409090909091" y="-95.22727272727273"/>
      <point x="26.113636363636363" y="-118.0" type="curve"/>
    </contour>
  </outline>
</glyph>
<glyph name="hyphen" format="2">
  <advance width="349.125"/>
  <unicode hex="002D"/>
  <outline>
    <contour>
      <point x="65.22727272727273" y="208.1590909090909" type="line"/>
      <point x="271.3636363636364" y="208.1590909090909" type="line"/>
      <point x="288.02272727272725" y="299.29545454545456" type="line"/>
      <point x="74.88636363636364" y="299.29545454545456" type="line"/>
    </contour>
  </outline>
</glyph>
<glyph name="period" format="2">
  <advance width="323.625"/>
  <unicode hex="002E"/>
  <outline>
    <contour>
      <point x="127.52272727272728" y="-14.431818181818182" type="curve" smooth="yes"/>
      <point x="178.5" y="-14.431818181818182"/>
      <point x="214.70454545454544" y="26.886363636363637"/>
      <point x="214.70454545454544" y="85.52272727272728" type="curve" smooth="yes"/>
      <point x="214.70454545454544" y="126.5"/>
      <point x="191.5" y="150.9318181818182"/>
      <point x="151.86363636363637" y="150.9318181818182" type="curve" smooth="yes"/>
      <point x="101.88636363636364" y="150.9318181818182"/>
      <point x="64.68181818181819" y="108.72727272727272"/>
      <point x="64.68181818181819" y="50.97727272727273" type="curve" smooth="yes"/>
      <point x="64.68181818181819" y="11.886363636363637"/>
      <point x="86.88636363636364" y="-14.431818181818182"/>
    </contour>
  </outline>
</glyph>
<glyph name="slash" format="2">
  <advance width="410.25"/>
  <unicode hex="002F"/>
  <outline>
    <contour>
      <point x="62.36363636363636" y="-65.22727272727273" type="line"/>
      <point x="461.29545454545456" y="744.25" type="line"/>
      <point x="374.9318181818182" y="773.0" type="line"/>
      <point x="-25.0" y="-36.47727272727273" type="line"/>
    </contour>
  </outline>
</glyph>
<glyph name="zero" format="2">
  <advance width="606.0"/>
  <unicode hex="0030"/>
  <outline>
    <contour>
      <point x="269.6136363636364" y="-10.0" type="curve" smooth="yes"/>
      <point x="465.47727272727275" y="-10.0"/>
      <point x="569.5681818181819" y="182.5909090909091"/>
      <point x="569.5681818181819" y="403.3636363636364" type="curve" smooth="yes"/>
      <point x="569.5681818181819" y="548.6818181818181"/>
      <point x="509.3636363636364" y="662.0"/>
      <point x="354.40909090909093" y="662.0" type="curve" smooth="yes"/>
      <point x="158.54545454545453" y="662.0"/>
      <point x="54.34090909090909" y="469.40909090909093"/>
      <point x="54.34090909090909" y="248.86363636363637" type="curve" smooth="yes"/>
      <point x="54.34090909090909" y="103.43181818181819"/>
      <point x="114.54545454545455" y="-10.0"/>
    </contour>
    <contour>
      <point x="279.3863636363636" y="71.93181818181819" type="curve" smooth="yes"/>
      <point x="225.4090909090909" y="71.93181818181819"/>
      <point x="209.38636363636363" y="135.97727272727272"/>
      <point x="209.38636363636363" y="213.9090909090909" type="curve" smooth="yes"/>
      <point x="209.38636363636363" y="367.54545454545456"/>
      <point x="252.0909090909091" y="580.1818181818181"/>
      <point x="344.6363636363636" y="580.1818181818181" type="curve" smooth="yes"/>
      <point x="398.6136363636364" y="580.1818181818181"/>
      <point x="414.6363636363636" y="515.6818181818181"/>
      <point x="414.6363636363636" y="437.52272727272725" type="curve" smooth="yes"/>
      <point x="414.6363636363636" y="236.9090909090909"/>
      <point x="353.59090909090907" y="71.93181818181819"/>
    </contour>
  </outline>
</glyph>
<glyph name="one" format="2">
  <advance width="471.5"/>
  <unicode hex="0031"/>
  <outline>
    <contour>
      <point x="14.886363636363637" y="-5.0" type="line"/>
      <point x="56.22727272727273" y="-3.0"/>
      <point x="173.54545454545453" y="0.0"/>
      <point x="195.52272727272728" y="0.0" type="curve" smooth="yes"/>
      <point x="408.3636363636364" y="0.0" type="line"/>
      <point x="423.25" y="68.8409090909091" type="line"/>
      <point x="260.8636363636364" y="79.72727272727272" type="line"/>
      <point x="320.45454545454544" y="15.363636363636363" type="line"/>
      <point x="320.45454545454544" y="86.0909090909091"/>
      <point x="321.6818181818182" y="150.6818181818182"/>
      <point x="326.79545454545456" y="189.70454545454544" type="curve" smooth="yes"/>
      <point x="358.25" y="426.0" type="line" smooth="yes"/>
      <point x="365.25" y="476.0"/>
      <point x="396.3636363636364" y="660.0"/>
      <point x="396.3636363636364" y="660.0" type="curve"/>
      <point x="297.52272727272725" y="672.0" type="line"/>
      <point x="66.0" y="507.0" type="line"/>
      <point x="93.97727272727273" y="447.5" type="line"/>
      <point x="285.3636363636364" y="510.4318181818182" type="line"/>
      <point x="233.54545454545453" y="548.5909090909091" type="line"/>
      <point x="182.63636363636363" y="159.70454545454544" type="line" smooth="yes"/>
      <point x="178.75" y="128.52272727272728"/>
      <point x="157.20454545454547" y="58.88636363636363"/>
      <point x="143.88636363636363" y="15.363636363636363" type="curve"/>
      <point x="223.3409090909091" y="82.72727272727272" type="line"/>
      <point x="18.65909090909091" y="62.5" type="line"/>
    </contour>
  </outline>
</glyph>
<glyph name="three" format="2">
  <advance width="494.875"/>
  <unicode hex="0033"/>
  <outline>
    <contour>
      <point x="9.25" y="-105.0" type="line"/>
      <point x="249.6818181818182" y="-85.0909090909091"/>
      <point x="442.29545454545456" y="45.88636363636363"/>
      <point x="442.29545454545456" y="191.88636363636363" type="curve" smooth="yes"/>
      <point x="442.29545454545456" y="269.77272727272725"/>
      <point x="374.22727272727275" y="337.84090909090907"/>
      <point x="283.6590909090909" y="336.79545454545456" type="curve"/>
      <point x="278.3409090909091" y="313.59090909090907" type="line"/>
      <point x="381.45454545454544" y="346.47727272727275"/>
      <point x="456.8636363636364" y="415.27272727272725"/>
      <point x="456.8636363636364" y="517.3636363636364" type="curve" smooth="yes"/>
      <point x="456.8636363636364" y="612.3409090909091"/>
      <point x="388.8863636363636" y="662.0"/>
      <point x="260.27272727272725" y="662.0" type="curve" smooth="yes"/>
      <point x="202.29545454545453" y="662.0"/>
      <point x="140.45454545454547" y="652.2272727272727"/>
      <point x="83.88636363636364" y="633.0" type="curve"/>
      <point x="75.88636363636364" y="467.84090909090907" type="line"/>
      <point x="151.9318181818182" y="472.6136363636364" type="line"/>
      <point x="159.47727272727272" y="524.5909090909091" type="line" smooth="yes"/>
      <point x="161.36363636363637" y="539.1363636363636"/>
      <point x="180.25" y="586.9090909090909"/>
      <point x="193.02272727272728" y="623.7727272727273" type="curve"/>
      <point x="143.5" y="551.5" type="line"/>
      <point x="162.3409090909091" y="566.5454545454545"/>
      <point x="207.27272727272728" y="578.2045454545455"/>
      <point x="243.95454545454547" y="578.2045454545455" type="curve" smooth="yes"/>
      <point x="286.8863636363636" y="578.2045454545455"/>
      <point x="309.90909090909093" y="554.7272727272727"/>
      <point x="309.90909090909093" y="511.22727272727275" type="curve" smooth="yes"/>
      <point x="309.90909090909093" y="420.9318181818182"/>
      <point x="242.75" y="356.97727272727275"/>
      <point x="132.70454545454544" y="338.4318181818182" type="curve"/>
      <point x="137.1590909090909" y="268.5" type="line"/>
      <point x="137.1590909090909" y="268.5"/>
      <point x="173.25" y="272.3863636363636"/>
      <point x="197.8409090909091" y="272.3863636363636" type="curve" smooth="yes"/>
      <point x="254.77272727272728" y="272.3863636363636"/>
      <point x="282.9318181818182" y="242.79545454545453"/>
      <point x="282.9318181818182" y="188.54545454545453" type="curve" smooth="yes"/>
      <point x="282.9318181818182" y="64.22727272727273"/>
      <point x="151.63636363636363" y="-12.590909090909092"/>
      <point x="-2.5227272727272734" y="-31.84090909090909" type="curve"/>
    </contour>
  </outline>
</glyph>
<glyph name="four" format="2">
  <advance width="569.25"/>
  <unicode hex="0034"/>
  <outline>
    <contour>
      <point x="85.70454545454545" y="184.38636363636363" type="line"/>
      <point x="306.6136363636364" y="184.38636363636363" type="line"/>
      <point x="318.15909090909093" y="270.95454545454544" type="line"/>
      <point x="105.18181818181819" y="270.5" type="line"/>
      <point x="124.1590909090909" y="222.22727272727272" type="line"/>
      <point x="383.1136363636364" y="530.4545454545455" type="line" smooth="yes"/>
      <point x="402.0" y="552.6818181818181"/>
      <point x="516.1818181818181" y="659.0909090909091"/>
      <point x="516.1818181818181" y="659.0909090909091" type="curve"/>
      <point x="429.59090909090907" y="739.0" type="line"/>
      <point x="26.0" y="271.5" type="line"/>
    </contour>
    <contour>
      <point x="159.8409090909091" y="-5.0" type="line"/>
      <point x="201.4090909090909" y="-3.0"/>
      <point x="253.88636363636363" y="0.0"/>
      <point x="284.20454545454544" y="0.0" type="curve" smooth="yes"/>
      <point x="490.6363636363636" y="0.0" type="line"/>
      <point x="503.75" y="68.8409090909091" type="line"/>
      <point x="357.95454545454544" y="78.8409090909091" type="line"/>
      <point x="416.6590909090909" y="15.363636363636363" type="line"/>
      <point x="417.6590909090909" y="58.40909090909091"/>
      <point x="417.8863636363636" y="118.02272727272727"/>
      <point x="422.8863636363636" y="160.9090909090909" type="curve" smooth="yes"/>
      <point x="455.22727272727275" y="419.02272727272725" type="line"/>
      <point x="315.29545454545456" y="373.6363636363636" type="line"/>
      <point x="288.15909090909093" y="158.04545454545456" type="line" smooth="yes"/>
      <point x="284.15909090909093" y="124.5"/>
      <point x="269.04545454545456" y="66.75"/>
      <point x="257.15909090909093" y="15.363636363636363" type="curve"/>
      <point x="332.52272727272725" y="81.8409090909091" type="line"/>
      <point x="163.61363636363637" y="62.5" type="line"/>
    </contour>
    <contour>
      <point x="410.22727272727275" y="184.38636363636363" type="line"/>
      <point x="516.8863636363636" y="184.38636363636363" type="line"/>
      <point x="529.5454545454545" y="284.6136363636364" type="line"/>
      <point x="421.8863636363636" y="278.5" type="line"/>
    </contour>
  </outline>
</glyph>
<glyph name="seven" format="2">
  <advance width="537.25"/>
  <unicode hex="0037"/>
  <outline>
    <contour>
      <point x="154.13636363636363" y="-105.0" type="line"/>
      <point x="548.6363636363636" y="586.75" type="line"/>
      <point x="541.4090909090909" y="652.0" type="line"/>
      <point x="233.88636363636363" y="652.0" type="line" smooth="yes"/>
      <point x="212.77272727272728" y="652.0"/>
      <point x="119.6590909090909" y="661.0"/>
      <point x="119.6590909090909" y="661.0" type="curve"/>
      <point x="99.54545454545455" y="641.0" type="line"/>
      <point x="62.45454545454545" y="438.72727272727275" type="line"/>
      <point x="138.5" y="435.6136363636364" type="line"/>
      <point x="152.27272727272728" y="481.29545454545456" type="line" smooth="yes"/>
      <point x="156.04545454545456" y="492.8409090909091"/>
      <point x="183.13636363636363" y="542.4545454545455"/>
      <point x="203.45454545454544" y="578.9772727272727" type="curve"/>
      <point x="110.3409090909091" y="517.5" type="line"/>
      <point x="148.45454545454547" y="521.5"/>
      <point x="205.79545454545453" y="527.3863636363636"/>
      <point x="226.6818181818182" y="527.3863636363636" type="curve" smooth="yes"/>
      <point x="435.8636363636364" y="527.3863636363636" type="line"/>
      <point x="399.90909090909093" y="584.2045454545455" type="line"/>
      <point x="372.25" y="516.7727272727273"/>
      <point x="328.9318181818182" y="408.9090909090909"/>
      <point x="313.9318181818182" y="384.3409090909091" type="curve" smooth="yes"/>
      <point x="38.70454545454545" y="-64.27272727272728" type="line"/>
    </contour>
  </outline>
</glyph>
<glyph name="colon" format="2">
  <advance width="290.0"/>
  <unicode hex="003A"/>
  <outline>
    <contour>
      <point x="157.20454545454547" y="329.9318181818182" type="curve" smooth="yes"/>
      <point x="205.29545454545453" y="329.9318181818182"/>
      <point x="238.61363636363637" y="369.02272727272725"/>
      <point x="238.61363636363637" y="423.8863636363636" type="curve" smooth="yes"/>
      <point x="238.61363636363637" y="461.8636363636364"/>
      <point x="217.4090909090909" y="485.1818181818182"/>
      <point x="179.77272727272728" y="485.1818181818182" type="curve" smooth="yes"/>
      <point x="131.79545454545453" y="485.1818181818182"/>
      <point x="97.47727272727272" y="445.8636363636364"/>
      <point x="97.47727272727272" y="390.22727272727275" type="curve" smooth="yes"/>
      <point x="97.47727272727272" y="354.25"/>
      <point x="117.79545454545455" y="329.9318181818182"/>
    </contour>
    <contour>
      <point x="106.27272727272728" y="-14.431818181818182" type="curve" smooth="yes"/>
      <point x="155.13636363636363" y="-14.431818181818182"/>
      <point x="188.45454545454544" y="24.772727272727273"/>
      <point x="188.45454545454544" y="79.63636363636364" type="curve" smooth="yes"/>
      <point x="188.45454545454544" y="118.5"/>
      <point x="166.25" y="140.9318181818182"/>
      <point x="129.61363636363637" y="140.9318181818182" type="curve" smooth="yes"/>
      <point x="81.63636363636364" y="140.9318181818182"/>
      <point x="47.43181818181818" y="101.61363636363636"/>
      <point x="47.43181818181818" y="45.97727272727273" type="curve" smooth="yes"/>
      <point x="47.43181818181818" y="10.0"/>
      <point x="67.63636363636364" y="-14.431818181818182"/>
    </contour>
  </outline>
</glyph>
<glyph name="less" format="2">
  <advance width="521.5"/>
  <unicode hex="003C"/>
  <outline>
    <contour>
      <point x="336.25" y="-15.0" type="line"/>
      <point x="407.54545454545456" y="57.27272727272727" type="line"/>
      <point x="181.27272727272728" y="288.5" type="line"/>
      <point x="172.61363636363637" y="209.27272727272728" type="line"/>
      <point x="449.1363636363636" y="440.72727272727275" type="line"/>
      <point x="394.5" y="513.0" type="line"/>
      <point x="81.45454545454545" y="248.77272727272728" type="line"/>
    </contour>
  </outline>
</glyph>
<glyph name="equal" format="2">
  <advance width="665.875"/>
  <unicode hex="003D"/>
  <outline>
    <contour>
      <point x="116.63636363636364" y="290.3863636363636" type="line"/>
      <point x="558.9772727272727" y="295.3863636363636" type="line"/>
      <point x="570.6363636363636" y="391.95454545454544" type="line"/>
      <point x="129.1818181818182" y="391.95454545454544" type="line"/>
    </contour>
    <contour>
      <point x="95.29545454545455" y="100.61363636363636" type="line"/>
      <point x="537.6363636363636" y="105.04545454545455" type="line"/>
      <point x="549.2954545454545" y="202.29545454545453" type="line"/>
      <point x="107.61363636363636" y="201.61363636363637" type="line"/>
    </contour>
  </outline>
</glyph>
<glyph name="greater" format="2">
  <advance width="522.625"/>
  <unicode hex="003E"/>
  <outline>
    <contour>
      <point x="127.29545454545455" y="-15.886363636363637" type="line"/>
      <point x="441.1136363636364" y="247.88636363636363" type="line"/>
      <point x="186.4318181818182" y="512.1136363636364" type="line"/>
      <point x="115.13636363636364" y="439.84090909090907" type="line"/>
      <point x="340.52272727272725" y="208.38636363636363" type="line"/>
      <point x="349.95454545454544" y="287.6136363636364" type="line"/>
      <point x="73.43181818181819" y="56.38636363636364" type="line"/>
    </contour>
  </outline>
</glyph>
<glyph name="question" format="2">
  <advance width="477.625"/>
  <unicode hex="003F"/>
  <outline>
    <contour>
      <point x="196.1590909090909" y="223.97727272727272" type="line"/>
      <point x="212.79545454545456" y="238.72727272727272" type="line"/>
      <point x="228.3409090909091" y="419.3409090909091" type="line"/>
      <point x="181.1818181818182" y="361.6363636363636" type="line"/>
      <point x="194.72727272727272" y="359.75"/>
      <point x="207.27272727272728" y="359.75"/>
      <point x="220.8181818181818" y="359.75" type="curve" smooth="yes"/>
      <point x="366.04545454545456" y="359.75"/>
      <point x="461.27272727272725" y="450.1136363636364"/>
      <point x="461.27272727272725" y="594.0" type="curve" smooth="yes"/>
      <point x="461.27272727272725" y="708.0909090909091"/>
      <point x="387.84090909090907" y="767.0"/>
      <point x="276.29545454545456" y="767.0" type="curve" smooth="yes"/>
      <point x="237.52272727272728" y="767.0"/>
      <point x="190.86363636363637" y="760.0"/>
      <point x="140.20454545454547" y="744.1136363636364" type="curve"/>
      <point x="131.4318181818182" y="588.25" type="line"/>
      <point x="195.95454545454547" y="592.6818181818181" type="line"/>
      <point x="198.1818181818182" y="625.7954545454545" type="line" smooth="yes"/>
      <point x="199.29545454545453" y="643.0227272727273"/>
      <point x="216.61363636363637" y="696.6590909090909"/>
      <point x="226.38636363636363" y="735.5227272727273" type="curve"/>
      <point x="143.45454545454547" y="673.1590909090909" type="line"/>
      <point x="179.79545454545453" y="689.0454545454545"/>
      <point x="214.6818181818182" y="698.0454545454545"/>
      <point x="245.6818181818182" y="698.0454545454545" type="curve" smooth="yes"/>
      <point x="303.5" y="698.0454545454545"/>
      <point x="340.04545454545456" y="665.1136363636364"/>
      <point x="340.04545454545456" y="599.5454545454545" type="curve" smooth="yes"/>
      <point x="340.04545454545456" y="505.6363636363636"/>
      <point x="287.27272727272725" y="430.3863636363636"/>
      <point x="206.20454545454547" y="430.3863636363636" type="curve" smooth="yes"/>
      <point x="196.20454545454547" y="430.3863636363636"/>
      <point x="169.77272727272728" y="431.5"/>
      <point x="154.0" y="433.5" type="curve"/>
      <point x="122.68181818181819" y="400.75" type="line"/>
      <point x="101.9090909090909" y="227.86363636363637" type="line"/>
    </contour>
    <contour>
      <point x="124.4090909090909" y="-14.431818181818182" type="curve" smooth="yes"/>
      <point x="171.1590909090909" y="-14.431818181818182"/>
      <point x="198.47727272727272" y="21.0"/>
      <point x="198.47727272727272" y="70.97727272727273" type="curve" smooth="yes"/>
      <point x="198.47727272727272" y="114.5"/>
      <point x="174.38636363636363" y="140.9318181818182"/>
      <point x="134.4090909090909" y="140.9318181818182" type="curve" smooth="yes"/>
      <point x="87.54545454545455" y="140.9318181818182"/>
      <point x="61.0" y="104.72727272727272"/>
      <point x="61.0" y="53.86363636363636" type="curve" smooth="yes"/>
      <point x="61.0" y="12.772727272727273"/>
      <point x="82.6590909090909" y="-14.431818181818182"/>
    </contour>
  </outline>
</glyph>
<glyph name="at" format="2">
  <advance width="1020.0"/>
  <unicode hex="0040"/>
  <outline>
    <contour>
      <point x="417.95454545454544" y="-208.6818181818182" type="curve" smooth="yes"/>
      <point x="498.1136363636364" y="-208.6818181818182"/>
      <point x="600.0909090909091" y="-186.54545454545456"/>
      <point x="685.9318181818181" y="-161.95454545454547" type="curve"/>
      <point x="679.1590909090909" y="-111.68181818181819" type="line"/>
      <point x="679.1590909090909" y="-111.68181818181819"/>
      <point x="511.84090909090907" y="-129.1818181818182"/>
      <point x="461.84090909090907" y="-129.1818181818182" type="curve" smooth="yes"/>
      <point x="288.77272727272725" y="-129.1818181818182"/>
      <point x="194.36363636363637" y="-33.11363636363637"/>
      <point x="194.36363636363637" y="144.0" type="curve" smooth="yes"/>
      <point x="194.36363636363637" y="385.25"/>
      <point x="321.15909090909093" y="604.9318181818181"/>
      <point x="562.4090909090909" y="604.9318181818181" type="curve" smooth="yes"/>
      <point x="733.0909090909091" y="604.9318181818181"/>
      <point x="849.9772727272727" y="510.1363636363636"/>
      <point x="849.9772727272727" y="342.0" type="curve" smooth="yes"/>
      <point x="849.9772727272727" y="180.0"/>
      <point x="772.5454545454545" y="94.3409090909091"/>
      <point x="682.4318181818181" y="60.84090909090909" type="curve"/>
      <point x="696.0909090909091" y="33.95454545454545" type="line"/>
      <point x="699.1818181818181" y="212.1590909090909"/>
      <point x="721.4318181818181" y="343.8636363636364"/>
      <point x="756.7727272727273" y="483.79545454545456" type="curve"/>
      <point x="720.7045454545455" y="508.20454545454544" type="line"/>
      <point x="612.5909090909091" y="482.6818181818182" type="line"/>
      <point x="610.5909090909091" y="435.22727272727275" type="line" smooth="yes"/>
      <point x="603.7045454545455" y="272.3636363636364"/>
      <point x="496.54545454545456" y="96.95454545454545"/>
      <point x="443.95454545454544" y="96.95454545454545" type="curve" smooth="yes"/>
      <point x="420.5" y="96.95454545454545"/>
      <point x="412.90909090909093" y="125.6590909090909"/>
      <point x="412.90909090909093" y="166.27272727272728" type="curve" smooth="yes"/>
      <point x="412.90909090909093" y="283.84090909090907"/>
      <point x="459.20454545454544" y="414.22727272727275"/>
      <point x="498.02272727272725" y="414.22727272727275" type="curve" smooth="yes"/>
      <point x="551.7954545454545" y="414.22727272727275"/>
      <point x="624.4772727272727" y="377.4318181818182"/>
      <point x="634.9318181818181" y="374.8636363636364" type="curve"/>
      <point x="653.6590909090909" y="489.0" type="line"/>
      <point x="633.6590909090909" y="490.0"/>
      <point x="551.2272727272727" y="508.20454545454544"/>
      <point x="514.6818181818181" y="508.20454545454544" type="curve" smooth="yes"/>
      <point x="403.1818181818182" y="508.20454545454544"/>
      <point x="285.04545454545456" y="304.1818181818182"/>
      <point x="285.04545454545456" y="137.22727272727272" type="curve" smooth="yes"/>
      <point x="285.04545454545456" y="55.72727272727273"/>
      <point x="310.40909090909093" y="-16.09090909090909"/>
      <point x="369.4318181818182" y="-16.09090909090909" type="curve" smooth="yes"/>
      <point x="472.34090909090907" y="-16.09090909090909"/>
      <point x="564.8409090909091" y="106.68181818181819"/>
      <point x="621.7272727272727" y="248.95454545454544" type="curve"/>
      <point x="610.4090909090909" y="265.29545454545456" type="line"/>
      <point x="606.0454545454545" y="177.25"/>
      <point x="573.1363636363636" y="77.72727272727272"/>
      <point x="547.1818181818181" y="0.0" type="curve"/>
      <point x="580.0454545454545" y="-17.65909090909091" type="line"/>
      <point x="796.0" y="-1.6590909090909092"/>
      <point x="957.2272727272727" y="159.02272727272728"/>
      <point x="957.2272727272727" y="349.0" type="curve" smooth="yes"/>
      <point x="957.2272727272727" y="568.4318181818181"/>
      <point x="807.1136363636364" y="667.0"/>
      <point x="587.7954545454545" y="667.0" type="curve" smooth="yes"/>
      <point x="270.0681818181818" y="667.0"/>
      <point x="73.3409090909091" y="463.15909090909093"/>
      <point x="73.3409090909091" y="145.4318181818182" type="curve" smooth="yes"/>
      <point x="73.3409090909091" y="-110.47727272727272"/>
      <point x="217.97727272727272" y="-208.6818181818182"/>
    </contour>
  </outline>
</glyph>
<glyph name="A" format="2">
  <advance width="698.75"/>
  <unicode hex="0041"/>
  <anchor x="318.4318181818182" y="0.0" name="bottom"/>
  <anchor x="583.75" y="10.0" name="ogonek"/>
  <anchor x="418.1818181818182" y="705.0" name="top"/>
  <outline>
    <contour>
      <point x="1.0" y="-5.0" type="line"/>
      <point x="43.22727272727273" y="-3.0"/>
      <point x="105.3409090909091" y="0.0"/>
      <point x="127.68181818181819" y="0.0" type="curve" smooth="yes"/>
      <point x="232.72727272727272" y="0.0" type="line"/>
      <point x="246.5" y="65.4090909090909" type="line"/>
      <point x="133.97727272727272" y="78.63636363636364" type="line"/>
      <point x="184.36363636363637" y="35.90909090909091" type="line"/>
      <point x="186.47727272727272" y="62.68181818181818"/>
      <point x="191.8409090909091" y="99.5"/>
      <point x="201.72727272727272" y="122.1590909090909" type="curve" smooth="yes"/>
      <point x="414.25" y="598.1590909090909" type="line"/>
      <point x="369.6818181818182" y="585.75" type="line"/>
      <point x="433.6136363636364" y="142.52272727272728" type="line" smooth="yes"/>
      <point x="437.95454545454544" y="115.1590909090909"/>
      <point x="432.97727272727275" y="61.11363636363637"/>
      <point x="431.4318181818182" y="42.75" type="curve"/>
      <point x="487.25" y="83.63636363636364" type="line"/>
      <point x="371.3863636363636" y="58.84090909090909" type="line"/>
      <point x="365.6136363636364" y="-5.0" type="line"/>
      <point x="414.3863636363636" y="-3.0"/>
      <point x="482.3863636363636" y="0.0"/>
      <point x="512.0454545454545" y="0.0" type="curve" smooth="yes"/>
      <point x="634.5227272727273" y="0.0" type="line"/>
      <point x="648.2954545454545" y="65.4090909090909" type="line"/>
      <point x="539.3409090909091" y="77.86363636363636" type="line"/>
      <point x="603.5" y="44.54545454545455" type="line"/>
      <point x="596.7272727272727" y="58.43181818181818"/>
      <point x="581.9318181818181" y="104.70454545454545"/>
      <point x="577.0454545454545" y="130.9090909090909" type="curve" smooth="yes"/>
      <point x="462.79545454545456" y="715.8863636363636" type="line"/>
      <point x="366.90909090909093" y="705.0" type="line"/>
      <point x="111.1590909090909" y="162.6818181818182" type="line" smooth="yes"/>
      <point x="91.5" y="121.13636363636364"/>
      <point x="52.04545454545455" y="64.97727272727273"/>
      <point x="42.15909090909091" y="49.43181818181818" type="curve"/>
      <point x="108.0909090909091" y="79.63636363636364" type="line"/>
      <point x="4.886363636363637" y="57.95454545454545" type="line"/>
    </contour>
    <contour>
      <point x="214.88636363636363" y="197.0" type="line"/>
      <point x="447.45454545454544" y="197.0" type="line"/>
      <point x="438.25" y="271.15909090909093" type="line"/>
      <point x="245.63636363636363" y="268.04545454545456" type="line"/>
    </contour>
  </outline>
</glyph>
<glyph name="B" format="2">
  <advance width="633.25"/>
  <unicode hex="0042"/>
  <anchor x="283.95454545454544" y="0.0" name="bottom"/>
  <anchor x="382.72727272727275" y="705.0" name="top"/>
  <outline>
    <contour>
      <point x="9.886363636363637" y="-5.0" type="line"/>
      <point x="58.43181818181818" y="-3.0"/>
      <point x="125.97727272727273" y="0.0"/>
      <point x="154.52272727272728" y="0.0" type="curve" smooth="yes"/>
      <point x="198.4318181818182" y="0.0"/>
      <point x="278.84090909090907" y="-5.0"/>
      <point x="321.8636363636364" y="-5.0" type="curve" smooth="yes"/>
      <point x="457.3863636363636" y="-5.0"/>
      <point x="577.7727272727273" y="70.25"/>
      <point x="577.7727272727273" y="212.4318181818182" type="curve" smooth="yes"/>
      <point x="577.7727272727273" y="311.97727272727275"/>
      <point x="498.79545454545456" y="365.4318181818182"/>
      <point x="389.9318181818182" y="366.8863636363636" type="curve"/>
      <point x="424.22727272727275" y="310.3863636363636" type="line"/>
      <point x="440.54545454545456" y="423.5" type="line"/>
      <point x="394.70454545454544" y="365.0" type="line"/>
      <point x="505.90909090909093" y="373.79545454545456"/>
      <point x="599.7727272727273" y="455.34090909090907"/>
      <point x="599.7727272727273" y="562.4545454545455" type="curve" smooth="yes"/>
      <point x="599.7727272727273" y="656.8863636363636"/>
      <point x="510.6818181818182" y="710.0"/>
      <point x="406.15909090909093" y="710.0" type="curve" smooth="yes"/>
      <point x="363.5" y="710.0"/>
      <point x="275.20454545454544" y="705.0"/>
      <point x="233.54545454545453" y="705.0" type="curve" smooth="yes"/>
      <point x="214.6590909090909" y="705.0"/>
      <point x="154.77272727272728" y="708.0"/>
      <point x="115.0" y="710.0" type="curve"/>
      <point x="100.22727272727273" y="642.0454545454545" type="line"/>
      <point x="218.86363636363637" y="620.5" type="line"/>
      <point x="165.47727272727272" y="662.0454545454545" type="line"/>
      <point x="165.36363636363637" y="644.7954545454545"/>
      <point x="166.25" y="583.6818181818181"/>
      <point x="158.9318181818182" y="531.2272727272727" type="curve" smooth="yes"/>
      <point x="103.79545454545455" y="153.61363636363637" type="line" smooth="yes"/>
      <point x="99.02272727272727" y="123.0909090909091"/>
      <point x="81.9090909090909" y="64.75"/>
      <point x="74.02272727272727" y="39.86363636363636" type="curve"/>
      <point x="136.52272727272728" y="81.18181818181819" type="line"/>
      <point x="13.65909090909091" y="58.18181818181818" type="line"/>
    </contour>
    <contour>
      <point x="229.11363636363637" y="53.5" type="line"/>
      <point x="228.88636363636363" y="63.63636363636364"/>
      <point x="235.0" y="138.0909090909091"/>
      <point x="241.77272727272728" y="184.5" type="curve" smooth="yes"/>
      <point x="293.1136363636364" y="540.6590909090909" type="line" smooth="yes"/>
      <point x="298.22727272727275" y="574.3409090909091"/>
      <point x="315.22727272727275" y="637.25"/>
      <point x="321.0" y="659.9090909090909" type="curve"/>
      <point x="288.45454545454544" y="633.3863636363636" type="line"/>
      <point x="304.8636363636364" y="634.6136363636364"/>
      <point x="348.40909090909093" y="637.6136363636364"/>
      <point x="376.8636363636364" y="637.6136363636364" type="curve" smooth="yes"/>
      <point x="433.54545454545456" y="637.6136363636364"/>
      <point x="469.8863636363636" y="598.2727272727273"/>
      <point x="469.8863636363636" y="546.9090909090909" type="curve" smooth="yes"/>
      <point x="469.8863636363636" y="455.4318181818182"/>
      <point x="408.72727272727275" y="402.75"/>
      <point x="332.90909090909093" y="402.75" type="curve" smooth="yes"/>
      <point x="326.79545454545456" y="402.75" type="line"/>
      <point x="309.1363636363636" y="325.59090909090907" type="line"/>
      <point x="319.25" y="325.59090909090907" type="line" smooth="yes"/>
      <point x="385.40909090909093" y="325.59090909090907"/>
      <point x="442.65909090909093" y="296.22727272727275"/>
      <point x="442.65909090909093" y="218.97727272727272" type="curve" smooth="yes"/>
      <point x="442.65909090909093" y="125.8409090909091"/>
      <point x="379.97727272727275" y="68.72727272727272"/>
      <point x="296.29545454545456" y="68.72727272727272" type="curve" smooth="yes"/>
      <point x="267.25" y="68.72727272727272"/>
      <point x="221.27272727272728" y="71.95454545454545"/>
      <point x="207.6818181818182" y="74.18181818181819" type="curve"/>
    </contour>
  </outline>
</glyph>
<glyph name="C" format="2">
  <advance width="656.5"/>
  <unicode hex="0043"/>
  <anchor x="320.29545454545456" y="0.0" name="bottom"/>
  <anchor x="455.09090909090907" y="720.0" name="top"/>
  <outline>
    <contour>
      <point x="349.95454545454544" y="-15.0" type="curve" smooth="yes"/>
      <point x="431.6136363636364" y="-15.0"/>
      <point x="499.70454545454544" y="3.0"/>
      <point x="565.4772727272727" y="19.0" type="curve"/>
      <point x="581.4772727272727" y="183.95454545454547" type="line"/>
      <point x="512.9545454545455" y="181.95454545454547" type="line"/>
      <point x="510.95454545454544" y="170.72727272727272"/>
      <point x="507.95454545454544" y="152.72727272727272"/>
      <point x="503.1818181818182" y="133.29545454545453" type="curve" smooth="yes"/>
      <point x="498.95454545454544" y="117.8409090909091"/>
      <point x="473.20454545454544" y="64.54545454545455"/>
      <point x="458.54545454545456" y="34.54545454545455" type="curve"/>
      <point x="534.6818181818181" y="91.1590909090909" type="line"/>
      <point x="475.3636363636364" y="78.04545454545455"/>
      <point x="411.95454545454544" y="65.70454545454545"/>
      <point x="357.84090909090907" y="65.70454545454545" type="curve" smooth="yes"/>
      <point x="258.79545454545456" y="65.70454545454545"/>
      <point x="213.4090909090909" y="158.4090909090909"/>
      <point x="213.4090909090909" y="279.45454545454544" type="curve" smooth="yes"/>
      <point x="213.4090909090909" y="454.6363636363636"/>
      <point x="281.59090909090907" y="639.2954545454545"/>
      <point x="438.95454545454544" y="639.2954545454545" type="curve" smooth="yes"/>
      <point x="491.84090909090907" y="639.2954545454545"/>
      <point x="548.1590909090909" y="625.8409090909091"/>
      <point x="602.5909090909091" y="614.5" type="curve"/>
      <point x="542.6590909090909" y="675.0" type="line"/>
      <point x="547.4318181818181" y="642.4545454545455"/>
      <point x="555.9772727272727" y="590.25"/>
      <point x="554.8636363636364" y="577.5909090909091" type="curve" smooth="yes"/>
      <point x="548.75" y="521.8409090909091" type="line"/>
      <point x="617.2727272727273" y="517.8409090909091" type="line"/>
      <point x="653.4772727272727" y="686.0" type="line"/>
      <point x="592.7045454545455" y="702.0"/>
      <point x="532.2727272727273" y="720.0"/>
      <point x="449.6136363636364" y="720.0" type="curve" smooth="yes"/>
      <point x="196.6590909090909" y="720.0"/>
      <point x="60.45454545454545" y="531.6590909090909"/>
      <point x="60.45454545454545" y="285.4318181818182" type="curve" smooth="yes"/>
      <point x="60.45454545454545" y="106.77272727272727"/>
      <point x="159.11363636363637" y="-15.0"/>
    </contour>
  </outline>
</glyph>
<glyph name="D" format="2">
  <advance width="735.375"/>
  <unicode hex="0044"/>
  <anchor x="297.65909090909093" y="0.0" name="bottom"/>
  <anchor x="216.9318181818182" y="353.0" name="center"/>
  <anchor x="403.5" y="720.0" name="top"/>
  <outline>
    <contour>
      <point x="9.886363636363637" y="-5.0" type="line"/>
      <point x="51.20454545454545" y="-3.0"/>
      <point x="126.86363636363636" y="0.0"/>
      <point x="154.52272727272728" y="0.0" type="curve" smooth="yes"/>
      <point x="212.27272727272728" y="0.0"/>
      <point x="252.20454545454547" y="-5.0"/>
      <point x="309.29545454545456" y="-5.0" type="curve" smooth="yes"/>
      <point x="560.3636363636364" y="-5.0"/>
      <point x="701.0454545454545" y="174.54545454545453"/>
      <point x="701.0454545454545" y="416.22727272727275" type="curve" smooth="yes"/>
      <point x="701.0454545454545" y="590.6818181818181"/>
      <point x="597.3636363636364" y="710.0"/>
      <point x="403.04545454545456" y="710.0" type="curve" smooth="yes"/>
      <point x="360.3863636363636" y="710.0"/>
      <point x="277.8636363636364" y="705.0"/>
      <point x="233.54545454545453" y="705.0" type="curve" smooth="yes"/>
      <point x="210.75" y="705.0"/>
      <point x="152.0909090909091" y="708.0"/>
      <point x="115.0" y="710.0" type="curve"/>
      <point x="100.22727272727273" y="642.0454545454545" type="line"/>
      <point x="218.86363636363637" y="620.5" type="line"/>
      <point x="168.9090909090909" y="682.9772727272727" type="line"/>
      <point x="166.25" y="641.7272727272727"/>
      <point x="163.5909090909091" y="562.6363636363636"/>
      <point x="158.9318181818182" y="531.2272727272727" type="curve" smooth="yes"/>
      <point x="103.79545454545455" y="153.61363636363637" type="line" smooth="yes"/>
      <point x="99.79545454545455" y="126.61363636363636"/>
      <point x="82.9090909090909" y="67.0909090909091"/>
      <point x="73.25" y="35.77272727272727" type="curve"/>
      <point x="136.52272727272728" y="81.18181818181819" type="line"/>
      <point x="13.65909090909091" y="58.18181818181818" type="line"/>
    </contour>
    <contour>
      <point x="229.0" y="52.04545454545455" type="line"/>
      <point x="228.88636363636363" y="77.45454545454545"/>
      <point x="235.0" y="135.20454545454547"/>
      <point x="241.77272727272728" y="183.61363636363637" type="curve" smooth="yes"/>
      <point x="293.1136363636364" y="540.6590909090909" type="line" smooth="yes"/>
      <point x="297.22727272727275" y="567.9090909090909"/>
      <point x="314.3409090909091" y="636.25"/>
      <point x="324.54545454545456" y="678.8409090909091" type="curve"/>
      <point x="262.75" y="631.1590909090909" type="line"/>
      <point x="301.0" y="633.3863636363636"/>
      <point x="350.1363636363636" y="635.1590909090909"/>
      <point x="389.20454545454544" y="635.1590909090909" type="curve" smooth="yes"/>
      <point x="510.47727272727275" y="635.1590909090909"/>
      <point x="558.2954545454545" y="536.9090909090909"/>
      <point x="558.2954545454545" y="418.97727272727275" type="curve" smooth="yes"/>
      <point x="558.2954545454545" y="251.36363636363637"/>
      <point x="496.77272727272725" y="69.72727272727272"/>
      <point x="307.77272727272725" y="69.72727272727272" type="curve" smooth="yes"/>
      <point x="278.6363636363636" y="69.72727272727272"/>
      <point x="206.5909090909091" y="73.61363636363636"/>
      <point x="184.27272727272728" y="75.5" type="curve"/>
    </contour>
  </outline>
</glyph>
<glyph name="E" format="2">
  <advance width="604.375"/>
  <unicode hex="0045"/>
  <anchor x="267.8636363636364" y="0.0" name="bottom"/>
  <anchor x="489.15909090909093" y="0.0" name="ogonek"/>
  <anchor x="368.8636363636364" y="720.0" name="top"/>
  <anchor x="96.6590909090909" y="705.0" name="topleft"/>
  <outline>
    <contour>
      <point x="9.886363636363637" y="-5.0" type="line"/>
      <point x="63.63636363636364" y="-2.1136363636363638"/>
      <point x="125.18181818181819" y="0.0"/>
      <point x="154.52272727272728" y="0.0" type="curve" smooth="yes"/>
      <point x="373.3863636363636" y="0.0" type="line" smooth="yes"/>
      <point x="400.3863636363636" y="0.0"/>
      <point x="448.6136363636364" y="0.0"/>
      <point x="489.15909090909093" y="0.0" type="curve"/>
      <point x="504.3863636363636" y="14.0" type="line"/>
      <point x="544.0454545454545" y="181.61363636363637" type="line"/>
      <point x="480.52272727272725" y="186.61363636363637" type="line"/>
      <point x="476.40909090909093" y="170.61363636363637"/>
      <point x="465.1818181818182" y="138.1590909090909"/>
      <point x="459.84090909090907" y="126.5909090909091" type="curve" smooth="yes"/>
      <point x="453.84090909090907" y="112.5909090909091"/>
      <point x="431.1818181818182" y="76.95454545454545"/>
      <point x="402.0" y="44.0" type="curve"/>
      <point x="456.9318181818182" y="90.04545454545455" type="line"/>
      <point x="439.70454545454544" y="86.04545454545455"/>
      <point x="398.25" y="77.1590909090909"/>
      <point x="355.9318181818182" y="77.1590909090909" type="curve" smooth="yes"/>
      <point x="177.5" y="77.1590909090909" type="line"/>
      <point x="229.0" y="45.70454545454545" type="line"/>
      <point x="229.0" y="62.40909090909091"/>
      <point x="235.0" y="137.4318181818182"/>
      <point x="241.77272727272728" y="183.61363636363637" type="curve" smooth="yes"/>
      <point x="270.0" y="376.65909090909093" type="line"/>
      <point x="208.8409090909091" y="324.04545454545456" type="line"/>
      <point x="331.52272727272725" y="324.04545454545456" type="line" smooth="yes"/>
      <point x="350.29545454545456" y="324.04545454545456"/>
      <point x="410.84090909090907" y="317.27272727272725"/>
      <point x="450.5" y="312.3863636363636" type="curve"/>
      <point x="397.22727272727275" y="371.54545454545456" type="line"/>
      <point x="395.77272727272725" y="255.36363636363637" type="line"/>
      <point x="454.29545454545456" y="261.3636363636364" type="line"/>
      <point x="461.1818181818182" y="329.65909090909093"/>
      <point x="470.40909090909093" y="387.45454545454544"/>
      <point x="483.40909090909093" y="465.77272727272725" type="curve"/>
      <point x="427.8863636363636" y="470.77272727272725" type="line"/>
      <point x="393.22727272727275" y="351.04545454545456" type="line"/>
      <point x="461.27272727272725" y="410.09090909090907" type="line"/>
      <point x="416.20454545454544" y="402.65909090909093"/>
      <point x="372.1818181818182" y="396.65909090909093"/>
      <point x="361.1818181818182" y="396.65909090909093" type="curve" smooth="yes"/>
      <point x="218.61363636363637" y="396.65909090909093" type="line"/>
      <point x="264.45454545454544" y="344.04545454545456" type="line"/>
      <point x="294.0" y="540.6590909090909" type="line" smooth="yes"/>
      <point x="298.1136363636364" y="569.4545454545455"/>
      <point x="316.3409090909091" y="643.7045454545455"/>
      <point x="321.22727272727275" y="665.25" type="curve"/>
      <point x="259.1818181818182" y="632.3863636363636" type="line"/>
      <point x="423.72727272727275" y="632.3863636363636" type="line" smooth="yes"/>
      <point x="452.79545454545456" y="632.3863636363636"/>
      <point x="516.7045454545455" y="627.3863636363636"/>
      <point x="550.6590909090909" y="625.3863636363636" type="curve"/>
      <point x="483.72727272727275" y="678.6590909090909" type="line"/>
      <point x="494.29545454545456" y="652.2272727272727"/>
      <point x="508.6363636363636" y="603.6136363636364"/>
      <point x="508.75" y="593.3863636363636" type="curve" smooth="yes"/>
      <point x="508.8636363636364" y="579.1818181818181"/>
      <point x="509.8636363636364" y="558.9318181818181"/>
      <point x="509.97727272727275" y="542.9318181818181" type="curve"/>
      <point x="575.7272727272727" y="547.9318181818181" type="line"/>
      <point x="591.3863636363636" y="692.0" type="line"/>
      <point x="575.3863636363636" y="710.0" type="line"/>
      <point x="537.5" y="708.0"/>
      <point x="489.1363636363636" y="705.0"/>
      <point x="463.3863636363636" y="705.0" type="curve" smooth="yes"/>
      <point x="233.54545454545453" y="705.0" type="line" smooth="yes"/>
      <point x="204.13636363636363" y="705.0"/>
      <point x="154.77272727272728" y="708.0"/>
      <point x="115.0" y="710.0" type="curve"/>
      <point x="100.22727272727273" y="642.0454545454545" type="line"/>
      <point x="218.86363636363637" y="620.5" type="line"/>
      <point x="167.13636363636363" y="658.0227272727273" type="line"/>
      <point x="167.13636363636363" y="645.9090909090909"/>
      <point x="163.5909090909091" y="563.5227272727273"/>
      <point x="158.9318181818182" y="531.2272727272727" type="curve" smooth="yes"/>
      <point x="103.79545454545455" y="153.61363636363637" type="line" smooth="yes"/>
      <point x="99.9090909090909" y="127.52272727272728"/>
      <point x="80.79545454545455" y="60.18181818181818"/>
      <point x="72.13636363636364" y="37.18181818181818" type="curve"/>
      <point x="136.52272727272728" y="81.18181818181819" type="line"/>
      <point x="13.65909090909091" y="58.18181818181818" type="line"/>
    </contour>
  </outline>
</glyph>
<glyph name="F" format="2">
  <advance width="576.625"/>
  <unicode hex="0046"/>
  <anchor x="249.86363636363637" y="0.0" name="bottom"/>
  <anchor x="350.8636363636364" y="720.0" name="top"/>
  <outline>
    <contour>
      <point x="9.886363636363637" y="-5.0" type="line"/>
      <point x="58.43181818181818" y="-3.0"/>
      <point x="125.97727272727273" y="0.0"/>
      <point x="154.52272727272728" y="0.0" type="curve" smooth="yes"/>
      <point x="290.95454545454544" y="0.0" type="line"/>
      <point x="305.84090909090907" y="64.52272727272728" type="line"/>
      <point x="179.27272727272728" y="77.18181818181819" type="line"/>
      <point x="232.6590909090909" y="31.0" type="line"/>
      <point x="232.6590909090909" y="61.97727272727273"/>
      <point x="233.22727272727272" y="126.9090909090909"/>
      <point x="241.77272727272728" y="183.61363636363637" type="curve" smooth="yes"/>
      <point x="270.0" y="376.65909090909093" type="line"/>
      <point x="206.72727272727272" y="314.04545454545456" type="line"/>
      <point x="329.40909090909093" y="314.04545454545456" type="line" smooth="yes"/>
      <point x="348.95454545454544" y="314.04545454545456"/>
      <point x="408.72727272727275" y="307.27272727272725"/>
      <point x="448.3863636363636" y="302.3863636363636" type="curve"/>
      <point x="396.0" y="361.54545454545456" type="line"/>
      <point x="393.65909090909093" y="245.36363636363637" type="line"/>
      <point x="452.1818181818182" y="251.36363636363637" type="line"/>
      <point x="458.95454545454544" y="317.0"/>
      <point x="469.1818181818182" y="382.77272727272725"/>
      <point x="482.1818181818182" y="455.77272727272725" type="curve"/>
      <point x="426.65909090909093" y="460.77272727272725" type="line"/>
      <point x="392.0" y="341.04545454545456" type="line"/>
      <point x="460.04545454545456" y="400.09090909090907" type="line"/>
      <point x="424.6136363636364" y="394.4318181818182"/>
      <point x="371.72727272727275" y="386.65909090909093"/>
      <point x="358.95454545454544" y="386.65909090909093" type="curve" smooth="yes"/>
      <point x="217.38636363636363" y="386.65909090909093" type="line"/>
      <point x="264.45454545454544" y="344.04545454545456" type="line"/>
      <point x="293.1136363636364" y="540.6590909090909" type="line" smooth="yes"/>
      <point x="297.22727272727275" y="570.3409090909091"/>
      <point x="316.3409090909091" y="643.7045454545455"/>
      <point x="321.22727272727275" y="665.25" type="curve"/>
      <point x="259.1818181818182" y="632.3863636363636" type="line"/>
      <point x="423.72727272727275" y="632.3863636363636" type="line" smooth="yes"/>
      <point x="452.79545454545456" y="632.3863636363636"/>
      <point x="516.7045454545455" y="627.3863636363636"/>
      <point x="550.6590909090909" y="625.3863636363636" type="curve"/>
      <point x="483.72727272727275" y="678.6590909090909" type="line"/>
      <point x="494.29545454545456" y="652.2272727272727"/>
      <point x="508.6363636363636" y="603.6136363636364"/>
      <point x="508.75" y="593.3863636363636" type="curve" smooth="yes"/>
      <point x="508.8636363636364" y="579.1818181818181"/>
      <point x="509.8636363636364" y="558.9318181818181"/>
      <point x="509.97727272727275" y="542.9318181818181" type="curve"/>
      <point x="575.7272727272727" y="547.9318181818181" type="line"/>
      <point x="591.3863636363636" y="692.0" type="line"/>
      <point x="575.3863636363636" y="710.0" type="line"/>
      <point x="537.5" y="708.0"/>
      <point x="489.1363636363636" y="705.0"/>
      <point x="463.3863636363636" y="705.0" type="curve" smooth="yes"/>
      <point x="233.54545454545453" y="705.0" type="line" smooth="yes"/>
      <point x="204.13636363636363" y="705.0"/>
      <point x="154.77272727272728" y="708.0"/>
      <point x="115.0" y="710.0" type="curve"/>
      <point x="100.22727272727273" y="642.0454545454545" type="line"/>
      <point x="218.86363636363637" y="620.5" type="line"/>
      <point x="167.13636363636363" y="658.0227272727273" type="line"/>
      <point x="167.13636363636363" y="645.9090909090909"/>
      <point x="163.5909090909091" y="563.5227272727273"/>
      <point x="158.9318181818182" y="531.2272727272727" type="curve" smooth="yes"/>
      <point x="103.79545454545455" y="153.61363636363637" type="line" smooth="yes"/>
      <point x="99.9090909090909" y="128.4090909090909"/>
      <point x="84.45454545454545" y="72.5"/>
      <point x="73.13636363636364" y="40.86363636363636" type="curve"/>
      <point x="136.52272727272728" y="81.18181818181819" type="line"/>
      <point x="13.65909090909091" y="58.18181818181818" type="line"/>
    </contour>
  </outline>
</glyph>
<glyph name="G" format="2">
  <advance width="702.5"/>
  <unicode hex="0047"/>
  <anchor x="379.3636363636364" y="0.0" name="bottom"/>
  <anchor x="530.5" y="181.0" name="center"/>
  <anchor x="457.29545454545456" y="720.0" name="top"/>
  <outline>
    <contour>
      <point x="364.95454545454544" y="-15.0" type="curve" smooth="yes"/>
      <point x="452.5" y="-15.0"/>
      <point x="526.3636363636364" y="2.1136363636363638"/>
      <point x="593.4772727272727" y="19.0" type="curve"/>
      <point x="618.0227272727273" y="186.1590909090909" type="line" smooth="yes"/>
      <point x="621.9090909090909" y="213.25"/>
      <point x="636.3636363636364" y="279.40909090909093"/>
      <point x="647.25" y="333.84090909090907" type="curve"/>
      <point x="626.1590909090909" y="356.15909090909093" type="line"/>
      <point x="589.8636363636364" y="354.27272727272725"/>
      <point x="541.1363636363636" y="353.15909090909093"/>
      <point x="526.25" y="353.15909090909093" type="curve" smooth="yes"/>
      <point x="418.25" y="353.15909090909093" type="line"/>
      <point x="401.70454545454544" y="268.90909090909093" type="line"/>
      <point x="557.0909090909091" y="256.1363636363636" type="line"/>
      <point x="502.70454545454544" y="314.40909090909093" type="line"/>
      <point x="505.47727272727275" y="243.77272727272728"/>
      <point x="504.70454545454544" y="208.77272727272728"/>
      <point x="503.59090909090907" y="196.0" type="curve" smooth="yes"/>
      <point x="478.3636363636364" y="26.34090909090909" type="line"/>
      <point x="518.5454545454545" y="85.8409090909091" type="line"/>
      <point x="476.97727272727275" y="76.27272727272728"/>
      <point x="421.5" y="65.70454545454545"/>
      <point x="373.6136363636364" y="65.70454545454545" type="curve" smooth="yes"/>
      <point x="262.45454545454544" y="65.70454545454545"/>
      <point x="213.1818181818182" y="161.29545454545453"/>
      <point x="213.1818181818182" y="284.34090909090907" type="curve" smooth="yes"/>
      <point x="213.1818181818182" y="462.95454545454544"/>
      <point x="287.1363636363636" y="639.2954545454545"/>
      <point x="454.5" y="639.2954545454545" type="curve" smooth="yes"/>
      <point x="503.5" y="639.2954545454545"/>
      <point x="560.2954545454545" y="628.6136363636364"/>
      <point x="611.2727272727273" y="611.7272727272727" type="curve"/>
      <point x="571.2045454545455" y="650.1590909090909" type="line"/>
      <point x="575.4318181818181" y="631.4772727272727"/>
      <point x="582.9772727272727" y="589.4772727272727"/>
      <point x="581.9772727272727" y="577.5909090909091" type="curve" smooth="yes"/>
      <point x="575.9772727272727" y="522.1818181818181" type="line"/>
      <point x="645.1590909090909" y="517.8409090909091" type="line"/>
      <point x="680.5909090909091" y="686.0" type="line"/>
      <point x="619.4772727272727" y="702.0"/>
      <point x="547.8409090909091" y="720.0"/>
      <point x="464.6136363636364" y="720.0" type="curve" smooth="yes"/>
      <point x="201.6590909090909" y="720.0"/>
      <point x="60.34090909090909" y="533.6590909090909"/>
      <point x="60.34090909090909" y="288.4318181818182" type="curve" smooth="yes"/>
      <point x="60.34090909090909" y="107.77272727272727"/>
      <point x="164.0" y="-15.0"/>
    </contour>
  </outline>
</glyph>
<glyph name="H" format="2">
  <advance width="791.125"/>
  <unicode hex="0048"/>
  <anchor x="358.6136363636364" y="0.0" name="bottom"/>
  <anchor x="430.72727272727275" y="520.0" name="center"/>
  <anchor x="459.6136363636364" y="720.0" name="top"/>
  <anchor x="96.6590909090909" y="705.0" name="topleft"/>
  <outline>
    <contour>
      <point x="425.8636363636364" y="-5.0" type="line"/>
      <point x="474.40909090909093" y="-3.0"/>
      <point x="542.8409090909091" y="0.0"/>
      <point x="571.3863636363636" y="0.0" type="curve" smooth="yes"/>
      <point x="704.0227272727273" y="0.0" type="line"/>
      <point x="718.9090909090909" y="64.52272727272728" type="line"/>
      <point x="595.25" y="77.18181818181819" type="line"/>
      <point x="649.6363636363636" y="37.63636363636364" type="line"/>
      <point x="648.5227272727273" y="61.65909090909091"/>
      <point x="650.0909090909091" y="131.77272727272728"/>
      <point x="657.75" y="183.61363636363637" type="curve" smooth="yes"/>
      <point x="709.0909090909091" y="540.6590909090909" type="line" smooth="yes"/>
      <point x="714.2045454545455" y="575.4545454545455"/>
      <point x="734.8636363636364" y="646.25"/>
      <point x="740.9772727272727" y="667.7045454545455" type="curve"/>
      <point x="677.5909090909091" y="625.2727272727273" type="line"/>
      <point x="799.2272727272727" y="637.0454545454545" type="line"/>
      <point x="805.1136363636364" y="710.0" type="line"/>
      <point x="753.25" y="708.0"/>
      <point x="692.2727272727273" y="705.0"/>
      <point x="649.5227272727273" y="705.0" type="curve" smooth="yes"/>
      <point x="630.6363636363636" y="705.0"/>
      <point x="570.75" y="708.0"/>
      <point x="531.8636363636364" y="710.0" type="curve"/>
      <point x="516.2045454545455" y="642.0454545454545" type="line"/>
      <point x="634.8409090909091" y="620.5" type="line"/>
      <point x="581.3409090909091" y="667.7045454545455" type="line"/>
      <point x="581.4545454545455" y="642.0454545454545"/>
      <point x="582.2272727272727" y="576.5909090909091"/>
      <point x="575.7954545454545" y="531.2272727272727" type="curve" smooth="yes"/>
      <point x="519.7727272727273" y="153.61363636363637" type="line" smooth="yes"/>
      <point x="516.7727272727273" y="131.8409090909091"/>
      <point x="498.65909090909093" y="68.5"/>
      <point x="491.65909090909093" y="44.15909090909091" type="curve"/>
      <point x="553.3863636363636" y="81.18181818181819" type="line"/>
      <point x="430.52272727272725" y="58.18181818181818" type="line"/>
    </contour>
    <contour>
      <point x="9.886363636363637" y="-5.0" type="line"/>
      <point x="58.43181818181818" y="-3.0"/>
      <point x="125.97727272727273" y="0.0"/>
      <point x="154.52272727272728" y="0.0" type="curve" smooth="yes"/>
      <point x="288.04545454545456" y="0.0" type="line"/>
      <point x="302.04545454545456" y="64.52272727272728" type="line"/>
      <point x="179.27272727272728" y="77.18181818181819" type="line"/>
      <point x="232.77272727272728" y="37.63636363636364" type="line"/>
      <point x="232.54545454545456" y="59.0"/>
      <point x="234.11363636363637" y="130.0"/>
      <point x="241.77272727272728" y="183.61363636363637" type="curve" smooth="yes"/>
      <point x="293.1136363636364" y="540.6590909090909" type="line" smooth="yes"/>
      <point x="298.22727272727275" y="574.6818181818181"/>
      <point x="317.1136363636364" y="641.0454545454545"/>
      <point x="324.1136363636364" y="667.7045454545455" type="curve"/>
      <point x="260.72727272727275" y="625.2727272727273" type="line"/>
      <point x="383.25" y="637.0454545454545" type="line"/>
      <point x="389.1363636363636" y="710.0" type="line"/>
      <point x="337.27272727272725" y="708.0"/>
      <point x="275.40909090909093" y="705.0"/>
      <point x="233.54545454545453" y="705.0" type="curve" smooth="yes"/>
      <point x="214.6590909090909" y="705.0"/>
      <point x="154.77272727272728" y="708.0"/>
      <point x="115.0" y="710.0" type="curve"/>
      <point x="100.22727272727273" y="642.0454545454545" type="line"/>
      <point x="218.86363636363637" y="620.5" type="line"/>
      <point x="165.36363636363637" y="667.7045454545455" type="line"/>
      <point x="165.47727272727272" y="642.9318181818181"/>
      <point x="165.36363636363637" y="574.9318181818181"/>
      <point x="158.9318181818182" y="531.2272727272727" type="curve" smooth="yes"/>
      <point x="103.79545454545455" y="153.61363636363637" type="line" smooth="yes"/>
      <point x="99.9090909090909" y="128.4090909090909"/>
      <point x="82.68181818181819" y="70.27272727272728"/>
      <point x="75.68181818181819" y="44.15909090909091" type="curve"/>
      <point x="136.52272727272728" y="81.18181818181819" type="line"/>
      <point x="13.65909090909091" y="58.18181818181818" type="line"/>
    </contour>
    <contour>
      <point x="235.22727272727272" y="310.3863636363636" type="line"/>
      <point x="568.3409090909091" y="310.3863636363636" type="line"/>
      <point x="579.8863636363636" y="389.97727272727275" type="line"/>
      <point x="245.88636363636363" y="384.97727272727275" type="line"/>
    </contour>
  </outline>
</glyph>
<glyph name="I" format="2">
  <advance width="374.25"/>
  <unicode hex="0049"/>
  <anchor x="151.1818181818182" y="0.0" name="bottom"/>
  <anchor x="291.04545454545456" y="10.0" name="ogonek"/>
  <anchor x="252.1818181818182" y="720.0" name="top"/>
  <anchor x="96.6590909090909" y="705.0" name="topleft"/>
  <outline>
    <contour>
      <point x="9.886363636363637" y="-5.0" type="line"/>
      <point x="58.43181818181818" y="-3.0"/>
      <point x="125.97727272727273" y="0.0"/>
      <point x="154.52272727272728" y="0.0" type="curve" smooth="yes"/>
      <point x="288.04545454545456" y="0.0" type="line"/>
      <point x="302.04545454545456" y="64.52272727272728" type="line"/>
      <point x="179.27272727272728" y="77.18181818181819" type="line"/>
      <point x="232.77272727272728" y="37.63636363636364" type="line"/>
      <point x="232.54545454545456" y="59.0"/>
      <point x="234.11363636363637" y="130.0"/>
      <point x="241.77272727272728" y="183.61363636363637" type="curve" smooth="yes"/>
      <point x="293.1136363636364" y="540.6590909090909" type="line" smooth="yes"/>
      <point x="298.22727272727275" y="574.6818181818181"/>
      <point x="317.1136363636364" y="641.0454545454545"/>
      <point x="324.1136363636364" y="667.7045454545455" type="curve"/>
      <point x="260.72727272727275" y="625.2727272727273" type="line"/>
      <point x="383.25" y="637.0454545454545" type="line"/>
      <point x="389.1363636363636" y="710.0" type="line"/>
      <point x="337.27272727272725" y="708.0"/>
      <point x="275.40909090909093" y="705.0"/>
      <point x="233.54545454545453" y="705.0" type="curve" smooth="yes"/>
      <point x="214.6590909090909" y="705.0"/>
      <point x="154.77272727272728" y="708.0"/>
      <point x="115.0" y="710.0" type="curve"/>
      <point x="100.22727272727273" y="642.0454545454545" type="line"/>
      <point x="218.86363636363637" y="620.5" type="line"/>
      <point x="165.36363636363637" y="667.7045454545455" type="line"/>
      <point x="165.47727272727272" y="642.9318181818181"/>
      <point x="165.36363636363637" y="574.9318181818181"/>
      <point x="158.9318181818182" y="531.2272727272727" type="curve" smooth="yes"/>
      <point x="103.79545454545455" y="153.61363636363637" type="line" smooth="yes"/>
      <point x="99.9090909090909" y="128.4090909090909"/>
      <point x="82.68181818181819" y="70.27272727272728"/>
      <point x="75.68181818181819" y="44.15909090909091" type="curve"/>
      <point x="136.52272727272728" y="81.18181818181819" type="line"/>
      <point x="13.65909090909091" y="58.18181818181818" type="line"/>
    </contour>
  </outline>
</glyph>
<glyph name="J" format="2">
  <advance width="348.625"/>
  <unicode hex="004A"/>
  <anchor x="139.61363636363637" y="0.0" name="bottom"/>
  <anchor x="225.61363636363637" y="705.0" name="top"/>
  <outline>
    <contour>
      <point x="8.409090909090908" y="-200.0" type="line"/>
      <point x="99.29545454545455" y="-122.18181818181819"/>
      <point x="193.54545454545456" y="-27.363636363636363"/>
      <point x="198.4318181818182" y="3.0681818181818183" type="curve" smooth="yes"/>
      <point x="276.6590909090909" y="540.6590909090909" type="line" smooth="yes"/>
      <point x="281.77272727272725" y="574.6818181818181"/>
      <point x="300.6590909090909" y="641.0454545454545"/>
      <point x="307.6590909090909" y="667.7045454545455" type="curve"/>
      <point x="244.27272727272728" y="625.2727272727273" type="line"/>
      <point x="366.79545454545456" y="637.0454545454545" type="line"/>
      <point x="372.6818181818182" y="710.0" type="line"/>
      <point x="320.70454545454544" y="708.0"/>
      <point x="258.84090909090907" y="705.0"/>
      <point x="216.97727272727272" y="705.0" type="curve" smooth="yes"/>
      <point x="198.0909090909091" y="705.0"/>
      <point x="138.20454545454547" y="708.0"/>
      <point x="98.54545454545455" y="710.0" type="curve"/>
      <point x="83.77272727272727" y="642.0454545454545" type="line"/>
      <point x="202.4090909090909" y="620.5" type="line"/>
      <point x="148.9090909090909" y="667.7045454545455" type="line"/>
      <point x="149.02272727272728" y="647.25"/>
      <point x="149.79545454545453" y="577.4772727272727"/>
      <point x="142.36363636363637" y="531.2272727272727" type="curve" smooth="yes"/>
      <point x="66.68181818181819" y="11.0" type="line" smooth="yes"/>
      <point x="63.68181818181818" y="-9.0"/>
      <point x="-34.88636363636363" y="-171.9090909090909"/>
      <point x="-34.88636363636363" y="-171.9090909090909" type="curve"/>
    </contour>
  </outline>
</glyph>
<glyph name="K" format="2">
  <advance width="743.625"/>
  <unicode hex="004B"/>
  <anchor x="335.59090909090907" y="0.0" name="bottom"/>
  <anchor x="436.59090909090907" y="720.0" name="top"/>
  <outline>
    <contour>
      <point x="391.1363636363636" y="-5.0" type="line"/>
      <point x="439.6818181818182" y="-3.0"/>
      <point x="507.22727272727275" y="0.0"/>
      <point x="535.7727272727273" y="0.0" type="curve" smooth="yes"/>
      <point x="671.6363636363636" y="0.0" type="line"/>
      <point x="686.5227272727273" y="65.4090909090909" type="line"/>
      <point x="581.8636363636364" y="78.95454545454545" type="line"/>
      <point x="653.6818181818182" y="53.20454545454545" type="line"/>
      <point x="642.1136363636364" y="62.11363636363637"/>
      <point x="599.4318181818182" y="108.11363636363636"/>
      <point x="584.5454545454545" y="129.0" type="curve" smooth="yes"/>
      <point x="391.02272727272725" y="411.04545454545456" type="line"/>
      <point x="383.45454545454544" y="329.04545454545456" type="line"/>
      <point x="572.8863636363636" y="546.0" type="line" smooth="yes"/>
      <point x="591.6590909090909" y="567.5454545454545"/>
      <point x="655.9090909090909" y="625.9090909090909"/>
      <point x="686.6818181818182" y="649.6818181818181" type="curve"/>
      <point x="610.5454545454545" y="624.3863636363636" type="line"/>
      <point x="725.75" y="637.0454545454545" type="line"/>
      <point x="731.5227272727273" y="710.0" type="line"/>
      <point x="686.8636363636364" y="708.0"/>
      <point x="633.2045454545455" y="705.0"/>
      <point x="598.6590909090909" y="705.0" type="curve" smooth="yes"/>
      <point x="578.6590909090909" y="705.0"/>
      <point x="522.7954545454545" y="708.0"/>
      <point x="485.25" y="710.0" type="curve"/>
      <point x="469.59090909090907" y="642.0454545454545" type="line"/>
      <point x="558.25" y="623.0454545454545" type="line"/>
      <point x="526.6363636363636" y="664.4772727272727" type="line"/>
      <point x="499.4318181818182" y="621.8409090909091"/>
      <point x="481.15909090909093" y="595.2045454545455"/>
      <point x="466.5" y="577.0" type="curve" smooth="yes"/>
      <point x="272.45454545454544" y="353.0" type="line"/>
      <point x="393.04545454545456" y="164.0" type="line" smooth="yes"/>
      <point x="410.15909090909093" y="137.11363636363637"/>
      <point x="443.27272727272725" y="61.77272727272727"/>
      <point x="446.6136363636364" y="53.97727272727273" type="curve"/>
      <point x="493.22727272727275" y="79.29545454545455" type="line"/>
      <point x="394.90909090909093" y="58.18181818181818" type="line"/>
    </contour>
    <contour>
      <point x="9.886363636363637" y="-5.0" type="line"/>
      <point x="58.43181818181818" y="-3.0"/>
      <point x="125.97727272727273" y="0.0"/>
      <point x="154.52272727272728" y="0.0" type="curve" smooth="yes"/>
      <point x="288.04545454545456" y="0.0" type="line"/>
      <point x="302.04545454545456" y="64.52272727272728" type="line"/>
      <point x="179.27272727272728" y="77.18181818181819" type="line"/>
      <point x="232.77272727272728" y="37.63636363636364" type="line"/>
      <point x="232.54545454545456" y="59.0"/>
      <point x="234.11363636363637" y="130.0"/>
      <point x="241.77272727272728" y="183.61363636363637" type="curve" smooth="yes"/>
      <point x="293.1136363636364" y="540.6590909090909" type="line" smooth="yes"/>
      <point x="298.22727272727275" y="574.6818181818181"/>
      <point x="317.1136363636364" y="641.0454545454545"/>
      <point x="324.1136363636364" y="667.7045454545455" type="curve"/>
      <point x="260.72727272727275" y="625.2727272727273" type="line"/>
      <point x="383.25" y="637.0454545454545" type="line"/>
      <point x="389.1363636363636" y="710.0" type="line"/>
      <point x="337.27272727272725" y="708.0"/>
      <point x="275.40909090909093" y="705.0"/>
      <point x="233.54545454545453" y="705.0" type="curve" smooth="yes"/>
      <point x="214.6590909090909" y="705.0"/>
      <point x="154.77272727272728" y="708.0"/>
      <point x="115.0" y="710.0" type="curve"/>
      <point x="100.22727272727273" y="642.0454545454545" type="line"/>
      <point x="218.86363636363637" y="620.5" type="line"/>
      <point x="165.36363636363637" y="667.7045454545455" type="line"/>
      <point x="165.47727272727272" y="642.9318181818181"/>
      <point x="165.36363636363637" y="574.9318181818181"/>
      <point x="158.9318181818182" y="531.2272727272727" type="curve" smooth="yes"/>
      <point x="103.79545454545455" y="153.61363636363637" type="line" smooth="yes"/>
      <point x="99.9090909090909" y="128.4090909090909"/>
      <point x="82.68181818181819" y="70.27272727272728"/>
      <point x="75.68181818181819" y="44.15909090909091" type="curve"/>
      <point x="136.52272727272728" y="81.18181818181819" type="line"/>
      <point x="13.65909090909091" y="58.18181818181818" type="line"/>
    </contour>
  </outline>
</glyph>
<glyph name="L" format="2">
  <advance width="564.25"/>
  <unicode hex="004C"/>
  <anchor x="271.70454545454544" y="0.0" name="bottom"/>
  <anchor x="204.8409090909091" y="355.0" name="center"/>
  <anchor x="548.7954545454545" y="423.0" name="centerright"/>
  <anchor x="293.65909090909093" y="720.0" name="top"/>
  <anchor x="490.70454545454544" y="494.0" name="topright"/>
  <outline>
    <contour>
      <point x="9.886363636363637" y="-5.0" type="line"/>
      <point x="58.43181818181818" y="-3.0"/>
      <point x="101.75" y="0.0"/>
      <point x="130.29545454545453" y="0.0" type="curve" smooth="yes"/>
      <point x="349.15909090909093" y="0.0" type="line" smooth="yes"/>
      <point x="374.3863636363636" y="0.0"/>
      <point x="422.15909090909093" y="-2.0"/>
      <point x="459.15909090909093" y="-4.0" type="curve"/>
      <point x="480.15909090909093" y="14.0" type="line"/>
      <point x="518.9318181818181" y="181.61363636363637" type="line"/>
      <point x="456.29545454545456" y="186.61363636363637" type="line"/>
      <point x="448.6363636363636" y="160.97727272727272"/>
      <point x="442.6136363636364" y="145.13636363636363"/>
      <point x="434.72727272727275" y="125.70454545454545" type="curve" smooth="yes"/>
      <point x="426.95454545454544" y="107.38636363636364"/>
      <point x="406.84090909090907" y="76.95454545454545"/>
      <point x="377.77272727272725" y="44.0" type="curve"/>
      <point x="432.59090909090907" y="90.04545454545455" type="line"/>
      <point x="415.47727272727275" y="86.04545454545455"/>
      <point x="373.1363636363636" y="77.1590909090909"/>
      <point x="331.59090909090907" y="77.1590909090909" type="curve" smooth="yes"/>
      <point x="161.77272727272728" y="77.1590909090909" type="line"/>
      <point x="232.77272727272728" y="37.63636363636364" type="line"/>
      <point x="232.54545454545456" y="59.0"/>
      <point x="234.11363636363637" y="130.0"/>
      <point x="241.77272727272728" y="183.61363636363637" type="curve" smooth="yes"/>
      <point x="293.1136363636364" y="540.6590909090909" type="line" smooth="yes"/>
      <point x="298.22727272727275" y="574.6818181818181"/>
      <point x="317.1136363636364" y="641.0454545454545"/>
      <point x="324.1136363636364" y="667.7045454545455" type="curve"/>
      <point x="260.72727272727275" y="625.2727272727273" type="line"/>
      <point x="383.25" y="637.0454545454545" type="line"/>
      <point x="389.1363636363636" y="710.0" type="line"/>
      <point x="337.27272727272725" y="708.0"/>
      <point x="275.40909090909093" y="705.0"/>
      <point x="233.54545454545453" y="705.0" type="curve" smooth="yes"/>
      <point x="214.6590909090909" y="705.0"/>
      <point x="154.77272727272728" y="708.0"/>
      <point x="115.0" y="710.0" type="curve"/>
      <point x="100.22727272727273" y="642.0454545454545" type="line"/>
      <point x="218.86363636363637" y="620.5" type="line"/>
      <point x="165.36363636363637" y="667.7045454545455" type="line"/>
      <point x="165.47727272727272" y="642.9318181818181"/>
      <point x="165.47727272727272" y="574.9318181818181"/>
      <point x="158.9318181818182" y="531.2272727272727" type="curve" smooth="yes"/>
      <point x="103.79545454545455" y="153.61363636363637" type="line" smooth="yes"/>
      <point x="99.9090909090909" y="128.4090909090909"/>
      <point x="82.68181818181819" y="70.27272727272728"/>
      <point x="75.68181818181819" y="44.15909090909091" type="curve"/>
      <point x="136.52272727272728" y="81.18181818181819" type="line"/>
      <point x="13.65909090909091" y="58.18181818181818" type="line"/>
    </contour>
  </outline>
</glyph>
<glyph name="M" format="2">
  <advance width="933.125"/>
  <unicode hex="004D"/>
  <anchor x="437.80018181818184" y="0.0" name="bottom"/>
  <anchor x="524.2992045454546" y="705.0" name="top"/>
  <outline>
    <contour>
      <point x="4.886363636363637" y="-5.0" type="line"/>
      <point x="46.34090909090909" y="-3.0"/>
      <point x="106.13636363636364" y="0.0"/>
      <point x="133.79545454545453" y="0.0" type="curve" smooth="yes"/>
      <point x="244.52272727272728" y="0.0" type="line"/>
      <point x="258.52272727272725" y="64.52272727272728" type="line"/>
      <point x="137.0909090909091" y="77.18181818181819" type="line"/>
      <point x="192.04545454545456" y="37.63636363636364" type="line"/>
      <point x="191.9318181818182" y="61.65909090909091"/>
      <point x="194.61363636363637" y="134.9090909090909"/>
      <point x="202.27272727272728" y="184.5" type="curve" smooth="yes"/>
      <point x="283.52272727272725" y="593.75" type="line"/>
      <point x="263.20454545454544" y="593.75" type="line"/>
      <point x="378.9318181818182" y="0.0" type="line"/>
      <point x="452.59090909090907" y="0.0" type="line"/>
      <point x="743.6590909090909" y="589.8636363636364" type="line"/>
      <point x="725.3409090909091" y="594.6363636363636" type="line"/>
      <point x="681.7954545454545" y="154.5" type="line" smooth="yes"/>
      <point x="679.7954545454545" y="131.61363636363637"/>
      <point x="662.7954545454545" y="69.38636363636364"/>
      <point x="655.7954545454545" y="44.15909090909091" type="curve"/>
      <point x="710.5454545454545" y="81.18181818181819" type="line"/>
      <point x="593.7727272727273" y="58.18181818181818" type="line"/>
      <point x="590.0" y="-5.0" type="line"/>
      <point x="637.6590909090909" y="-3.0"/>
      <point x="700.8863636363636" y="0.0"/>
      <point x="728.5454545454545" y="0.0" type="curve" smooth="yes"/>
      <point x="861.1818181818181" y="0.0" type="line"/>
      <point x="875.9545454545455" y="64.52272727272728" type="line"/>
      <point x="753.2954545454545" y="77.18181818181819" type="line"/>
      <point x="811.4772727272727" y="37.63636363636364" type="line"/>
      <point x="809.4772727272727" y="61.65909090909091"/>
      <point x="804.3636363636364" y="139.52272727272728"/>
      <point x="807.3636363636364" y="183.5" type="curve" smooth="yes"/>
      <point x="833.4772727272727" y="540.6590909090909" type="line" smooth="yes"/>
      <point x="836.4772727272727" y="575.7954545454545"/>
      <point x="852.5909090909091" y="645.2727272727273"/>
      <point x="861.0227272727273" y="673.1363636363636" type="curve"/>
      <point x="795.9772727272727" y="625.2727272727273" type="line"/>
      <point x="917.6136363636364" y="637.0454545454545" type="line"/>
      <point x="924.3863636363636" y="710.0" type="line"/>
      <point x="870.8409090909091" y="708.0"/>
      <point x="799.2954545454545" y="705.0"/>
      <point x="765.75" y="705.0" type="curve" smooth="yes"/>
      <point x="711.5" y="705.0" type="line"/>
      <point x="689.5" y="685.0" type="line"/>
      <point x="626.1363636363636" y="544.8636363636364" type="line"/>
      <point x="437.65909090909093" y="156.8409090909091" type="line"/>
      <point x="470.40909090909093" y="152.1818181818182" type="line"/>
      <point x="401.25" y="532.5454545454545" type="line"/>
      <point x="378.45454545454544" y="685.0" type="line"/>
      <point x="363.45454545454544" y="705.0" type="line"/>
      <point x="256.02272727272725" y="705.0" type="line" smooth="yes"/>
      <point x="236.13636363636363" y="705.0"/>
      <point x="177.25" y="708.0"/>
      <point x="137.36363636363637" y="710.0" type="curve"/>
      <point x="122.5909090909091" y="642.0454545454545" type="line"/>
      <point x="240.3409090909091" y="620.5" type="line"/>
      <point x="187.1818181818182" y="671.7727272727273" type="line"/>
      <point x="187.1818181818182" y="654.2272727272727"/>
      <point x="190.9318181818182" y="581.9090909090909"/>
      <point x="179.8409090909091" y="531.2272727272727" type="curve" smooth="yes"/>
      <point x="101.36363636363636" y="154.5" type="line" smooth="yes"/>
      <point x="97.36363636363636" y="131.1818181818182"/>
      <point x="77.3409090909091" y="70.27272727272728"/>
      <point x="69.0" y="44.15909090909091" type="curve"/>
      <point x="131.52272727272728" y="81.18181818181819" type="line"/>
      <point x="8.65909090909091" y="58.18181818181818" type="line"/>
    </contour>
  </outline>
</glyph>
<glyph name="N" format="2">
  <advance width="786.875"/>
  <unicode hex="004E"/>
  <anchor x="355.1818181818182" y="0.0" name="bottom"/>
  <anchor x="456.1818181818182" y="720.0" name="top"/>
  <outline>
    <contour>
      <point x="9.886363636363637" y="-5.0" type="line"/>
      <point x="51.34090909090909" y="-3.0"/>
      <point x="109.9090909090909" y="0.0"/>
      <point x="138.3409090909091" y="0.0" type="curve" smooth="yes"/>
      <point x="257.9318181818182" y="0.0" type="line"/>
      <point x="272.70454545454544" y="64.52272727272728" type="line"/>
      <point x="151.38636363636363" y="77.18181818181819" type="line"/>
      <point x="205.11363636363637" y="37.63636363636364" type="line"/>
      <point x="205.22727272727272" y="74.29545454545455"/>
      <point x="209.45454545454544" y="143.97727272727272"/>
      <point x="215.22727272727272" y="183.61363636363637" type="curve" smooth="yes"/>
      <point x="266.59090909090907" y="539.5" type="line"/>
      <point x="234.1818181818182" y="533.7272727272727" type="line"/>
      <point x="520.4772727272727" y="0.0" type="line"/>
      <point x="633.0" y="0.0" type="line"/>
      <point x="712.1136363636364" y="540.6590909090909" type="line" smooth="yes"/>
      <point x="717.1136363636364" y="573.8863636363636"/>
      <point x="736.1363636363636" y="629.8409090909091"/>
      <point x="747.6818181818181" y="660.9090909090909" type="curve"/>
      <point x="682.5227272727273" y="625.2727272727273" type="line"/>
      <point x="805.0454545454545" y="637.0454545454545" type="line"/>
      <point x="810.9318181818181" y="710.0" type="line"/>
      <point x="771.7272727272727" y="708.0"/>
      <point x="697.7727272727273" y="705.0"/>
      <point x="665.8863636363636" y="705.0" type="curve" smooth="yes"/>
      <point x="651.6590909090909" y="705.0"/>
      <point x="594.7727272727273" y="708.0"/>
      <point x="559.6590909090909" y="710.0" type="curve"/>
      <point x="544.8863636363636" y="642.0454545454545" type="line"/>
      <point x="663.5227272727273" y="620.5" type="line"/>
      <point x="610.0227272727273" y="673.2272727272727" type="line"/>
      <point x="610.1363636363636" y="644.25"/>
      <point x="611.9090909090909" y="582.7954545454545"/>
      <point x="604.4772727272727" y="531.2272727272727" type="curve" smooth="yes"/>
      <point x="549.1136363636364" y="154.13636363636363" type="line"/>
      <point x="582.5227272727273" y="159.9090909090909" type="line"/>
      <point x="379.59090909090907" y="534.4318181818181" type="line"/>
      <point x="313.90909090909093" y="685.0" type="line"/>
      <point x="297.90909090909093" y="705.0" type="line"/>
      <point x="233.6590909090909" y="705.0" type="line" smooth="yes"/>
      <point x="214.6590909090909" y="705.0"/>
      <point x="154.0" y="708.0"/>
      <point x="115.0" y="710.0" type="curve"/>
      <point x="99.3409090909091" y="642.0454545454545" type="line"/>
      <point x="217.97727272727272" y="620.5" type="line"/>
      <point x="164.47727272727272" y="670.25" type="line"/>
      <point x="164.47727272727272" y="652.5909090909091"/>
      <point x="166.36363636363637" y="583.6818181818181"/>
      <point x="159.04545454545453" y="531.2272727272727" type="curve" smooth="yes"/>
      <point x="103.9090909090909" y="154.5" type="line" smooth="yes"/>
      <point x="100.9090909090909" y="134.61363636363637"/>
      <point x="82.22727272727273" y="69.13636363636364"/>
      <point x="75.68181818181819" y="45.38636363636364" type="curve"/>
      <point x="136.1818181818182" y="81.18181818181819" type="line"/>
      <point x="13.65909090909091" y="58.18181818181818" type="line"/>
    </contour>
  </outline>
</glyph>
<glyph name="O" format="2">
  <advance width="782.75"/>
  <unicode hex="004F"/>
  <anchor x="353.84090909090907" y="0.0" name="bottom"/>
  <anchor x="403.84090909090907" y="353.0" name="center"/>
  <anchor x="484.6363636363636" y="0.0" name="ogonek"/>
  <anchor x="454.84090909090907" y="720.0" name="top"/>
  <anchor x="90.0909090909091" y="705.0" name="topleft"/>
  <anchor x="628.0909090909091" y="620.0" name="topright"/>
  <outline>
    <contour>
      <point x="352.84090909090907" y="-15.0" type="curve" smooth="yes"/>
      <point x="592.5227272727273" y="-15.0"/>
      <point x="748.2272727272727" y="165.25"/>
      <point x="748.2272727272727" y="414.79545454545456" type="curve" smooth="yes"/>
      <point x="748.2272727272727" y="598.0"/>
      <point x="640.3863636363636" y="720.0"/>
      <point x="454.84090909090907" y="720.0" type="curve" smooth="yes"/>
      <point x="215.27272727272728" y="720.0"/>
      <point x="59.45454545454545" y="539.75"/>
      <point x="59.45454545454545" y="289.20454545454544" type="curve" smooth="yes"/>
      <point x="59.45454545454545" y="107.0"/>
      <point x="167.4090909090909" y="-15.0"/>
    </contour>
    <contour>
      <point x="362.27272727272725" y="66.9090909090909" type="curve" smooth="yes"/>
      <point x="260.77272727272725" y="66.9090909090909"/>
      <point x="212.86363636363637" y="145.88636363636363"/>
      <point x="212.86363636363637" y="275.1363636363636" type="curve" smooth="yes"/>
      <point x="212.86363636363637" y="479.22727272727275"/>
      <point x="284.9318181818182" y="638.0909090909091"/>
      <point x="446.40909090909093" y="638.0909090909091" type="curve" smooth="yes"/>
      <point x="547.0227272727273" y="638.0909090909091"/>
      <point x="594.9318181818181" y="559.1136363636364"/>
      <point x="594.9318181818181" y="428.8636363636364" type="curve" smooth="yes"/>
      <point x="594.9318181818181" y="224.77272727272728"/>
      <point x="521.8636363636364" y="66.9090909090909"/>
    </contour>
  </outline>
</glyph>
<glyph name="P" format="2">
  <advance width="617.125"/>
  <unicode hex="0050"/>
  <anchor x="276.6638181818182" y="0.0" name="bottom"/>
  <anchor x="363.2764772727273" y="705.0" name="top"/>
  <outline>
    <contour>
      <point x="9.886363636363637" y="-5.0" type="line"/>
      <point x="58.43181818181818" y="-3.0"/>
      <point x="125.97727272727273" y="0.0"/>
      <point x="154.52272727272728" y="0.0" type="curve" smooth="yes"/>
      <point x="298.04545454545456" y="0.0" type="line"/>
      <point x="312.04545454545456" y="64.52272727272728" type="line"/>
      <point x="179.27272727272728" y="77.18181818181819" type="line"/>
      <point x="232.77272727272728" y="37.63636363636364" type="line"/>
      <point x="232.54545454545456" y="59.0"/>
      <point x="234.11363636363637" y="130.0"/>
      <point x="241.77272727272728" y="183.61363636363637" type="curve" smooth="yes"/>
      <point x="293.1136363636364" y="540.6590909090909" type="line" smooth="yes"/>
      <point x="298.22727272727275" y="573.7954545454545"/>
      <point x="314.45454545454544" y="641.0454545454545"/>
      <point x="321.45454545454544" y="667.7045454545455" type="curve"/>
      <point x="250.95454545454547" y="633.7272727272727" type="line" smooth="yes"/>
      <point x="290.84090909090907" y="636.7272727272727"/>
      <point x="334.52272727272725" y="638.9545454545455"/>
      <point x="349.97727272727275" y="638.9545454545455" type="curve" smooth="yes"/>
      <point x="430.22727272727275" y="638.9545454545455"/>
      <point x="471.15909090909093" y="600.9318181818181"/>
      <point x="471.15909090909093" y="526.4545454545455" type="curve" smooth="yes"/>
      <point x="471.15909090909093" y="409.4318181818182"/>
      <point x="400.1363636363636" y="345.4318181818182"/>
      <point x="296.65909090909093" y="345.4318181818182" type="curve" smooth="yes"/>
      <point x="259.20454545454544" y="345.4318181818182"/>
      <point x="206.0909090909091" y="346.34090909090907"/>
      <point x="173.1818181818182" y="347.02272727272725" type="curve"/>
      <point x="162.52272727272728" y="276.72727272727275" type="line"/>
      <point x="215.75" y="275.5"/>
      <point x="268.09090909090907" y="274.3863636363636"/>
      <point x="321.4318181818182" y="274.3863636363636" type="curve" smooth="yes"/>
      <point x="468.75" y="274.3863636363636"/>
      <point x="609.9090909090909" y="366.59090909090907"/>
      <point x="609.9090909090909" y="529.3636363636364" type="curve" smooth="yes"/>
      <point x="609.9090909090909" y="645.7954545454545"/>
      <point x="529.7954545454545" y="710.0"/>
      <point x="409.1363636363636" y="710.0" type="curve" smooth="yes"/>
      <point x="363.04545454545456" y="710.0"/>
      <point x="280.52272727272725" y="705.0"/>
      <point x="233.54545454545453" y="705.0" type="curve" smooth="yes"/>
      <point x="214.6590909090909" y="705.0"/>
      <point x="154.77272727272728" y="708.0"/>
      <point x="115.0" y="710.0" type="curve"/>
      <point x="100.22727272727273" y="642.0454545454545" type="line"/>
      <point x="218.86363636363637" y="620.5" type="line"/>
      <point x="165.36363636363637" y="667.7045454545455" type="line"/>
      <point x="165.47727272727272" y="642.9318181818181"/>
      <point x="165.36363636363637" y="574.9318181818181"/>
      <point x="158.9318181818182" y="531.2272727272727" type="curve" smooth="yes"/>
      <point x="103.79545454545455" y="153.61363636363637" type="line" smooth="yes"/>
      <point x="99.9090909090909" y="128.4090909090909"/>
      <point x="82.68181818181819" y="70.27272727272728"/>
      <point x="75.68181818181819" y="44.15909090909091" type="curve"/>
      <point x="136.52272727272728" y="81.18181818181819" type="line"/>
      <point x="13.65909090909091" y="58.18181818181818" type="line"/>
    </contour>
  </outline>
</glyph>
<glyph name="Q" format="2">
  <advance width="782.875"/>
  <unicode hex="0051"/>
  <anchor x="358.95454545454544" y="0.0" name="bottom"/>
  <anchor x="444.95454545454544" y="705.0" name="top"/>
  <outline>
    <contour>
      <point x="352.84090909090907" y="-15.0" type="curve" smooth="yes"/>
      <point x="592.5227272727273" y="-15.0"/>
      <point x="748.2272727272727" y="165.25"/>
      <point x="748.2272727272727" y="414.79545454545456" type="curve" smooth="yes"/>
      <point x="748.2272727272727" y="598.0"/>
      <point x="640.3863636363636" y="720.0"/>
      <point x="454.84090909090907" y="720.0" type="curve" smooth="yes"/>
      <point x="215.27272727272728" y="720.0"/>
      <point x="59.45454545454545" y="539.75"/>
      <point x="59.45454545454545" y="289.20454545454544" type="curve" smooth="yes"/>
      <point x="59.45454545454545" y="107.0"/>
      <point x="167.4090909090909" y="-15.0"/>
    </contour>
    <contour>
      <point x="612.7272727272727" y="-224.0" type="line"/>
      <point x="707.5454545454545" y="-110.95454545454545" type="line"/>
      <point x="659.5454545454545" y="-88.8409090909091"/>
      <point x="577.6590909090909" y="-51.84090909090909"/>
      <point x="564.5454545454545" y="-41.61363636363636" type="curve" smooth="yes"/>
      <point x="493.8636363636364" y="14.954545454545455" type="line"/>
      <point x="366.02272727272725" y="-7.795454545454546" type="line"/>
    </contour>
    <contour>
      <point x="362.27272727272725" y="66.9090909090909" type="curve" smooth="yes"/>
      <point x="260.77272727272725" y="66.9090909090909"/>
      <point x="212.86363636363637" y="145.88636363636363"/>
      <point x="212.86363636363637" y="275.1363636363636" type="curve" smooth="yes"/>
      <point x="212.86363636363637" y="479.22727272727275"/>
      <point x="284.9318181818182" y="638.0909090909091"/>
      <point x="446.40909090909093" y="638.0909090909091" type="curve" smooth="yes"/>
      <point x="547.0227272727273" y="638.0909090909091"/>
      <point x="594.9318181818181" y="559.1136363636364"/>
      <point x="594.9318181818181" y="428.8636363636364" type="curve" smooth="yes"/>
      <point x="594.9318181818181" y="224.77272727272728"/>
      <point x="521.8636363636364" y="66.9090909090909"/>
    </contour>
  </outline>
</glyph>
<glyph name="R" format="2">
  <advance width="669.5"/>
  <unicode hex="0052"/>
  <anchor x="319.1818181818182" y="0.0" name="bottom"/>
  <anchor x="368.02272727272725" y="720.0" name="top"/>
  <outline>
    <contour>
      <point x="9.886363636363637" y="-5.0" type="line"/>
      <point x="58.43181818181818" y="-3.0"/>
      <point x="125.97727272727273" y="0.0"/>
      <point x="154.52272727272728" y="0.0" type="curve" smooth="yes"/>
      <point x="288.04545454545456" y="0.0" type="line"/>
      <point x="302.04545454545456" y="64.52272727272728" type="line"/>
      <point x="179.27272727272728" y="77.18181818181819" type="line"/>
      <point x="232.77272727272728" y="37.63636363636364" type="line"/>
      <point x="232.54545454545456" y="59.0"/>
      <point x="234.11363636363637" y="130.0"/>
      <point x="241.77272727272728" y="183.61363636363637" type="curve" smooth="yes"/>
      <point x="293.1136363636364" y="540.6590909090909" type="line" smooth="yes"/>
      <point x="298.22727272727275" y="574.6818181818181"/>
      <point x="317.1136363636364" y="641.0454545454545"/>
      <point x="324.1136363636364" y="667.7045454545455" type="curve"/>
      <point x="216.4318181818182" y="631.2954545454545" type="line"/>
      <point x="252.52272727272728" y="633.2954545454545"/>
      <point x="329.4318181818182" y="638.9545454545455"/>
      <point x="350.8636363636364" y="638.9545454545455" type="curve" smooth="yes"/>
      <point x="431.1136363636364" y="638.9545454545455"/>
      <point x="475.59090909090907" y="602.7045454545455"/>
      <point x="475.59090909090907" y="530.4545454545455" type="curve" smooth="yes"/>
      <point x="475.59090909090907" y="425.29545454545456"/>
      <point x="426.09090909090907" y="357.97727272727275"/>
      <point x="309.54545454545456" y="357.97727272727275" type="curve" smooth="yes"/>
      <point x="267.52272727272725" y="357.97727272727275"/>
      <point x="222.95454545454547" y="359.77272727272725"/>
      <point x="168.75" y="362.22727272727275" type="curve"/>
      <point x="165.1818181818182" y="293.70454545454544" type="line"/>
      <point x="216.63636363636363" y="290.9318181818182"/>
      <point x="281.3863636363636" y="285.27272727272725"/>
      <point x="319.77272727272725" y="285.27272727272725" type="curve" smooth="yes"/>
      <point x="469.6363636363636" y="285.27272727272725"/>
      <point x="613.4545454545455" y="380.90909090909093"/>
      <point x="613.4545454545455" y="537.0227272727273" type="curve" smooth="yes"/>
      <point x="613.4545454545455" y="646.7954545454545"/>
      <point x="532.4545454545455" y="710.0"/>
      <point x="410.90909090909093" y="710.0" type="curve" smooth="yes"/>
      <point x="363.9318181818182" y="710.0"/>
      <point x="280.52272727272725" y="705.0"/>
      <point x="233.54545454545453" y="705.0" type="curve" smooth="yes"/>
      <point x="214.6590909090909" y="705.0"/>
      <point x="154.77272727272728" y="708.0"/>
      <point x="115.0" y="710.0" type="curve"/>
      <point x="100.22727272727273" y="642.0454545454545" type="line"/>
      <point x="218.86363636363637" y="620.5" type="line"/>
      <point x="165.36363636363637" y="667.7045454545455" type="line"/>
      <point x="165.47727272727272" y="642.9318181818181"/>
      <point x="165.36363636363637" y="574.9318181818181"/>
      <point x="158.9318181818182" y="531.2272727272727" type="curve" smooth="yes"/>
      <point x="103.79545454545455" y="153.61363636363637" type="line" smooth="yes"/>
      <point x="99.9090909090909" y="128.4090909090909"/>
      <point x="82.68181818181819" y="70.27272727272728"/>
      <point x="75.68181818181819" y="44.15909090909091" type="curve"/>
      <point x="136.52272727272728" y="81.18181818181819" type="line"/>
      <point x="13.65909090909091" y="58.18181818181818" type="line"/>
    </contour>
    <contour>
      <point x="422.65909090909093" y="0.0" type="curve"/>
      <point x="602.25" y="0.0" type="line"/>
      <point x="616.25" y="65.4090909090909" type="line"/>
      <point x="507.70454545454544" y="74.63636363636364" type="line"/>
      <point x="577.2954545454545" y="41.45454545454545" type="line"/>
      <point x="566.5227272727273" y="60.11363636363637"/>
      <point x="539.4090909090909" y="113.6590909090909"/>
      <point x="532.1818181818181" y="129.22727272727272" type="curve" smooth="yes"/>
      <point x="526.4090909090909" y="142.77272727272728"/>
      <point x="477.4318181818182" y="243.22727272727272"/>
      <point x="442.52272727272725" y="349.0" type="curve"/>
      <point x="305.97727272727275" y="345.0" type="line"/>
      <point x="389.20454545454544" y="116.0" type="line" smooth="yes"/>
      <point x="400.54545454545456" y="84.54545454545455"/>
      <point x="413.20454545454544" y="35.13636363636364"/>
    </contour>
  </outline>
</glyph>
<glyph name="S" format="2">
  <advance width="577.625"/>
  <unicode hex="0053"/>
  <anchor x="243.54545454545453" y="0.0" name="bottom"/>
  <anchor x="357.97727272727275" y="720.0" name="top"/>
  <outline>
    <contour>
      <point x="248.29545454545453" y="-15.0" type="curve" smooth="yes"/>
      <point x="397.15909090909093" y="-15.0"/>
      <point x="522.3636363636364" y="72.18181818181819"/>
      <point x="522.3636363636364" y="223.61363636363637" type="curve" smooth="yes"/>
      <point x="522.3636363636364" y="417.6136363636364"/>
      <point x="244.0909090909091" y="413.6363636363636"/>
      <point x="244.0909090909091" y="538.4545454545455" type="curve" smooth="yes"/>
      <point x="244.0909090909091" y="601.7272727272727"/>
      <point x="293.6818181818182" y="640.5227272727273"/>
      <point x="358.90909090909093" y="640.5227272727273" type="curve" smooth="yes"/>
      <point x="412.79545454545456" y="640.5227272727273"/>
      <point x="447.02272727272725" y="616.0227272727273"/>
      <point x="476.8636363636364" y="596.6590909090909" type="curve"/>
      <point x="432.90909090909093" y="672.9772727272727" type="line"/>
      <point x="439.22727272727275" y="642.6818181818181"/>
      <point x="450.4318181818182" y="591.2727272727273"/>
      <point x="450.4318181818182" y="577.9318181818181" type="curve" smooth="yes"/>
      <point x="450.4318181818182" y="570.7045454545455"/>
      <point x="444.54545454545456" y="535.4090909090909"/>
      <point x="440.77272727272725" y="512.4318181818181" type="curve"/>
      <point x="514.3863636363636" y="507.20454545454544" type="line"/>
      <point x="553.9318181818181" y="685.3409090909091" type="line"/>
      <point x="490.3863636363636" y="704.8863636363636"/>
      <point x="412.29545454545456" y="720.0"/>
      <point x="347.52272727272725" y="720.0" type="curve" smooth="yes"/>
      <point x="205.77272727272728" y="720.0"/>
      <point x="96.45454545454545" y="636.1363636363636"/>
      <point x="96.45454545454545" y="498.9318181818182" type="curve" smooth="yes"/>
      <point x="96.45454545454545" y="304.29545454545456"/>
      <point x="373.27272727272725" y="312.04545454545456"/>
      <point x="373.27272727272725" y="180.45454545454547" type="curve" smooth="yes"/>
      <point x="373.27272727272725" y="108.52272727272728"/>
      <point x="317.70454545454544" y="69.47727272727272"/>
      <point x="249.97727272727272" y="69.47727272727272" type="curve" smooth="yes"/>
      <point x="187.0" y="69.47727272727272"/>
      <point x="143.86363636363637" y="96.3409090909091"/>
      <point x="126.93181818181819" y="105.36363636363636" type="curve"/>
      <point x="148.36363636363637" y="80.27272727272728" type="line"/>
      <point x="144.70454545454544" y="91.04545454545455"/>
      <point x="136.61363636363637" y="126.70454545454545"/>
      <point x="136.61363636363637" y="140.5" type="curve" smooth="yes"/>
      <point x="136.61363636363637" y="146.52272727272728"/>
      <point x="145.5" y="208.70454545454544"/>
      <point x="145.5" y="208.70454545454544" type="curve"/>
      <point x="70.97727272727273" y="214.70454545454544" type="line"/>
      <point x="29.65909090909091" y="34.45454545454545" type="line"/>
      <point x="91.77272727272727" y="2.7727272727272725"/>
      <point x="170.0909090909091" y="-15.0"/>
    </contour>
  </outline>
</glyph>
<glyph name="T" format="2">
  <advance width="658.375"/>
  <unicode hex="0054"/>
  <anchor x="289.6363636363636" y="0.0" name="bottom"/>
  <anchor x="339.6363636363636" y="353.0" name="center"/>
  <anchor x="391.8863636363636" y="720.0" name="top"/>
  <outline>
    <contour>
      <point x="138.45454545454547" y="-5.0" type="line"/>
      <point x="186.11363636363637" y="-3.0"/>
      <point x="265.54545454545456" y="0.0"/>
      <point x="293.09090909090907" y="0.0" type="curve" smooth="yes"/>
      <point x="435.72727272727275" y="0.0" type="line"/>
      <point x="450.6136363636364" y="64.52272727272728" type="line"/>
      <point x="317.84090909090907" y="77.18181818181819" type="line"/>
      <point x="371.3409090909091" y="37.63636363636364" type="line"/>
      <point x="370.22727272727275" y="61.65909090909091"/>
      <point x="373.6818181818182" y="133.54545454545453"/>
      <point x="380.3409090909091" y="183.61363636363637" type="curve" smooth="yes"/>
      <point x="431.79545454545456" y="540.6590909090909" type="line"/>
      <point x="437.79545454545456" y="581.6590909090909"/>
      <point x="457.45454545454544" y="646.25"/>
      <point x="462.79545454545456" y="667.7045454545455" type="curve"/>
      <point x="304.04545454545456" y="667.7045454545455" type="line"/>
      <point x="304.15909090909093" y="642.0454545454545"/>
      <point x="304.04545454545456" y="575.7045454545455"/>
      <point x="297.5" y="531.2272727272727" type="curve" smooth="yes"/>
      <point x="242.36363636363637" y="153.61363636363637" type="line" smooth="yes"/>
      <point x="238.47727272727272" y="129.29545454545453"/>
      <point x="220.36363636363637" y="68.5"/>
      <point x="214.25" y="44.15909090909091" type="curve"/>
      <point x="275.09090909090907" y="81.18181818181819" type="line"/>
      <point x="142.22727272727272" y="58.18181818181818" type="line"/>
    </contour>
    <contour>
      <point x="136.97727272727272" y="512.4772727272727" type="line"/>
      <point x="141.20454545454547" y="532.3863636363636"/>
      <point x="154.97727272727272" y="581.5909090909091"/>
      <point x="159.4318181818182" y="592.1590909090909" type="curve" smooth="yes"/>
      <point x="162.6590909090909" y="598.7272727272727"/>
      <point x="188.3409090909091" y="650.25"/>
      <point x="201.45454545454547" y="677.1136363636364" type="curve"/>
      <point x="130.5909090909091" y="625.5" type="line"/>
      <point x="159.79545454545453" y="627.5"/>
      <point x="223.0" y="632.3863636363636"/>
      <point x="257.1136363636364" y="632.3863636363636" type="curve" smooth="yes"/>
      <point x="501.5" y="632.3863636363636" type="line" smooth="yes"/>
      <point x="530.9318181818181" y="632.3863636363636"/>
      <point x="576.6136363636364" y="628.3863636363636"/>
      <point x="603.4772727272727" y="625.5" type="curve"/>
      <point x="562.6136363636364" y="677.2045454545455" type="line"/>
      <point x="572.5227272727273" y="651.2272727272727"/>
      <point x="586.5227272727273" y="600.9318181818181"/>
      <point x="587.4090909090909" y="591.2727272727273" type="curve" smooth="yes"/>
      <point x="588.2954545454545" y="578.9318181818181"/>
      <point x="586.6363636363636" y="532.3863636363636"/>
      <point x="586.5227272727273" y="512.4772727272727" type="curve"/>
      <point x="652.2727272727273" y="517.4772727272727" type="line"/>
      <point x="669.1590909090909" y="692.0" type="line"/>
      <point x="653.1590909090909" y="710.0" type="line"/>
      <point x="614.3863636363636" y="708.0"/>
      <point x="556.3863636363636" y="705.0"/>
      <point x="538.5" y="705.0" type="curve" smooth="yes"/>
      <point x="237.88636363636363" y="705.0" type="line" smooth="yes"/>
      <point x="220.88636363636363" y="705.0"/>
      <point x="163.11363636363637" y="708.0"/>
      <point x="126.11363636363636" y="710.0" type="curve"/>
      <point x="103.3409090909091" y="692.0" type="line"/>
      <point x="71.3409090909091" y="517.4772727272727" type="line"/>
    </contour>
  </outline>
</glyph>
<glyph name="U" format="2">
  <advance width="755.75"/>
  <unicode hex="0055"/>
  <anchor x="335.6136363636364" y="0.0" name="bottom"/>
  <anchor x="625.5" y="460.0" name="horn"/>
  <anchor x="450.3863636363636" y="0.0" name="ogonek"/>
  <anchor x="438.65909090909093" y="720.0" name="top"/>
  <anchor x="777.9090909090909" y="705.0" name="topright"/>
  <outline>
    <contour>
      <point x="331.72727272727275" y="-15.0" type="curve" smooth="yes"/>
      <point x="508.25" y="-15.0"/>
      <point x="618.5454545454545" y="93.22727272727273"/>
      <point x="644.4318181818181" y="267.77272727272725" type="curve" smooth="yes"/>
      <point x="684.4318181818181" y="540.6590909090909" type="line" smooth="yes"/>
      <point x="689.4318181818181" y="574.1136363636364"/>
      <point x="706.8863636363636" y="636.8409090909091"/>
      <point x="715.2045454545455" y="665.25" type="curve"/>
      <point x="652.1590909090909" y="625.2727272727273" type="line"/>
      <point x="773.9090909090909" y="637.0454545454545" type="line"/>
      <point x="780.4545454545455" y="710.0" type="line"/>
      <point x="731.5909090909091" y="708.0"/>
      <point x="669.2727272727273" y="705.0"/>
      <point x="634.75" y="705.0" type="curve" smooth="yes"/>
      <point x="615.8636363636364" y="705.0"/>
      <point x="561.8636363636364" y="708.0"/>
      <point x="525.8636363636364" y="710.0" type="curve"/>
      <point x="511.09090909090907" y="642.0454545454545" type="line"/>
      <point x="629.8409090909091" y="620.5" type="line"/>
      <point x="576.3409090909091" y="668.3409090909091" type="line"/>
      <point x="576.3409090909091" y="651.2272727272727"/>
      <point x="578.3409090909091" y="583.6818181818181"/>
      <point x="571.0227272727273" y="531.2272727272727" type="curve" smooth="yes"/>
      <point x="531.2272727272727" y="261.6818181818182" type="line" smooth="yes"/>
      <point x="514.8863636363636" y="153.1818181818182"/>
      <point x="464.3863636363636" y="82.22727272727272"/>
      <point x="358.90909090909093" y="82.22727272727272" type="curve" smooth="yes"/>
      <point x="275.54545454545456" y="82.22727272727272"/>
      <point x="232.20454545454544" y="139.36363636363637"/>
      <point x="232.20454545454544" y="221.4090909090909" type="curve" smooth="yes"/>
      <point x="232.3181818181818" y="246.54545454545453"/>
      <point x="236.4318181818182" y="269.6818181818182"/>
      <point x="277.0909090909091" y="540.6590909090909" type="curve" smooth="yes"/>
      <point x="282.0909090909091" y="575.0"/>
      <point x="301.20454545454544" y="639.3863636363636"/>
      <point x="307.8636363636364" y="666.25" type="curve"/>
      <point x="244.70454545454544" y="625.2727272727273" type="line"/>
      <point x="366.3409090909091" y="637.0454545454545" type="line"/>
      <point x="373.1136363636364" y="710.0" type="line"/>
      <point x="320.3636363636364" y="708.0"/>
      <point x="249.38636363636363" y="705.0"/>
      <point x="214.86363636363637" y="705.0" type="curve" smooth="yes"/>
      <point x="196.86363636363637" y="705.0"/>
      <point x="134.4318181818182" y="708.0"/>
      <point x="94.6590909090909" y="710.0" type="curve"/>
      <point x="79.88636363636364" y="642.0454545454545" type="line"/>
      <point x="198.52272727272728" y="620.5" type="line"/>
      <point x="145.02272727272728" y="665.25" type="line"/>
      <point x="145.02272727272728" y="651.5909090909091"/>
      <point x="145.9090909090909" y="583.6818181818181"/>
      <point x="138.47727272727272" y="531.2272727272727" type="curve" smooth="yes"/>
      <point x="100.68181818181819" y="270.6818181818182"/>
      <point x="95.45454545454545" y="243.0"/>
      <point x="96.3409090909091" y="207.4318181818182" type="curve" smooth="yes"/>
      <point x="96.3409090909091" y="72.77272727272727"/>
      <point x="171.88636363636363" y="-15.0"/>
    </contour>
  </outline>
</glyph>
<glyph name="V" format="2">
  <advance width="685.375"/>
  <unicode hex="0056"/>
  <anchor x="295.8636363636364" y="0.0" name="bottom"/>
  <anchor x="396.8636363636364" y="720.0" name="top"/>
  <outline>
    <contour>
      <point x="256.70454545454544" y="0.0" type="line"/>
      <point x="353.70454545454544" y="0.0" type="line"/>
      <point x="621.3409090909091" y="540.6590909090909" type="line" smooth="yes"/>
      <point x="641.0" y="580.0909090909091"/>
      <point x="686.3409090909091" y="643.0227272727273"/>
      <point x="696.9090909090909" y="657.25" type="curve"/>
      <point x="624.75" y="622.3863636363636" type="line"/>
      <point x="702.4772727272727" y="637.0454545454545" type="line"/>
      <point x="709.25" y="710.0" type="line"/>
      <point x="663.3863636363636" y="708.0"/>
      <point x="609.5454545454545" y="705.0"/>
      <point x="584.4545454545455" y="705.0" type="curve" smooth="yes"/>
      <point x="569.2272727272727" y="705.0"/>
      <point x="501.8636363636364" y="708.0"/>
      <point x="466.6363636363636" y="710.0" type="curve"/>
      <point x="450.8636363636364" y="641.9318181818181" type="line"/>
      <point x="596.9772727272727" y="619.6136363636364" type="line"/>
      <point x="554.7954545454545" y="660.4545454545455" type="line"/>
      <point x="549.0227272727273" y="640.1363636363636"/>
      <point x="517.9545454545455" y="557.5454545454545"/>
      <point x="506.29545454545456" y="532.1136363636364" type="curve" smooth="yes"/>
      <point x="321.6363636363636" y="137.70454545454544" type="line"/>
      <point x="353.5" y="133.9318181818182" type="line"/>
      <point x="280.54545454545456" y="540.7727272727273" type="line" smooth="yes"/>
      <point x="275.0909090909091" y="569.6818181818181"/>
      <point x="271.8636363636364" y="645.3636363636364"/>
      <point x="271.75" y="671.1363636363636" type="curve"/>
      <point x="219.36363636363637" y="625.2727272727273" type="line"/>
      <point x="356.5" y="637.0454545454545" type="line"/>
      <point x="362.27272727272725" y="710.0" type="line"/>
      <point x="309.29545454545456" y="708.0"/>
      <point x="224.8409090909091" y="705.0"/>
      <point x="190.97727272727272" y="705.0" type="curve" smooth="yes"/>
      <point x="172.20454545454547" y="705.0"/>
      <point x="131.77272727272728" y="708.0"/>
      <point x="92.11363636363636" y="710.0" type="curve"/>
      <point x="77.3409090909091" y="642.0454545454545" type="line"/>
      <point x="167.9318181818182" y="620.6136363636364" type="line"/>
      <point x="107.86363636363636" y="654.7272727272727" type="line"/>
      <point x="113.0909090909091" y="636.6136363636364"/>
      <point x="134.77272727272728" y="563.4090909090909"/>
      <point x="141.4318181818182" y="531.2272727272727" type="curve" smooth="yes"/>
    </contour>
  </outline>
</glyph>
<glyph name="W" format="2">
  <advance width="990.125"/>
  <unicode hex="0057"/>
  <anchor x="458.0" y="0.0" name="bottom"/>
  <anchor x="544.0" y="705.0" name="top"/>
  <outline>
    <contour>
      <point x="227.61363636363637" y="0.0" type="line"/>
      <point x="325.5" y="0.0" type="line"/>
      <point x="544.4318181818181" y="501.3409090909091" type="line"/>
      <point x="514.7954545454545" y="504.3409090909091" type="line"/>
      <point x="594.8409090909091" y="0.0" type="line"/>
      <point x="691.8409090909091" y="0.0" type="line"/>
      <point x="933.0454545454545" y="540.6590909090909" type="line" smooth="yes"/>
      <point x="948.1590909090909" y="574.8863636363636"/>
      <point x="990.6136363636364" y="638.7954545454545"/>
      <point x="1004.8409090909091" y="657.25" type="curve"/>
      <point x="936.2272727272727" y="622.3863636363636" type="line"/>
      <point x="1006.4545454545455" y="637.0454545454545" type="line"/>
      <point x="1013.2272727272727" y="710.0" type="line"/>
      <point x="967.3636363636364" y="708.0"/>
      <point x="921.0227272727273" y="705.0"/>
      <point x="896.0454545454545" y="705.0" type="curve" smooth="yes"/>
      <point x="880.7045454545455" y="705.0"/>
      <point x="814.5909090909091" y="708.0"/>
      <point x="779.3636363636364" y="710.0" type="curve"/>
      <point x="763.5909090909091" y="641.9318181818181" type="line"/>
      <point x="908.4545454545455" y="619.6136363636364" type="line"/>
      <point x="866.2727272727273" y="660.4545454545455" type="line"/>
      <point x="860.5" y="639.25"/>
      <point x="830.2045454545455" y="554.0"/>
      <point x="821.2045454545455" y="531.2272727272727" type="curve" smooth="yes"/>
      <point x="660.8863636363636" y="136.70454545454544" type="line"/>
      <point x="686.9772727272727" y="133.04545454545456" type="line"/>
      <point x="615.3636363636364" y="678.9090909090909" type="line"/>
      <point x="522.0454545454545" y="678.9090909090909" type="line"/>
      <point x="293.65909090909093" y="137.70454545454544" type="line"/>
      <point x="319.6363636363636" y="133.04545454545456" type="line"/>
      <point x="276.25" y="540.7727272727273" type="line" smooth="yes"/>
      <point x="273.02272727272725" y="571.2272727272727"/>
      <point x="273.0" y="643.7045454545455"/>
      <point x="272.8863636363636" y="671.1363636363636" type="curve"/>
      <point x="220.5" y="625.2727272727273" type="line"/>
      <point x="356.3863636363636" y="637.0454545454545" type="line"/>
      <point x="362.15909090909093" y="710.0" type="line"/>
      <point x="309.1818181818182" y="708.0"/>
      <point x="225.97727272727272" y="705.0"/>
      <point x="192.11363636363637" y="705.0" type="curve" smooth="yes"/>
      <point x="173.3409090909091" y="705.0"/>
      <point x="131.6590909090909" y="708.0"/>
      <point x="92.0" y="710.0" type="curve"/>
      <point x="77.22727272727273" y="642.0454545454545" type="line"/>
      <point x="168.95454545454547" y="620.6136363636364" type="line"/>
      <point x="109.0" y="654.7272727272727" type="line"/>
      <point x="115.11363636363636" y="633.9545454545455"/>
      <point x="131.47727272727272" y="562.5227272727273"/>
      <point x="137.13636363636363" y="531.2272727272727" type="curve" smooth="yes"/>
    </contour>
  </outline>
</glyph>
<glyph name="X" format="2">
  <advance width="744.625"/>
  <unicode hex="0058"/>
  <anchor x="343.1410909090909" y="0.0" name="bottom"/>
  <anchor x="429.5264772727273" y="705.0" name="top"/>
  <outline>
    <contour>
      <point x="9.772727272727273" y="-5.0" type="line"/>
      <point x="53.34090909090909" y="-3.0"/>
      <point x="117.13636363636364" y="0.0"/>
      <point x="140.70454545454547" y="0.0" type="curve" smooth="yes"/>
      <point x="249.88636363636363" y="0.0" type="line"/>
      <point x="264.54545454545456" y="65.4090909090909" type="line"/>
      <point x="156.0909090909091" y="78.63636363636364" type="line"/>
      <point x="190.95454545454547" y="42.79545454545455" type="line"/>
      <point x="205.27272727272728" y="66.88636363636364"/>
      <point x="234.72727272727272" y="113.68181818181819"/>
      <point x="250.61363636363637" y="134.3409090909091" type="curve" smooth="yes"/>
      <point x="391.4318181818182" y="312.5" type="line"/>
      <point x="333.04545454545456" y="317.27272727272725" type="line"/>
      <point x="420.27272727272725" y="150.38636363636363" type="line" smooth="yes"/>
      <point x="434.84090909090907" y="122.25"/>
      <point x="455.75" y="65.68181818181819"/>
      <point x="461.84090909090907" y="41.13636363636364" type="curve"/>
      <point x="505.3636363636364" y="81.75" type="line"/>
      <point x="399.79545454545456" y="58.84090909090909" type="line"/>
      <point x="395.1363636363636" y="-5.0" type="line"/>
      <point x="445.59090909090907" y="-3.0"/>
      <point x="517.0454545454545" y="0.0"/>
      <point x="547.5" y="0.0" type="curve" smooth="yes"/>
      <point x="669.6363636363636" y="0.0" type="line"/>
      <point x="683.4090909090909" y="65.4090909090909" type="line"/>
      <point x="578.5454545454545" y="78.75" type="line"/>
      <point x="642.1590909090909" y="56.09090909090909" type="line"/>
      <point x="609.0" y="102.6590909090909"/>
      <point x="595.25" y="123.20454545454545"/>
      <point x="585.25" y="140.54545454545453" type="curve" smooth="yes"/>
      <point x="432.6136363636364" y="421.9318181818182" type="line"/>
      <point x="424.95454545454544" y="332.02272727272725" type="line"/>
      <point x="598.0" y="555.5" type="line" smooth="yes"/>
      <point x="618.9090909090909" y="582.6363636363636"/>
      <point x="680.7272727272727" y="633.7954545454545"/>
      <point x="698.3863636363636" y="648.3409090909091" type="curve"/>
      <point x="621.0454545454545" y="623.3863636363636" type="line"/>
      <point x="745.2045454545455" y="637.0454545454545" type="line"/>
      <point x="751.0909090909091" y="710.0" type="line"/>
      <point x="707.4318181818181" y="708.0"/>
      <point x="646.6818181818181" y="705.0"/>
      <point x="619.8863636363636" y="705.0" type="curve" smooth="yes"/>
      <point x="598.6363636363636" y="705.0"/>
      <point x="546.0909090909091" y="708.0"/>
      <point x="508.75" y="710.0" type="curve"/>
      <point x="493.8636363636364" y="641.0454545454545" type="line"/>
      <point x="595.0" y="622.1590909090909" type="line"/>
      <point x="561.0227272727273" y="663.0909090909091" type="line"/>
      <point x="548.3636363636364" y="640.3409090909091"/>
      <point x="511.04545454545456" y="585.3409090909091"/>
      <point x="496.04545454545456" y="564.4545454545455" type="curve" smooth="yes"/>
      <point x="382.65909090909093" y="409.6136363636364" type="line"/>
      <point x="438.27272727272725" y="404.84090909090907" type="line"/>
      <point x="370.6818181818182" y="540.6590909090909" type="line" smooth="yes"/>
      <point x="352.45454545454544" y="577.5454545454545"/>
      <point x="333.45454545454544" y="635.1363636363636"/>
      <point x="329.79545454545456" y="655.0" type="curve"/>
      <point x="282.6136363636364" y="625.2727272727273" type="line"/>
      <point x="388.75" y="636.1590909090909" type="line"/>
      <point x="394.52272727272725" y="710.0" type="line"/>
      <point x="342.97727272727275" y="708.0"/>
      <point x="274.6818181818182" y="705.0"/>
      <point x="240.11363636363637" y="705.0" type="curve" smooth="yes"/>
      <point x="215.0909090909091" y="705.0"/>
      <point x="158.0" y="708.0"/>
      <point x="116.88636363636364" y="710.0" type="curve"/>
      <point x="101.22727272727273" y="642.0454545454545" type="line"/>
      <point x="212.88636363636363" y="622.6136363636364" type="line"/>
      <point x="144.29545454545456" y="656.4545454545455" type="line"/>
      <point x="165.5909090909091" y="624.1818181818181"/>
      <point x="190.27272727272728" y="578.9318181818181"/>
      <point x="205.9318181818182" y="551.3863636363636" type="curve" smooth="yes"/>
      <point x="340.47727272727275" y="299.40909090909093" type="line"/>
      <point x="349.1363636363636" y="389.09090909090907" type="line"/>
      <point x="166.1590909090909" y="165.22727272727272" type="line" smooth="yes"/>
      <point x="139.70454545454547" y="132.77272727272728"/>
      <point x="73.47727272727272" y="73.6590909090909"/>
      <point x="50.59090909090909" y="51.88636363636363" type="curve"/>
      <point x="121.95454545454545" y="80.63636363636364" type="line"/>
      <point x="13.65909090909091" y="57.95454545454545" type="line"/>
    </contour>
  </outline>
</glyph>
<glyph name="Y" format="2">
  <advance width="676.875"/>
  <unicode hex="0059"/>
  <anchor x="296.9318181818182" y="0.0" name="bottom"/>
  <anchor x="397.9318181818182" y="720.0" name="top"/>
  <anchor x="87.0" y="705.0" name="topleft"/>
  <outline>
    <contour>
      <point x="292.72727272727275" y="220.27272727272728" type="line"/>
      <point x="389.6136363636364" y="220.27272727272728" type="line"/>
      <point x="596.1363636363636" y="540.6590909090909" type="line" smooth="yes"/>
      <point x="618.3636363636364" y="575.0"/>
      <point x="675.9318181818181" y="641.1363636363636"/>
      <point x="688.0454545454545" y="657.25" type="curve"/>
      <point x="616.0" y="622.3863636363636" type="line"/>
      <point x="694.9772727272727" y="637.0454545454545" type="line"/>
      <point x="701.75" y="710.0" type="line"/>
      <point x="656.7727272727273" y="708.0"/>
      <point x="599.9090909090909" y="705.0"/>
      <point x="575.7045454545455" y="705.0" type="curve" smooth="yes"/>
      <point x="560.4772727272727" y="705.0"/>
      <point x="504.3636363636364" y="708.0"/>
      <point x="469.1363636363636" y="710.0" type="curve"/>
      <point x="454.25" y="641.9318181818181" type="line"/>
      <point x="589.1136363636364" y="619.6136363636364" type="line"/>
      <point x="545.7045454545455" y="660.4545454545455" type="line"/>
      <point x="540.0454545454545" y="639.25"/>
      <point x="494.75" y="553.0"/>
      <point x="481.8636363636364" y="532.1136363636364" type="curve" smooth="yes"/>
      <point x="344.90909090909093" y="314.77272727272725" type="line"/>
      <point x="391.75" y="310.0" type="line"/>
      <point x="302.97727272727275" y="553.8409090909091" type="line" smooth="yes"/>
      <point x="295.6363636363636" y="573.75"/>
      <point x="284.8409090909091" y="647.7954545454545"/>
      <point x="284.8409090909091" y="671.1363636363636" type="curve"/>
      <point x="228.36363636363637" y="625.2727272727273" type="line"/>
      <point x="354.25" y="637.0454545454545" type="line"/>
      <point x="360.02272727272725" y="710.0" type="line"/>
      <point x="307.04545454545456" y="708.0"/>
      <point x="232.1818181818182" y="705.0"/>
      <point x="199.97727272727272" y="705.0" type="curve" smooth="yes"/>
      <point x="180.4318181818182" y="705.0"/>
      <point x="131.6590909090909" y="708.0"/>
      <point x="92.0" y="710.0" type="curve"/>
      <point x="77.22727272727273" y="642.0454545454545" type="line"/>
      <point x="176.04545454545456" y="620.6136363636364" type="line"/>
      <point x="112.20454545454545" y="654.7272727272727" type="line"/>
      <point x="120.43181818181819" y="637.5"/>
      <point x="161.4090909090909" y="559.8636363636364"/>
      <point x="171.8409090909091" y="533.0" type="curve" smooth="yes"/>
    </contour>
    <contour>
      <point x="159.27272727272728" y="-5.0" type="line"/>
      <point x="207.70454545454544" y="-3.0"/>
      <point x="286.25" y="0.0"/>
      <point x="313.90909090909093" y="0.0" type="curve" smooth="yes"/>
      <point x="457.4318181818182" y="0.0" type="line"/>
      <point x="471.4318181818182" y="64.52272727272728" type="line"/>
      <point x="338.6590909090909" y="77.18181818181819" type="line"/>
      <point x="392.1590909090909" y="37.63636363636364" type="line"/>
      <point x="391.9318181818182" y="61.65909090909091"/>
      <point x="393.5" y="131.77272727272728"/>
      <point x="401.1590909090909" y="183.61363636363637" type="curve" smooth="yes"/>
      <point x="422.1590909090909" y="325.95454545454544" type="line"/>
      <point x="289.1818181818182" y="325.95454545454544" type="line"/>
      <point x="263.1818181818182" y="153.61363636363637" type="line" smooth="yes"/>
      <point x="259.29545454545456" y="128.4090909090909"/>
      <point x="241.95454545454547" y="70.27272727272728"/>
      <point x="234.95454545454547" y="44.15909090909091" type="curve"/>
      <point x="295.90909090909093" y="81.18181818181819" type="line"/>
      <point x="163.04545454545456" y="58.18181818181818" type="line"/>
    </contour>
  </outline>
</glyph>
<glyph name="Z" format="2">
  <advance width="618.375"/>
  <unicode hex="005A"/>
  <anchor x="272.47727272727275" y="0.0" name="bottom"/>
  <anchor x="323.72727272727275" y="353.0" name="center"/>
  <anchor x="364.72727272727275" y="720.0" name="top"/>
  <outline>
    <contour>
      <point x="501.6818181818182" y="-4.0" type="curve"/>
      <point x="524.3409090909091" y="14.0" type="line"/>
      <point x="562.1136363636364" y="189.8409090909091" type="line"/>
      <point x="500.3636363636364" y="194.8409090909091" type="line"/>
      <point x="496.25" y="178.72727272727272"/>
      <point x="485.1363636363636" y="144.25"/>
      <point x="479.02272727272725" y="130.13636363636363" type="curve" smooth="yes"/>
      <point x="473.90909090909093" y="117.02272727272728"/>
      <point x="447.59090909090907" y="76.95454545454545"/>
      <point x="426.3863636363636" y="47.54545454545455" type="curve"/>
      <point x="503.22727272727275" y="95.04545454545455" type="line"/>
      <point x="480.90909090909093" y="90.1590909090909"/>
      <point x="410.3409090909091" y="78.04545454545455"/>
      <point x="369.79545454545456" y="78.04545454545455" type="curve" smooth="yes"/>
      <point x="150.86363636363637" y="78.04545454545455" type="line"/>
      <point x="186.1590909090909" y="48.40909090909091" type="line"/>
      <point x="215.9318181818182" y="95.72727272727272"/>
      <point x="258.47727272727275" y="167.5909090909091"/>
      <point x="279.9090909090909" y="196.79545454545456" type="curve" smooth="yes"/>
      <point x="482.90909090909093" y="473.84090909090907" type="line" smooth="yes"/>
      <point x="515.3409090909091" y="518.2727272727273"/>
      <point x="561.2727272727273" y="575.8636363636364"/>
      <point x="607.1363636363636" y="633.2727272727273" type="curve"/>
      <point x="608.0227272727273" y="705.0" type="line"/>
      <point x="253.6818181818182" y="705.0" type="line" smooth="yes"/>
      <point x="237.45454545454547" y="705.0"/>
      <point x="182.3409090909091" y="709.7727272727273"/>
      <point x="143.6818181818182" y="713.5454545454545" type="curve"/>
      <point x="121.79545454545455" y="695.5454545454545" type="line"/>
      <point x="90.68181818181819" y="517.4772727272727" type="line"/>
      <point x="156.54545454545453" y="512.4772727272727" type="line"/>
      <point x="161.6590909090909" y="533.7045454545455"/>
      <point x="172.77272727272728" y="573.6136363636364"/>
      <point x="177.11363636363637" y="583.4090909090909" type="curve" smooth="yes"/>
      <point x="182.88636363636363" y="595.8409090909091"/>
      <point x="207.54545454545453" y="636.5909090909091"/>
      <point x="225.63636363636363" y="665.7727272727273" type="curve"/>
      <point x="174.36363636363637" y="621.1818181818181" type="line"/>
      <point x="185.36363636363637" y="621.2954545454545"/>
      <point x="237.13636363636363" y="627.1818181818181"/>
      <point x="279.0" y="627.1818181818181" type="curve" smooth="yes"/>
      <point x="491.6818181818182" y="627.1818181818181" type="line"/>
      <point x="456.3863636363636" y="658.5909090909091" type="line"/>
      <point x="431.27272727272725" y="614.7045454545455"/>
      <point x="397.15909090909093" y="555.1590909090909"/>
      <point x="374.04545454545456" y="524.0454545454545" type="curve" smooth="yes"/>
      <point x="157.20454545454547" y="230.4090909090909" type="line" smooth="yes"/>
      <point x="131.11363636363637" y="194.6590909090909"/>
      <point x="79.29545454545455" y="132.5909090909091"/>
      <point x="28.204545454545453" y="71.8409090909091" type="curve"/>
      <point x="27.204545454545453" y="0.0" type="line"/>
      <point x="391.6818181818182" y="0.0" type="line" smooth="yes"/>
      <point x="411.59090909090907" y="0.0"/>
      <point x="464.6818181818182" y="-2.0"/>
    </contour>
  </outline>
</glyph>
<glyph name="bracketleft" format="2">
  <advance width="435.0"/>
  <unicode hex="005B"/>
  <outline>
    <contour>
      <point x="313.8863636363636" y="-107.0" type="line"/>
      <point x="324.54545454545456" y="-43.84090909090909" type="line"/>
      <point x="155.97727272727272" y="-26.84090909090909" type="line"/>
      <point x="206.79545454545456" y="-94.97727272727273" type="line"/>
      <point x="206.45454545454544" y="-7.3409090909090935"/>
      <point x="208.45454545454544" y="44.5"/>
      <point x="210.79545454545456" y="63.11363636363637" type="curve" smooth="yes"/>
      <point x="282.79545454545456" y="653.1136363636364" type="line" smooth="yes"/>
      <point x="285.02272727272725" y="674.25"/>
      <point x="305.22727272727275" y="759.8636363636364"/>
      <point x="317.6818181818182" y="812.2045454545455" type="curve"/>
      <point x="249.77272727272728" y="748.8409090909091" type="line"/>
      <point x="421.6818181818182" y="766.8409090909091" type="line"/>
      <point x="426.22727272727275" y="829.0" type="line"/>
      <point x="218.4318181818182" y="825.0" type="line"/>
      <point x="192.11363636363637" y="800.1363636363636" type="line"/>
      <point x="191.54545454545453" y="779.2954545454545"/>
      <point x="176.5681818181818" y="624.2272727272727"/>
      <point x="174.5681818181818" y="606.8863636363636" type="curve" smooth="yes"/>
      <point x="114.68181818181819" y="124.43181818181819" type="line" smooth="yes"/>
      <point x="112.68181818181819" y="104.43181818181819"/>
      <point x="87.56818181818181" y="-59.93181818181818"/>
      <point x="85.77272727272727" y="-72.36363636363636" type="curve"/>
      <point x="106.31818181818181" y="-103.0" type="line"/>
    </contour>
  </outline>
</glyph>
<glyph name="backslash" format="2">
  <advance width="403.5"/>
  <unicode hex="005C"/>
  <outline>
    <contour>
      <point x="264.02272727272725" y="-65.22727272727273" type="line"/>
      <point x="358.15909090909093" y="-36.47727272727273" type="line"/>
      <point x="164.47727272727272" y="773.0" type="line"/>
      <point x="71.3409090909091" y="744.25" type="line"/>
    </contour>
  </outline>
</glyph>
<glyph name="bracketright" format="2">
  <advance width="434.0"/>
  <unicode hex="005D"/>
  <outline>
    <contour>
      <point x="148.11363636363637" y="829.0" type="line"/>
      <point x="137.45454545454547" y="765.8409090909091" type="line"/>
      <point x="306.02272727272725" y="748.8409090909091" type="line"/>
      <point x="255.20454545454547" y="816.9772727272727" type="line"/>
      <point x="255.54545454545453" y="727.5681818181819"/>
      <point x="253.54545454545453" y="677.5"/>
      <point x="251.20454545454547" y="658.8863636363636" type="curve" smooth="yes"/>
      <point x="179.20454545454547" y="68.88636363636364" type="line" smooth="yes"/>
      <point x="176.0909090909091" y="47.75"/>
      <point x="158.4318181818182" y="-33.11363636363637"/>
      <point x="144.3181818181818" y="-90.20454545454545" type="curve"/>
      <point x="212.22727272727272" y="-26.84090909090909" type="line"/>
      <point x="40.31818181818182" y="-44.84090909090909" type="line"/>
      <point x="35.77272727272727" y="-107.0" type="line"/>
      <point x="243.5681818181818" y="-103.0" type="line"/>
      <point x="269.8863636363636" y="-78.13636363636364" type="line"/>
      <point x="270.45454545454544" y="-58.18181818181818"/>
      <point x="285.3181818181818" y="95.11363636363636"/>
      <point x="287.4318181818182" y="115.11363636363636" type="curve"/>
      <point x="347.3181818181818" y="597.5681818181819" type="line"/>
      <point x="349.4318181818182" y="617.5681818181819"/>
      <point x="374.4318181818182" y="781.9318181818181"/>
      <point x="376.22727272727275" y="794.3636363636364" type="curve"/>
      <point x="355.6818181818182" y="825.0" type="line"/>
    </contour>
  </outline>
</glyph>
<glyph name="asciicircum" format="2">
  <advance width="657.375"/>
  <unicode hex="005E"/>
  <outline>
    <contour>
      <point x="153.9090909090909" y="313.8863636363636" type="line"/>
      <point x="408.27272727272725" y="631.9318181818181" type="line"/>
      <point x="339.1363636363636" y="631.9318181818181" type="line"/>
      <point x="519.25" y="313.8863636363636" type="line"/>
      <point x="611.8409090909091" y="370.95454545454544" type="line"/>
      <point x="385.97727272727275" y="731.5454545454545" type="line"/>
      <point x="74.86363636363636" y="370.95454545454544" type="line"/>
    </contour>
  </outline>
</glyph>
<glyph name="underscore" format="2">
  <advance width="630.25"/>
  <unicode hex="005F"/>
  <outline>
    <contour>
      <point x="12.0" y="-232.0" type="line"/>
      <point x="499.0" y="-232.0" type="line"/>
      <point x="515.7727272727273" y="-139.5" type="line"/>
      <point x="21.772727272727273" y="-139.5" type="line"/>
    </contour>
  </outline>
</glyph>
<glyph name="a" format="2">
  <advance width="561.125"/>
  <unicode hex="0061"/>
  <anchor x="244.13636363636363" y="0.0" name="bottom"/>
  <anchor x="401.90909090909093" y="0.0" name="ogonek"/>
  <anchor x="314.02272727272725" y="494.0" name="top"/>
  <outline>
    <contour>
      <point x="112.5" y="-14.431818181818182" type="curve" smooth="yes"/>
      <point x="216.4090909090909" y="-14.431818181818182"/>
      <point x="312.02272727272725" y="109.25"/>
      <point x="370.22727272727275" y="258.04545454545456" type="curve"/>
      <point x="359.1363636363636" y="274.95454545454544" type="line"/>
      <point x="355.6590909090909" y="188.79545454545456"/>
      <point x="318.97727272727275" y="83.38636363636364"/>
      <point x="291.25" y="3.2272727272727275" type="curve"/>
      <point x="325.0" y="-14.431818181818182" type="line"/>
      <point x="519.4090909090909" y="27.90909090909091" type="line"/>
      <point x="523.2954545454545" y="78.63636363636364" type="line"/>
      <point x="384.45454545454544" y="90.8409090909091" type="line"/>
      <point x="441.9318181818182" y="38.79545454545455" type="line"/>
      <point x="445.70454545454544" y="215.22727272727272"/>
      <point x="473.70454545454544" y="350.09090909090907"/>
      <point x="508.04545454545456" y="486.1363636363636" type="curve"/>
      <point x="470.0909090909091" y="512.4318181818181" type="line"/>
      <point x="357.54545454545456" y="484.90909090909093" type="line"/>
      <point x="355.54545454545456" y="438.34090909090907" type="line" smooth="yes"/>
      <point x="348.65909090909093" y="274.47727272727275"/>
      <point x="242.5909090909091" y="105.93181818181819"/>
      <point x="192.45454545454544" y="105.93181818181819" type="curve" smooth="yes"/>
      <point x="169.0" y="105.93181818181819"/>
      <point x="163.29545454545456" y="133.86363636363637"/>
      <point x="163.29545454545456" y="171.70454545454544" type="curve" smooth="yes"/>
      <point x="163.29545454545456" y="289.15909090909093"/>
      <point x="206.9318181818182" y="413.1363636363636"/>
      <point x="243.75" y="413.1363636363636" type="curve" smooth="yes"/>
      <point x="297.6363636363636" y="413.1363636363636"/>
      <point x="369.4318181818182" y="377.0"/>
      <point x="379.77272727272725" y="374.54545454545456" type="curve"/>
      <point x="400.27272727272725" y="492.22727272727275" type="line"/>
      <point x="380.27272727272725" y="493.22727272727275"/>
      <point x="297.95454545454544" y="512.4318181818181"/>
      <point x="260.40909090909093" y="512.4318181818181" type="curve" smooth="yes"/>
      <point x="147.13636363636363" y="512.4318181818181"/>
      <point x="29.886363636363637" y="309.6136363636364"/>
      <point x="29.886363636363637" y="140.0" type="curve" smooth="yes"/>
      <point x="29.886363636363637" y="59.38636363636364"/>
      <point x="54.36363636363636" y="-14.431818181818182"/>
    </contour>
  </outline>
</glyph>
<glyph name="b" format="2">
  <advance width="527.75"/>
  <unicode hex="0062"/>
  <anchor x="229.25" y="0.0" name="bottom"/>
  <anchor x="332.27272727272725" y="723.2727272727273" name="top"/>
  <outline>
    <contour>
      <point x="55.54545454545455" y="-14.431818181818182" type="line"/>
      <point x="204.70454545454544" y="13.454545454545455" type="line"/>
      <point x="125.36363636363636" y="6.2272727272727275" type="line"/>
      <point x="136.47727272727272" y="7.113636363636363"/>
      <point x="228.11363636363637" y="-14.431818181818182"/>
      <point x="267.4318181818182" y="-14.431818181818182" type="curve" smooth="yes"/>
      <point x="380.47727272727275" y="-14.431818181818182"/>
      <point x="497.8409090909091" y="188.04545454545453"/>
      <point x="497.8409090909091" y="358.0" type="curve" smooth="yes"/>
      <point x="497.8409090909091" y="438.6136363636364"/>
      <point x="473.3636363636364" y="512.2045454545455"/>
      <point x="415.45454545454544" y="512.2045454545455" type="curve" smooth="yes"/>
      <point x="325.72727272727275" y="512.2045454545455"/>
      <point x="237.20454545454544" y="412.79545454545456"/>
      <point x="175.13636363636363" y="255.52272727272728" type="curve"/>
      <point x="186.13636363636363" y="263.4090909090909" type="line"/>
      <point x="205.13636363636363" y="388.20454545454544"/>
      <point x="245.75" y="578.4545454545455"/>
      <point x="281.72727272727275" y="743.1363636363636" type="curve"/>
      <point x="249.20454545454544" y="770.0" type="line"/>
      <point x="55.63636363636364" y="737.6818181818181" type="line"/>
      <point x="58.63636363636364" y="686.6136363636364" type="line"/>
      <point x="187.1590909090909" y="669.5" type="line"/>
      <point x="129.6818181818182" y="694.2727272727273" type="line"/>
      <point x="123.6590909090909" y="600.0909090909091"/>
      <point x="85.29545454545455" y="225.75"/>
      <point x="21.795454545454547" y="3.2272727272727275" type="curve"/>
    </contour>
    <contour>
      <point x="172.29545454545456" y="59.54545454545455" type="line"/>
      <point x="179.1818181818182" y="223.4090909090909"/>
      <point x="283.90909090909093" y="392.29545454545456"/>
      <point x="335.3863636363636" y="392.29545454545456" type="curve" smooth="yes"/>
      <point x="358.72727272727275" y="392.29545454545456"/>
      <point x="363.65909090909093" y="364.25"/>
      <point x="363.65909090909093" y="326.29545454545456" type="curve" smooth="yes"/>
      <point x="363.65909090909093" y="208.5"/>
      <point x="320.90909090909093" y="84.0909090909091"/>
      <point x="283.97727272727275" y="84.0909090909091" type="curve" smooth="yes"/>
      <point x="236.4318181818182" y="84.0909090909091"/>
      <point x="164.54545454545456" y="116.54545454545455"/>
      <point x="126.36363636363636" y="133.97727272727272" type="curve"/>
    </contour>
  </outline>
</glyph>
<glyph name="c" format="2">
  <advance width="431.25"/>
  <unicode hex="0063"/>
  <anchor x="156.29545454545453" y="0.0" name="bottom"/>
  <anchor x="282.4318181818182" y="494.0" name="top"/>
  <outline>
    <contour>
      <point x="156.95454545454547" y="-14.431818181818182" type="curve" smooth="yes"/>
      <point x="241.95454545454547" y="-14.431818181818182"/>
      <point x="328.27272727272725" y="41.65909090909091"/>
      <point x="382.5" y="123.36363636363636" type="curve"/>
      <point x="337.54545454545456" y="161.0909090909091" type="line"/>
      <point x="288.54545454545456" y="109.70454545454545"/>
      <point x="245.61363636363637" y="81.45454545454545"/>
      <point x="210.3409090909091" y="81.45454545454545" type="curve" smooth="yes"/>
      <point x="176.6590909090909" y="81.45454545454545"/>
      <point x="158.97727272727272" y="106.04545454545455"/>
      <point x="158.97727272727272" y="151.77272727272728" type="curve" smooth="yes"/>
      <point x="158.97727272727272" y="269.54545454545456"/>
      <point x="207.5909090909091" y="418.6363636363636"/>
      <point x="247.5" y="418.6363636363636" type="curve" smooth="yes"/>
      <point x="279.79545454545456" y="418.6363636363636"/>
      <point x="315.8636363636364" y="407.4318181818182"/>
      <point x="377.3863636363636" y="379.8636363636364" type="curve"/>
      <point x="324.40909090909093" y="461.09090909090907" type="line"/>
      <point x="325.4318181818182" y="307.6136363636364" type="line"/>
      <point x="377.9318181818182" y="304.72727272727275" type="line"/>
      <point x="413.27272727272725" y="465.79545454545456" type="line"/>
      <point x="389.6363636363636" y="502.75" type="line"/>
      <point x="354.1818181818182" y="507.4318181818182"/>
      <point x="289.1136363636364" y="512.4318181818181"/>
      <point x="253.04545454545456" y="512.4318181818181" type="curve" smooth="yes"/>
      <point x="155.86363636363637" y="512.4318181818181"/>
      <point x="26.454545454545453" y="297.4318181818182"/>
      <point x="26.454545454545453" y="138.3409090909091" type="curve" smooth="yes"/>
      <point x="26.454545454545453" y="41.34090909090909"/>
      <point x="74.97727272727273" y="-14.431818181818182"/>
    </contour>
  </outline>
</glyph>
<glyph name="d" format="2">
  <advance width="560.25"/>
  <unicode hex="0064"/>
  <anchor x="245.11363636363637" y="0.0" name="bottom"/>
  <anchor x="408.3636363636364" y="587.8409090909091" name="center"/>
  <anchor x="346.27272727272725" y="723.2727272727273" name="top"/>
  <anchor x="597.7045454545455" y="494.6818181818182" name="topright"/>
  <outline>
    <contour>
      <point x="112.5" y="-14.431818181818182" type="curve" smooth="yes"/>
      <point x="216.52272727272728" y="-14.431818181818182"/>
      <point x="312.02272727272725" y="109.25"/>
      <point x="370.22727272727275" y="258.04545454545456" type="curve"/>
      <point x="359.1363636363636" y="271.72727272727275" type="line"/>
      <point x="355.54545454545456" y="185.3409090909091"/>
      <point x="318.97727272727275" y="81.18181818181819"/>
      <point x="291.3636363636364" y="0.6818181818181817" type="curve"/>
      <point x="325.1136363636364" y="-16.977272727272727" type="line"/>
      <point x="519.4090909090909" y="27.90909090909091" type="line"/>
      <point x="523.2954545454545" y="78.63636363636364" type="line"/>
      <point x="384.3409090909091" y="88.29545454545455" type="line"/>
      <point x="432.4090909090909" y="46.34090909090909" type="line"/>
      <point x="445.02272727272725" y="187.11363636363637"/>
      <point x="484.6363636363636" y="464.3636363636364"/>
      <point x="540.3636363636364" y="743.1363636363636" type="curve"/>
      <point x="507.8409090909091" y="770.0" type="line"/>
      <point x="304.6363636363636" y="737.6818181818181" type="line"/>
      <point x="307.52272727272725" y="686.6136363636364" type="line"/>
      <point x="446.45454545454544" y="670.3863636363636" type="line"/>
      <point x="389.8636363636364" y="712.6590909090909" type="line"/>
      <point x="388.52272727272725" y="670.5454545454545"/>
      <point x="376.6363636363636" y="554.5454545454545"/>
      <point x="364.97727272727275" y="478.77272727272725" type="curve"/>
      <point x="355.54545454545456" y="438.34090909090907" type="line"/>
      <point x="348.65909090909093" y="274.59090909090907"/>
      <point x="244.1590909090909" y="105.93181818181819"/>
      <point x="192.45454545454544" y="105.93181818181819" type="curve" smooth="yes"/>
      <point x="169.0" y="105.93181818181819"/>
      <point x="163.29545454545456" y="133.86363636363637"/>
      <point x="163.29545454545456" y="171.70454545454544" type="curve" smooth="yes"/>
      <point x="163.29545454545456" y="289.15909090909093"/>
      <point x="206.9318181818182" y="413.1363636363636"/>
      <point x="243.75" y="413.1363636363636" type="curve" smooth="yes"/>
      <point x="297.6363636363636" y="413.1363636363636"/>
      <point x="369.4318181818182" y="377.0"/>
      <point x="379.77272727272725" y="374.54545454545456" type="curve"/>
      <point x="400.27272727272725" y="492.22727272727275" type="line"/>
      <point x="380.27272727272725" y="493.22727272727275"/>
      <point x="297.95454545454544" y="512.4318181818181"/>
      <point x="260.40909090909093" y="512.4318181818181" type="curve" smooth="yes"/>
      <point x="147.25" y="512.4318181818181"/>
      <point x="29.65909090909091" y="309.95454545454544"/>
      <point x="29.886363636363637" y="140.0" type="curve" smooth="yes"/>
      <point x="30.0" y="59.38636363636364"/>
      <point x="54.25" y="-14.431818181818182"/>
    </contour>
  </outline>
</glyph>
<glyph name="e" format="2">
  <advance width="444.75"/>
  <unicode hex="0065"/>
  <anchor x="149.9318181818182" y="0.0" name="bottom"/>
  <anchor x="249.27272727272728" y="0.0" name="ogonek"/>
  <anchor x="286.97727272727275" y="494.0" name="top"/>
  <outline>
    <contour>
      <point x="156.1818181818182" y="-14.431818181818182" type="curve" smooth="yes"/>
      <point x="240.1818181818182" y="-14.431818181818182"/>
      <point x="338.6818181818182" y="43.43181818181818"/>
      <point x="396.3409090909091" y="125.02272727272727" type="curve"/>
      <point x="352.15909090909093" y="162.75" type="line"/>
      <point x="314.45454545454544" y="121.88636363636363"/>
      <point x="252.9090909090909" y="78.02272727272728"/>
      <point x="210.22727272727272" y="78.02272727272728" type="curve" smooth="yes"/>
      <point x="178.0909090909091" y="78.02272727272728"/>
      <point x="155.4318181818182" y="99.95454545454545"/>
      <point x="155.4318181818182" y="153.54545454545453" type="curve" smooth="yes"/>
      <point x="155.4318181818182" y="270.0"/>
      <point x="207.1590909090909" y="426.40909090909093"/>
      <point x="255.38636363636363" y="426.40909090909093" type="curve" smooth="yes"/>
      <point x="295.1818181818182" y="426.40909090909093"/>
      <point x="309.8636363636364" y="415.84090909090907"/>
      <point x="309.8636363636364" y="396.02272727272725" type="curve" smooth="yes"/>
      <point x="309.8636363636364" y="337.97727272727275"/>
      <point x="239.27272727272728" y="270.0"/>
      <point x="122.70454545454545" y="259.09090909090907" type="curve"/>
      <point x="121.70454545454545" y="199.36363636363637" type="line"/>
      <point x="315.6590909090909" y="224.27272727272728"/>
      <point x="432.52272727272725" y="311.70454545454544"/>
      <point x="432.52272727272725" y="424.6818181818182" type="curve" smooth="yes"/>
      <point x="432.52272727272725" y="482.77272727272725"/>
      <point x="376.97727272727275" y="512.4318181818181"/>
      <point x="273.3409090909091" y="512.4318181818181" type="curve" smooth="yes"/>
      <point x="170.61363636363637" y="512.4318181818181"/>
      <point x="23.795454545454547" y="298.54545454545456"/>
      <point x="23.795454545454547" y="138.3409090909091" type="curve" smooth="yes"/>
      <point x="23.795454545454547" y="29.704545454545453"/>
      <point x="82.29545454545455" y="-14.431818181818182"/>
    </contour>
  </outline>
</glyph>
<glyph name="f" format="2">
  <advance width="348.5"/>
  <unicode hex="0066"/>
  <anchor x="143.38636363636363" y="0.0" name="bottom"/>
  <anchor x="231.52272727272728" y="723.2727272727273" name="top"/>
  <outline>
    <contour>
      <point x="-104.36363636363636" y="-234.88636363636363" type="line"/>
      <point x="21.409090909090907" y="-228.20454545454547"/>
      <point x="125.61363636363636" y="-165.8409090909091"/>
      <point x="173.6590909090909" y="-47.40909090909091" type="curve" smooth="yes"/>
      <point x="209.95454545454544" y="42.86363636363636"/>
      <point x="215.20454545454544" y="228.36363636363637"/>
      <point x="260.6136363636364" y="473.72727272727275" type="curve"/>
      <point x="191.9318181818182" y="420.6818181818182" type="line"/>
      <point x="344.22727272727275" y="420.6818181818182" type="line"/>
      <point x="364.20454545454544" y="494.72727272727275" type="line"/>
      <point x="206.13636363636363" y="494.72727272727275" type="line"/>
      <point x="255.4090909090909" y="434.5" type="line"/>
      <point x="257.45454545454544" y="538.5909090909091"/>
      <point x="246.77272727272728" y="624.1590909090909"/>
      <point x="260.1136363636364" y="641.9545454545455" type="curve" smooth="yes"/>
      <point x="275.45454545454544" y="661.9772727272727"/>
      <point x="343.27272727272725" y="673.4318181818182"/>
      <point x="410.70454545454544" y="670.5454545454545" type="curve"/>
      <point x="437.22727272727275" y="773.6363636363636" type="line"/>
      <point x="286.1363636363636" y="771.8409090909091"/>
      <point x="172.88636363636363" y="686.7954545454545"/>
      <point x="146.0" y="552.7272727272727" type="curve" smooth="yes"/>
      <point x="143.75" y="539.4545454545455"/>
      <point x="138.6590909090909" y="518.0454545454545"/>
      <point x="124.45454545454545" y="508.6136363636364" type="curve" smooth="yes"/>
      <point x="108.45454545454545" y="497.6136363636364"/>
      <point x="72.38636363636364" y="485.3863636363636"/>
      <point x="42.77272727272727" y="476.40909090909093" type="curve"/>
      <point x="37.0" y="420.6818181818182" type="line"/>
      <point x="184.36363636363637" y="420.6818181818182" type="line"/>
      <point x="128.88636363636363" y="451.8863636363636" type="line"/>
      <point x="108.45454545454545" y="291.29545454545456"/>
      <point x="73.97727272727273" y="-61.61363636363636"/>
      <point x="24.68181818181818" y="-105.75" type="curve" smooth="yes"/>
      <point x="9.136363636363637" y="-119.97727272727272"/>
      <point x="-28.613636363636363" y="-130.79545454545456"/>
      <point x="-72.18181818181819" y="-131.79545454545456" type="curve"/>
    </contour>
  </outline>
</glyph>
<glyph name="g" format="2">
  <advance width="535.75"/>
  <unicode hex="0067"/>
  <anchor x="314.1363636363636" y="-40.65909090909091" name="center"/>
  <anchor x="332.47727272727275" y="494.0" name="top"/>
  <outline>
    <contour>
      <point x="-18.15909090909091" y="-209.02272727272728" type="line"/>
      <point x="206.29545454545453" y="-282.8863636363636"/>
      <point x="401.52272727272725" y="-197.5909090909091"/>
      <point x="427.72727272727275" y="14.09090909090909" type="curve" smooth="yes"/>
      <point x="449.72727272727275" y="191.45454545454547"/>
      <point x="475.04545454545456" y="351.6818181818182"/>
      <point x="509.04545454545456" y="486.1363636363636" type="curve"/>
      <point x="471.20454545454544" y="512.4318181818181" type="line"/>
      <point x="357.77272727272725" y="482.25" type="line"/>
      <point x="355.77272727272725" y="435.79545454545456" type="line" smooth="yes"/>
      <point x="348.8863636363636" y="272.04545454545456"/>
      <point x="243.04545454545456" y="105.93181818181819"/>
      <point x="192.6818181818182" y="105.93181818181819" type="curve" smooth="yes"/>
      <point x="169.0" y="105.93181818181819"/>
      <point x="163.29545454545456" y="134.0909090909091"/>
      <point x="163.29545454545456" y="171.70454545454544" type="curve" smooth="yes"/>
      <point x="163.29545454545456" y="289.27272727272725"/>
      <point x="206.5909090909091" y="413.1363636363636"/>
      <point x="243.86363636363637" y="413.1363636363636" type="curve" smooth="yes"/>
      <point x="297.40909090909093" y="413.1363636363636"/>
      <point x="369.65909090909093" y="377.0"/>
      <point x="379.8863636363636" y="374.54545454545456" type="curve"/>
      <point x="400.5" y="492.22727272727275" type="line"/>
      <point x="380.5" y="493.22727272727275"/>
      <point x="297.84090909090907" y="512.4318181818181"/>
      <point x="260.40909090909093" y="512.4318181818181" type="curve" smooth="yes"/>
      <point x="147.02272727272728" y="512.4318181818181"/>
      <point x="29.886363636363637" y="309.6136363636364"/>
      <point x="29.886363636363637" y="140.0" type="curve" smooth="yes"/>
      <point x="29.886363636363637" y="59.5"/>
      <point x="54.36363636363636" y="-14.431818181818182"/>
      <point x="112.5" y="-14.431818181818182" type="curve" smooth="yes"/>
      <point x="216.52272727272728" y="-14.431818181818182"/>
      <point x="312.02272727272725" y="109.02272727272728"/>
      <point x="370.3409090909091" y="258.04545454545456" type="curve"/>
      <point x="359.1363636363636" y="271.72727272727275" type="line"/>
      <point x="352.8863636363636" y="185.22727272727272"/>
      <point x="326.72727272727275" y="74.29545454545455"/>
      <point x="303.65909090909093" y="-7.113636363636363" type="curve"/>
      <point x="303.20454545454544" y="-24.477272727272727"/>
      <point x="302.3863636363636" y="-91.75"/>
      <point x="285.95454545454544" y="-105.4090909090909" type="curve" smooth="yes"/>
      <point x="238.61363636363637" y="-146.0909090909091"/>
      <point x="126.45454545454545" y="-140.88636363636363"/>
      <point x="23.136363636363637" y="-95.5909090909091" type="curve"/>
    </contour>
  </outline>
</glyph>
<glyph name="h" format="2">
  <advance width="573.375"/>
  <unicode hex="0068"/>
  <anchor x="256.6818181818182" y="0.0" name="bottom"/>
  <anchor x="208.25" y="587.8409090909091" name="center"/>
  <anchor x="216.9318181818182" y="751.6818181818181" name="top"/>
  <outline>
    <contour>
      <point x="57.20454545454545" y="-14.431818181818182" type="line"/>
      <point x="165.8409090909091" y="3.2272727272727275" type="line"/>
      <point x="167.29545454545456" y="14.545454545454547"/>
      <point x="168.4090909090909" y="23.38636363636364"/>
      <point x="170.20454545454544" y="35.95454545454545" type="curve"/>
      <point x="198.38636363636363" y="204.1590909090909"/>
      <point x="284.22727272727275" y="391.3636363636364"/>
      <point x="350.27272727272725" y="391.3636363636364" type="curve" smooth="yes"/>
      <point x="370.1818181818182" y="391.3636363636364"/>
      <point x="372.75" y="366.25"/>
      <point x="372.75" y="346.1136363636364" type="curve" smooth="yes"/>
      <point x="372.75" y="282.90909090909093"/>
      <point x="331.65909090909093" y="125.68181818181819"/>
      <point x="297.45454545454544" y="3.2272727272727275" type="curve"/>
      <point x="330.20454545454544" y="-14.431818181818182" type="line"/>
      <point x="527.2272727272727" y="27.90909090909091" type="line"/>
      <point x="531.0" y="78.63636363636364" type="line"/>
      <point x="399.3409090909091" y="88.29545454545455" type="line"/>
      <point x="456.04545454545456" y="40.68181818181818" type="line"/>
      <point x="460.04545454545456" y="179.11363636363637"/>
      <point x="511.04545454545456" y="331.65909090909093"/>
      <point x="511.04545454545456" y="430.20454545454544" type="curve" smooth="yes"/>
      <point x="511.04545454545456" y="477.09090909090907"/>
      <point x="483.72727272727275" y="512.4318181818181"/>
      <point x="431.95454545454544" y="512.4318181818181" type="curve" smooth="yes"/>
      <point x="337.9090909090909" y="512.4318181818181"/>
      <point x="246.36363636363637" y="401.9318181818182"/>
      <point x="185.4318181818182" y="247.5" type="curve"/>
      <point x="187.22727272727272" y="247.1590909090909" type="line"/>
      <point x="206.6818181818182" y="374.9090909090909"/>
      <point x="246.0909090909091" y="581.2954545454545"/>
      <point x="281.72727272727275" y="743.1363636363636" type="curve"/>
      <point x="249.20454545454544" y="770.0" type="line"/>
      <point x="55.63636363636364" y="737.6818181818181" type="line"/>
      <point x="58.63636363636364" y="686.6136363636364" type="line"/>
      <point x="187.1590909090909" y="669.5" type="line"/>
      <point x="129.6818181818182" y="694.2727272727273" type="line"/>
      <point x="123.6590909090909" y="600.0909090909091"/>
      <point x="85.29545454545455" y="225.75"/>
      <point x="21.795454545454547" y="3.2272727272727275" type="curve"/>
    </contour>
  </outline>
</glyph>
<glyph name="k" format="2">
  <advance width="568.0"/>
  <unicode hex="006B"/>
  <anchor x="254.11363636363637" y="0.0" name="bottom"/>
  <anchor x="344.6363636363636" y="746.4545454545455" name="top"/>
  <outline>
    <contour>
      <point x="58.97727272727273" y="-14.431818181818182" type="line"/>
      <point x="168.5" y="3.2272727272727275" type="line"/>
      <point x="170.27272727272728" y="20.954545454545453"/>
      <point x="172.52272727272728" y="45.70454545454545"/>
      <point x="175.86363636363637" y="66.43181818181819" type="curve"/>
      <point x="203.79545454545456" y="235.88636363636363"/>
      <point x="301.90909090909093" y="409.52272727272725"/>
      <point x="370.70454545454544" y="409.52272727272725" type="curve" smooth="yes"/>
      <point x="386.59090909090907" y="409.52272727272725"/>
      <point x="396.70454545454544" y="398.52272727272725"/>
      <point x="396.70454545454544" y="381.1818181818182" type="curve" smooth="yes"/>
      <point x="396.70454545454544" y="320.15909090909093"/>
      <point x="336.3409090909091" y="263.90909090909093"/>
      <point x="235.38636363636363" y="229.45454545454547" type="curve"/>
      <point x="235.38636363636363" y="181.9318181818182" type="line"/>
      <point x="352.0909090909091" y="-14.431818181818182" type="line"/>
      <point x="517.7954545454545" y="27.90909090909091" type="line"/>
      <point x="521.7954545454545" y="78.63636363636364" type="line"/>
      <point x="391.3636363636364" y="91.93181818181819" type="line"/>
      <point x="475.25" y="63.75" type="line"/>
      <point x="427.04545454545456" y="101.97727272727273"/>
      <point x="370.3863636363636" y="182.29545454545453"/>
      <point x="334.5" y="252.04545454545456" type="curve"/>
      <point x="302.54545454545456" y="196.5909090909091" type="line"/>
      <point x="453.27272727272725" y="251.97727272727272"/>
      <point x="527.75" y="327.02272727272725"/>
      <point x="527.75" y="428.8863636363636" type="curve" smooth="yes"/>
      <point x="527.75" y="484.8636363636364"/>
      <point x="499.54545454545456" y="512.4318181818181"/>
      <point x="442.47727272727275" y="512.4318181818181" type="curve" smooth="yes"/>
      <point x="332.0" y="512.4318181818181"/>
      <point x="230.5909090909091" y="380.1590909090909"/>
      <point x="171.47727272727272" y="209.38636363636363" type="curve"/>
      <point x="181.36363636363637" y="210.72727272727275" type="line"/>
      <point x="202.36363636363637" y="350.6363636363636"/>
      <point x="243.27272727272728" y="563.0227272727273"/>
      <point x="281.8409090909091" y="743.1363636363636" type="curve"/>
      <point x="249.4318181818182" y="770.0" type="line"/>
      <point x="55.75" y="737.6818181818181" type="line"/>
      <point x="58.52272727272727" y="686.6136363636364" type="line"/>
      <point x="187.1590909090909" y="669.5" type="line"/>
      <point x="130.6818181818182" y="712.8863636363636" type="line"/>
      <point x="118.77272727272727" y="500.72727272727275"/>
      <point x="66.11363636363636" y="157.3409090909091"/>
      <point x="22.68181818181818" y="3.2272727272727275" type="curve"/>
    </contour>
  </outline>
</glyph>
<glyph name="l" format="2">
  <advance width="293.0"/>
  <unicode hex="006C"/>
  <anchor x="149.86363636363637" y="0.0" name="bottom"/>
  <anchor x="152.86363636363637" y="382.45454545454544" name="center"/>
  <anchor x="363.3409090909091" y="410.45454545454544" name="centerright"/>
  <anchor x="181.13636363636363" y="756.0" name="top"/>
  <anchor x="335.97727272727275" y="494.6818181818182" name="topright"/>
  <outline>
    <contour>
      <point x="55.54545454545455" y="-14.431818181818182" type="line"/>
      <point x="250.4318181818182" y="27.90909090909091" type="line"/>
      <point x="254.20454545454544" y="78.63636363636364" type="line"/>
      <point x="118.02272727272728" y="90.8409090909091" type="line"/>
      <point x="175.27272727272728" y="63.18181818181818" type="line"/>
      <point x="187.77272727272728" y="197.79545454545456"/>
      <point x="228.0" y="450.5909090909091"/>
      <point x="280.95454545454544" y="743.1363636363636" type="curve"/>
      <point x="248.54545454545456" y="770.0" type="line"/>
      <point x="54.86363636363636" y="737.6818181818181" type="line"/>
      <point x="57.86363636363636" y="686.6136363636364" type="line"/>
      <point x="186.38636363636363" y="669.5" type="line"/>
      <point x="128.9090909090909" y="694.2727272727273" type="line"/>
      <point x="122.88636363636364" y="600.0909090909091"/>
      <point x="85.29545454545455" y="225.75"/>
      <point x="21.795454545454547" y="3.2272727272727275" type="curve"/>
    </contour>
  </outline>
</glyph>
<glyph name="m" format="2">
  <advance width="883.375"/>
  <unicode hex="006D"/>
  <anchor x="412.02272727272725" y="0.0" name="bottom"/>
  <anchor x="472.02272727272725" y="494.0" name="top"/>
  <outline>
    <contour>
      <point x="71.9090909090909" y="-14.431818181818182" type="line"/>
      <point x="181.4318181818182" y="3.2272727272727275" type="line"/>
      <point x="183.6590909090909" y="21.613636363636363"/>
      <point x="186.88636363636363" y="40.0"/>
      <point x="189.3409090909091" y="58.38636363636364" type="curve"/>
      <point x="216.29545454545453" y="208.11363636363637"/>
      <point x="310.8863636363636" y="390.5909090909091"/>
      <point x="376.27272727272725" y="390.5909090909091" type="curve" smooth="yes"/>
      <point x="397.29545454545456" y="390.5909090909091"/>
      <point x="399.8636363636364" y="365.47727272727275"/>
      <point x="399.8636363636364" y="345.3409090909091" type="curve" smooth="yes"/>
      <point x="399.8636363636364" y="282.47727272727275"/>
      <point x="357.8863636363636" y="126.36363636363636"/>
      <point x="323.34090909090907" y="3.2272727272727275" type="curve"/>
      <point x="357.09090909090907" y="-14.431818181818182" type="line"/>
      <point x="465.8409090909091" y="3.2272727272727275" type="line"/>
      <point x="467.4090909090909" y="17.772727272727273"/>
      <point x="469.20454545454544" y="32.90909090909091"/>
      <point x="470.6590909090909" y="43.95454545454545" type="curve"/>
      <point x="494.8636363636364" y="195.88636363636363"/>
      <point x="593.8636363636364" y="390.5909090909091"/>
      <point x="660.2272727272727" y="390.5909090909091" type="curve" smooth="yes"/>
      <point x="680.25" y="390.5909090909091"/>
      <point x="683.0454545454545" y="365.5909090909091"/>
      <point x="683.0454545454545" y="345.3409090909091" type="curve" smooth="yes"/>
      <point x="683.0454545454545" y="282.25"/>
      <point x="641.7272727272727" y="126.13636363636364"/>
      <point x="607.2954545454545" y="3.2272727272727275" type="curve"/>
      <point x="640.2727272727273" y="-14.431818181818182" type="line"/>
      <point x="837.2954545454545" y="27.90909090909091" type="line"/>
      <point x="841.1818181818181" y="78.63636363636364" type="line"/>
      <point x="709.75" y="88.29545454545455" type="line"/>
      <point x="766.2272727272727" y="41.36363636363636" type="line"/>
      <point x="770.2272727272727" y="179.9090909090909"/>
      <point x="821.0" y="330.8863636363636"/>
      <point x="821.0" y="429.54545454545456" type="curve" smooth="yes"/>
      <point x="821.0" y="476.20454545454544"/>
      <point x="794.0227272727273" y="512.4318181818181"/>
      <point x="742.1363636363636" y="512.4318181818181" type="curve" smooth="yes"/>
      <point x="615.8409090909091" y="512.4318181818181"/>
      <point x="521.8863636363636" y="338.1136363636364"/>
      <point x="472.79545454545456" y="240.5" type="curve"/>
      <point x="479.27272727272725" y="230.86363636363637" type="line"/>
      <point x="527.6590909090909" y="363.1136363636364"/>
      <point x="576.5227272727273" y="512.4318181818181"/>
      <point x="458.1818181818182" y="512.4318181818181" type="curve" smooth="yes"/>
      <point x="327.27272727272725" y="512.4318181818181"/>
      <point x="235.95454545454547" y="344.1590909090909"/>
      <point x="188.86363636363637" y="231.3409090909091" type="curve"/>
      <point x="193.86363636363637" y="231.20454545454544" type="line"/>
      <point x="216.61363636363637" y="346.4318181818182"/>
      <point x="246.77272727272728" y="419.1818181818182"/>
      <point x="270.4090909090909" y="485.45454545454544" type="curve"/>
      <point x="233.6818181818182" y="512.4318181818181" type="line"/>
      <point x="46.09090909090909" y="469.20454545454544" type="line"/>
      <point x="46.09090909090909" y="419.1363636363636" type="line"/>
      <point x="175.5" y="411.3636363636364" type="line"/>
      <point x="117.25" y="449.77272727272725" type="line"/>
      <point x="110.11363636363636" y="313.3409090909091"/>
      <point x="87.1590909090909" y="185.27272727272728"/>
      <point x="38.15909090909091" y="3.2272727272727275" type="curve"/>
    </contour>
  </outline>
</glyph>
<glyph name="n" format="2">
  <advance width="601.875"/>
  <unicode hex="006E"/>
  <anchor x="274.3409090909091" y="0.0" name="bottom"/>
  <anchor x="335.70454545454544" y="494.0" name="top"/>
  <outline>
    <contour>
      <point x="71.02272727272727" y="-14.431818181818182" type="line"/>
      <point x="180.54545454545456" y="3.2272727272727275" type="line"/>
      <point x="182.77272727272728" y="19.954545454545453"/>
      <point x="185.0" y="38.65909090909091"/>
      <point x="188.45454545454544" y="57.38636363636364" type="curve"/>
      <point x="215.75" y="208.36363636363637"/>
      <point x="313.0" y="390.5909090909091"/>
      <point x="377.9318181818182" y="390.5909090909091" type="curve" smooth="yes"/>
      <point x="398.84090909090907" y="390.5909090909091"/>
      <point x="401.40909090909093" y="365.3636363636364"/>
      <point x="401.40909090909093" y="345.3409090909091" type="curve" smooth="yes"/>
      <point x="401.40909090909093" y="282.02272727272725"/>
      <point x="360.20454545454544" y="126.25"/>
      <point x="325.1136363636364" y="3.2272727272727275" type="curve"/>
      <point x="359.6363636363636" y="-14.431818181818182" type="line"/>
      <point x="556.6590909090909" y="27.90909090909091" type="line"/>
      <point x="560.5454545454545" y="78.63636363636364" type="line"/>
      <point x="428.1136363636364" y="90.8409090909091" type="line"/>
      <point x="484.70454545454544" y="43.02272727272727" type="line"/>
      <point x="487.9318181818182" y="179.9090909090909"/>
      <point x="539.4772727272727" y="330.8863636363636"/>
      <point x="539.4772727272727" y="429.54545454545456" type="curve" smooth="yes"/>
      <point x="539.4772727272727" y="476.20454545454544"/>
      <point x="511.6136363636364" y="512.4318181818181"/>
      <point x="459.72727272727275" y="512.4318181818181" type="curve" smooth="yes"/>
      <point x="332.79545454545456" y="512.4318181818181"/>
      <point x="241.47727272727272" y="360.29545454545456"/>
      <point x="189.75" y="232.22727272727275" type="curve"/>
      <point x="193.86363636363637" y="231.20454545454544" type="line"/>
      <point x="216.5" y="345.75"/>
      <point x="247.54545454545456" y="418.95454545454544"/>
      <point x="269.52272727272725" y="485.45454545454544" type="curve"/>
      <point x="232.79545454545456" y="512.4318181818181" type="line"/>
      <point x="45.20454545454545" y="469.20454545454544" type="line"/>
      <point x="45.20454545454545" y="419.1363636363636" type="line"/>
      <point x="174.61363636363637" y="411.3636363636364" type="line"/>
      <point x="117.25" y="449.77272727272725" type="line"/>
      <point x="110.77272727272727" y="312.54545454545456"/>
      <point x="86.61363636363636" y="186.75"/>
      <point x="38.15909090909091" y="3.2272727272727275" type="curve"/>
    </contour>
  </outline>
</glyph>
<glyph name="o" format="2">
  <advance width="506.5"/>
  <unicode hex="006F"/>
  <anchor x="218.38636363636363" y="0.0" name="bottom"/>
  <anchor x="253.38636363636363" y="247.22727272727272" name="center"/>
  <anchor x="285.79545454545456" y="4.659090909090909" name="ogonek"/>
  <anchor x="288.27272727272725" y="494.0" name="top"/>
  <anchor x="384.97727272727275" y="440.45454545454544" name="topright"/>
  <outline>
    <contour>
      <point x="190.8409090909091" y="-14.431818181818182" type="curve" smooth="yes"/>
      <point x="348.22727272727275" y="-14.431818181818182"/>
      <point x="477.0909090909091" y="139.70454545454547"/>
      <point x="477.0909090909091" y="329.02272727272725" type="curve" smooth="yes"/>
      <point x="477.0909090909091" y="448.54545454545456"/>
      <point x="420.8863636363636" y="512.4318181818181"/>
      <point x="315.70454545454544" y="512.4318181818181" type="curve" smooth="yes"/>
      <point x="159.20454545454547" y="512.4318181818181"/>
      <point x="29.454545454545453" y="358.29545454545456"/>
      <point x="29.454545454545453" y="169.20454545454547" type="curve" smooth="yes"/>
      <point x="29.454545454545453" y="49.90909090909091"/>
      <point x="86.6590909090909" y="-14.431818181818182"/>
    </contour>
    <contour>
      <point x="221.79545454545456" y="73.79545454545455" type="curve" smooth="yes"/>
      <point x="189.0909090909091" y="73.79545454545455"/>
      <point x="168.86363636363637" y="109.47727272727272"/>
      <point x="168.86363636363637" y="172.1818181818182" type="curve" smooth="yes"/>
      <point x="168.86363636363637" y="330.4318181818182"/>
      <point x="211.70454545454544" y="424.4318181818182"/>
      <point x="285.75" y="424.4318181818182" type="curve" smooth="yes"/>
      <point x="317.6818181818182" y="424.4318181818182"/>
      <point x="337.79545454545456" y="388.6363636363636"/>
      <point x="337.79545454545456" y="325.9318181818182" type="curve" smooth="yes"/>
      <point x="337.79545454545456" y="167.3409090909091"/>
      <point x="294.72727272727275" y="73.79545454545455"/>
    </contour>
  </outline>
</glyph>
<glyph name="p" format="2">
  <advance width="542.25"/>
  <unicode hex="0070"/>
  <anchor x="238.38636363636363" y="0.0" name="bottom"/>
  <anchor x="308.3863636363636" y="494.0" name="top"/>
  <outline>
    <contour>
      <point x="40.0" y="-274.34090909090907" type="line"/>
      <point x="149.4090909090909" y="-256.79545454545456" type="line"/>
      <point x="161.52272727272728" y="-146.77272727272728"/>
      <point x="173.63636363636363" y="-53.65909090909091"/>
      <point x="186.75" y="38.15909090909091" type="curve"/>
      <point x="186.04545454545456" y="211.9318181818182"/>
      <point x="296.15909090909093" y="392.1818181818182"/>
      <point x="350.52272727272725" y="392.1818181818182" type="curve" smooth="yes"/>
      <point x="373.20454545454544" y="392.1818181818182"/>
      <point x="379.1363636363636" y="363.9090909090909"/>
      <point x="379.1363636363636" y="326.29545454545456" type="curve" smooth="yes"/>
      <point x="379.1363636363636" y="208.72727272727272"/>
      <point x="335.3863636363636" y="84.97727272727272"/>
      <point x="299.22727272727275" y="84.97727272727272" type="curve" smooth="yes"/>
      <point x="258.77272727272725" y="84.97727272727272"/>
      <point x="204.36363636363637" y="107.25"/>
      <point x="181.29545454545456" y="117.3409090909091" type="curve"/>
      <point x="167.0909090909091" y="2.2272727272727275" type="line"/>
      <point x="198.8409090909091" y="-3.5454545454545454"/>
      <point x="254.0" y="-14.431818181818182"/>
      <point x="281.79545454545456" y="-14.431818181818182" type="curve" smooth="yes"/>
      <point x="394.8409090909091" y="-14.431818181818182"/>
      <point x="513.2045454545455" y="188.27272727272728"/>
      <point x="513.2045454545455" y="358.0" type="curve" smooth="yes"/>
      <point x="513.2045454545455" y="438.5"/>
      <point x="487.8409090909091" y="512.4318181818181"/>
      <point x="430.5909090909091" y="512.4318181818181" type="curve" smooth="yes"/>
      <point x="316.75" y="512.4318181818181"/>
      <point x="244.63636363636363" y="375.4318181818182"/>
      <point x="184.6590909090909" y="256.3636363636364" type="curve"/>
      <point x="192.88636363636363" y="258.1363636363636" type="line"/>
      <point x="211.0909090909091" y="347.0909090909091"/>
      <point x="244.3409090909091" y="429.02272727272725"/>
      <point x="265.20454545454544" y="485.45454545454544" type="curve"/>
      <point x="227.47727272727272" y="512.4318181818181" type="line"/>
      <point x="40.0" y="469.20454545454544" type="line"/>
      <point x="40.0" y="419.1363636363636" type="line"/>
      <point x="171.1818181818182" y="411.3636363636364" type="line"/>
      <point x="113.5909090909091" y="439.8863636363636" type="line"/>
      <point x="105.9090909090909" y="297.47727272727275"/>
      <point x="64.20454545454545" y="-41.29545454545455"/>
      <point x="7.136363636363637" y="-256.79545454545456" type="curve"/>
    </contour>
  </outline>
</glyph>
<glyph name="q" format="2">
  <advance width="525.375"/>
  <unicode hex="0071"/>
  <anchor x="224.72727272727272" y="0.0" name="bottom"/>
  <anchor x="284.72727272727275" y="494.0" name="top"/>
  <outline>
    <contour>
      <point x="274.54545454545456" y="-277.0" type="line"/>
      <point x="387.52272727272725" y="-253.45454545454547" type="line"/>
      <point x="402.6136363636364" y="-90.5909090909091"/>
      <point x="451.29545454545456" y="313.22727272727275"/>
      <point x="499.4090909090909" y="486.1363636363636" type="curve"/>
      <point x="461.45454545454544" y="512.4318181818181" type="line"/>
      <point x="357.54545454545456" y="484.90909090909093" type="line"/>
      <point x="355.54545454545456" y="438.34090909090907" type="line" smooth="yes"/>
      <point x="348.65909090909093" y="274.47727272727275"/>
      <point x="242.70454545454544" y="105.93181818181819"/>
      <point x="192.45454545454544" y="105.93181818181819" type="curve" smooth="yes"/>
      <point x="169.0" y="105.93181818181819"/>
      <point x="163.29545454545456" y="133.86363636363637"/>
      <point x="163.29545454545456" y="171.70454545454544" type="curve" smooth="yes"/>
      <point x="163.29545454545456" y="289.15909090909093"/>
      <point x="206.9318181818182" y="413.1363636363636"/>
      <point x="243.75" y="413.1363636363636" type="curve" smooth="yes"/>
      <point x="297.6363636363636" y="413.1363636363636"/>
      <point x="369.4318181818182" y="377.0"/>
      <point x="379.77272727272725" y="374.54545454545456" type="curve"/>
      <point x="394.1818181818182" y="492.22727272727275" type="line"/>
      <point x="374.1818181818182" y="493.22727272727275"/>
      <point x="298.84090909090907" y="512.4318181818181"/>
      <point x="261.29545454545456" y="512.4318181818181" type="curve" smooth="yes"/>
      <point x="148.13636363636363" y="512.4318181818181"/>
      <point x="29.65909090909091" y="309.95454545454544"/>
      <point x="29.886363636363637" y="140.0" type="curve" smooth="yes"/>
      <point x="30.0" y="59.38636363636364"/>
      <point x="54.25" y="-14.431818181818182"/>
      <point x="112.5" y="-14.431818181818182" type="curve" smooth="yes"/>
      <point x="216.52272727272728" y="-14.431818181818182"/>
      <point x="312.02272727272725" y="109.25"/>
      <point x="370.22727272727275" y="258.04545454545456" type="curve"/>
      <point x="359.02272727272725" y="274.3863636363636" type="line"/>
      <point x="351.0" y="187.54545454545456"/>
      <point x="320.72727272727275" y="77.29545454545455"/>
      <point x="297.20454545454544" y="-4.2272727272727275" type="curve"/>
      <point x="279.65909090909093" y="-95.43181818181819"/>
      <point x="259.34090909090907" y="-184.86363636363637"/>
      <point x="240.9090909090909" y="-259.34090909090907" type="curve"/>
    </contour>
  </outline>
</glyph>
<glyph name="r" format="2">
  <advance width="418.0"/>
  <unicode hex="0072"/>
  <anchor x="159.63636363636363" y="0.0" name="bottom"/>
  <anchor x="238.27272727272728" y="494.0" name="top"/>
  <outline>
    <contour>
      <point x="70.9090909090909" y="-14.431818181818182" type="line"/>
      <point x="180.4318181818182" y="3.2272727272727275" type="line"/>
      <point x="182.88636363636363" y="52.95454545454545"/>
      <point x="186.77272727272728" y="105.0"/>
      <point x="197.0909090909091" y="152.29545454545456" type="curve"/>
      <point x="214.38636363636363" y="224.02272727272728"/>
      <point x="270.54545454545456" y="345.45454545454544"/>
      <point x="325.09090909090907" y="345.45454545454544" type="curve" smooth="yes"/>
      <point x="339.40909090909093" y="345.45454545454544"/>
      <point x="369.47727272727275" y="331.9318181818182"/>
      <point x="383.3636363636364" y="325.27272727272725" type="curve"/>
      <point x="423.6818181818182" y="496.8863636363636" type="line"/>
      <point x="416.6818181818182" y="503.54545454545456"/>
      <point x="404.79545454545456" y="511.54545454545456"/>
      <point x="393.1136363636364" y="511.54545454545456" type="curve" smooth="yes"/>
      <point x="333.0" y="511.54545454545456"/>
      <point x="242.86363636363637" y="374.1363636363636"/>
      <point x="168.25" y="200.75" type="curve"/>
      <point x="187.11363636363637" y="218.27272727272728" type="line"/>
      <point x="201.20454545454547" y="307.6136363636364"/>
      <point x="230.27272727272728" y="387.79545454545456"/>
      <point x="269.52272727272725" y="485.45454545454544" type="curve"/>
      <point x="232.79545454545456" y="512.4318181818181" type="line"/>
      <point x="45.20454545454545" y="469.20454545454544" type="line"/>
      <point x="45.20454545454545" y="419.1363636363636" type="line"/>
      <point x="174.61363636363637" y="411.3636363636364" type="line"/>
      <point x="117.36363636363636" y="447.6818181818182" type="line"/>
      <point x="110.0" y="317.3636363636364"/>
      <point x="89.45454545454545" y="197.13636363636363"/>
      <point x="38.04545454545455" y="3.2272727272727275" type="curve"/>
    </contour>
  </outline>
</glyph>
<glyph name="s" format="2">
  <advance width="420.5"/>
  <unicode hex="0073"/>
  <anchor x="166.38636363636363" y="0.0" name="bottom"/>
  <anchor x="246.38636363636363" y="494.0" name="top"/>
  <outline>
    <contour>
      <point x="174.13636363636363" y="-14.431818181818182" type="curve" smooth="yes"/>
      <point x="284.8636363636364" y="-14.431818181818182"/>
      <point x="365.97727272727275" y="53.22727272727273"/>
      <point x="365.97727272727275" y="152.77272727272728" type="curve" smooth="yes"/>
      <point x="365.97727272727275" y="267.1363636363636"/>
      <point x="198.61363636363637" y="331.72727272727275"/>
      <point x="198.61363636363637" y="397.20454545454544" type="curve" smooth="yes"/>
      <point x="198.61363636363637" y="425.79545454545456"/>
      <point x="220.45454545454544" y="445.9318181818182"/>
      <point x="244.5" y="445.9318181818182" type="curve" smooth="yes"/>
      <point x="280.47727272727275" y="445.9318181818182"/>
      <point x="304.22727272727275" y="428.84090909090907"/>
      <point x="342.29545454545456" y="389.27272727272725" type="curve"/>
      <point x="303.1136363636364" y="481.34090909090907" type="line"/>
      <point x="309.9318181818182" y="336.59090909090907" type="line"/>
      <point x="359.45454545454544" y="333.59090909090907" type="line"/>
      <point x="396.77272727272725" y="461.25" type="line"/>
      <point x="375.77272727272725" y="497.4318181818182" type="line"/>
      <point x="338.20454545454544" y="504.54545454545456"/>
      <point x="296.22727272727275" y="512.4318181818181"/>
      <point x="254.9090909090909" y="512.4318181818181" type="curve" smooth="yes"/>
      <point x="145.11363636363637" y="512.4318181818181"/>
      <point x="72.11363636363636" y="454.8636363636364"/>
      <point x="72.11363636363636" y="365.45454545454544" type="curve" smooth="yes"/>
      <point x="72.11363636363636" y="230.97727272727272"/>
      <point x="229.9318181818182" y="184.72727272727272"/>
      <point x="229.9318181818182" y="115.9090909090909" type="curve" smooth="yes"/>
      <point x="229.9318181818182" y="75.0909090909091"/>
      <point x="207.6590909090909" y="54.95454545454545"/>
      <point x="173.61363636363637" y="54.95454545454545" type="curve" smooth="yes"/>
      <point x="137.1590909090909" y="54.95454545454545"/>
      <point x="107.0909090909091" y="75.72727272727272"/>
      <point x="67.11363636363636" y="124.0" type="curve"/>
      <point x="102.5" y="28.136363636363637" type="line"/>
      <point x="107.75" y="178.29545454545453" type="line"/>
      <point x="62.11363636363637" y="190.8409090909091" type="line"/>
      <point x="13.886363636363637" y="76.11363636363636" type="line"/>
      <point x="21.75" y="33.59090909090909" type="line"/>
      <point x="71.11363636363636" y="1.15909090909091"/>
      <point x="119.5909090909091" y="-14.431818181818182"/>
    </contour>
  </outline>
</glyph>
<glyph name="t" format="2">
  <advance width="411.70454545454544"/>
  <unicode hex="0074"/>
  <anchor x="162.86363636363637" y="0.0" name="bottom"/>
  <anchor x="165.1590909090909" y="270.34090909090907" name="center"/>
  <anchor x="222.6818181818182" y="548.75" name="top"/>
  <anchor x="371.9318181818182" y="543.6818181818181" name="topright"/>
  <outline>
    <contour>
      <point x="376.59090909090907" y="122.36363636363636" type="curve"/>
      <point x="329.8636363636364" y="160.0909090909091" type="line"/>
      <point x="267.47727272727275" y="70.88636363636363"/>
      <point x="195.20454545454544" y="39.79545454545455"/>
      <point x="208.77272727272728" y="141.86363636363637" type="curve" smooth="yes"/>
      <point x="222.45454545454544" y="246.5"/>
      <point x="235.13636363636363" y="332.6363636363636"/>
      <point x="256.6818181818182" y="457.79545454545456" type="curve"/>
      <point x="183.97727272727272" y="418.90909090909093" type="line"/>
      <point x="376.3863636363636" y="418.90909090909093" type="line"/>
      <point x="395.70454545454544" y="494.72727272727275" type="line"/>
      <point x="204.61363636363637" y="494.72727272727275" type="line"/>
      <point x="255.79545454545456" y="456.70454545454544" type="line"/>
      <point x="276.02272727272725" y="592.3636363636364" type="line"/>
      <point x="212.75" y="612.2272727272727" type="line"/>
      <point x="212.75" y="612.2272727272727"/>
      <point x="167.97727272727272" y="530.9318181818181"/>
      <point x="149.52272727272728" y="518.7045454545455" type="curve" smooth="yes"/>
      <point x="125.52272727272728" y="503.04545454545456"/>
      <point x="74.11363636363636" y="486.1818181818182"/>
      <point x="43.77272727272727" y="476.75" type="curve"/>
      <point x="37.11363636363637" y="418.90909090909093" type="line"/>
      <point x="175.4090909090909" y="418.90909090909093" type="line"/>
      <point x="121.5" y="460.6818181818182" type="line"/>
      <point x="106.36363636363636" y="328.0"/>
      <point x="92.5" y="239.4090909090909"/>
      <point x="71.38636363636364" y="128.1590909090909" type="curve" smooth="yes"/>
      <point x="35.38636363636364" y="-61.09090909090909"/>
      <point x="257.79545454545456" y="-65.0909090909091"/>
    </contour>
  </outline>
</glyph>
<glyph name="u" format="2">
  <advance width="584.875"/>
  <unicode hex="0075"/>
  <anchor x="256.47727272727275" y="0.0" name="bottom"/>
  <anchor x="431.6363636363636" y="492.90909090909093" name="horn"/>
  <anchor x="418.20454545454544" y="0.0" name="ogonek"/>
  <anchor x="343.8636363636364" y="494.0" name="top"/>
  <anchor x="589.9772727272727" y="494.6818181818182" name="topright"/>
  <outline>
    <contour>
      <point x="132.11363636363637" y="-14.431818181818182" type="curve" smooth="yes"/>
      <point x="260.0909090909091" y="-14.431818181818182"/>
      <point x="345.75" y="132.72727272727272"/>
      <point x="387.02272727272725" y="248.54545454545456" type="curve"/>
      <point x="375.47727272727275" y="247.77272727272728" type="line"/>
      <point x="374.77272727272725" y="176.4090909090909"/>
      <point x="337.29545454545456" y="78.97727272727273"/>
      <point x="308.65909090909093" y="3.2272727272727275" type="curve"/>
      <point x="342.40909090909093" y="-14.431818181818182" type="line"/>
      <point x="538.6363636363636" y="27.90909090909091" type="line"/>
      <point x="542.5227272727273" y="78.63636363636364" type="line"/>
      <point x="404.6818181818182" y="90.61363636363636" type="line"/>
      <point x="461.04545454545456" y="51.43181818181818" type="line"/>
      <point x="465.52272727272725" y="183.9318181818182"/>
      <point x="498.3636363636364" y="306.77272727272725"/>
      <point x="544.4772727272727" y="486.1363636363636" type="curve"/>
      <point x="507.52272727272725" y="512.4318181818181" type="line"/>
      <point x="402.52272727272725" y="494.77272727272725" type="line"/>
      <point x="395.29545454545456" y="443.95454545454544" type="line"/>
      <point x="376.9318181818182" y="350.75"/>
      <point x="338.1818181818182" y="246.5909090909091"/>
      <point x="295.40909090909093" y="179.04545454545456" type="curve" smooth="yes"/>
      <point x="265.9318181818182" y="131.77272727272728"/>
      <point x="240.25" y="107.63636363636363"/>
      <point x="216.02272727272728" y="107.63636363636363" type="curve" smooth="yes"/>
      <point x="199.54545454545456" y="107.63636363636363"/>
      <point x="197.0909090909091" y="130.75"/>
      <point x="197.0909090909091" y="150.11363636363637" type="curve" smooth="yes"/>
      <point x="197.0909090909091" y="210.04545454545456"/>
      <point x="228.52272727272728" y="337.8636363636364"/>
      <point x="270.52272727272725" y="485.45454545454544" type="curve"/>
      <point x="232.02272727272728" y="512.4318181818181" type="line"/>
      <point x="45.43181818181818" y="469.20454545454544" type="line"/>
      <point x="45.43181818181818" y="419.1363636363636" type="line"/>
      <point x="174.72727272727272" y="411.3636363636364" type="line"/>
      <point x="117.36363636363636" y="457.8636363636364" type="line"/>
      <point x="120.0" y="315.5"/>
      <point x="57.25" y="168.11363636363637"/>
      <point x="57.25" y="67.5909090909091" type="curve" smooth="yes"/>
      <point x="57.25" y="21.704545454545453"/>
      <point x="83.68181818181819" y="-14.431818181818182"/>
    </contour>
  </outline>
</glyph>
